<svg id="Camada_1" data-name="Camada 1" xmlns="http://www.w3.org/2000/svg" viewBox="0 0 953.62 192.36"><defs><style>.cls-1{fill:#010101;}</style></defs><path class="cls-1" d="M102.43,54.25l.88,3.38,3.93,15.2,5.35,21L117.48,113v.58H98.88c-.34-1.07-.55-2.16-.86-3.23s-.54-2.15-.82-3.22l-.82-3.22-.82-3.22-.82-3-.82-3-.82-3.23-.82-3.22-.82-3.22-.82-3.32h-.43v.16l-.52,2-3.46,13-3.32,13-.82,3.22v.52h-18v-.37l1.68-6.78,3.68-14.92L73,76.75,76.89,61l1.52-6.08a5,5,0,0,0,0-.55Z"/><path class="cls-1" d="M158.59,131c-.18.18,0,.42-.21.64-.34,1-.64,2-1,3l-14.29,44.72-2.28,7.15-.18.48H117.57l-.21-.76-14.14-55.39h18.64c.4,1.37.7,2.7,1.06,4l1,4,1.18,3.81,1,4,1,4,1,4.05,1,4c.33,1.34.67,2.7,1,4h.49l4.41-16.08,4.41-16.11h19.06Z"/><path class="cls-1" d="M51.39,162.88h.39l.79-3,4.59-18.7,2.37-9.69V131H77.32c.49,0,0,.33,0,.49l-.76,3-3.83,15.2L67.59,170l-4.23,16.78-.18.61H40c-.21,0-.24-.37-.3-.58l-2.37-7.39-14.17-44.2-1.4-3.93a1.1,1.1,0,0,1,0-.57H42.45v.42l8.81,31.38v.21Z"/></svg>