<svg id="Camada_1" data-name="Camada 1" xmlns="http://www.w3.org/2000/svg" viewBox="0 0 953.62 192.36"><path d="M200.79,51.34h0m0,0h0m-4.34,0h0m0,0h0m0,0h0m0,0h0m-1.11,0-3.07.25h8.52l-5.45-.25m0,0-3.07.25h8.52l-5.45-.25m0,0,5.45.25v-.25h-5.45m0,0,5.45.25v-.25h-5.45m-3.07.25h0m0,0h0m0,0h0m0,0h0m0,0-2.48.26h11l-8.52-.26m0,0-2.48.26h11l-8.52-.26m0,0,8.52.26v-.26h-8.52m0,0,8.52.26v-.26h-8.52m-2.48.26-1.53.26h12.53l-11-.26m0,0-1.53.26h12.53l-11-.26m0,0,11,.26v-.26h-11m0,0,11,.26v-.26h-11m-1.53.26-1.11.17h13.64l-12.53-.17m0,0-1.11.17h13.64l-12.53-.17m0,0,12.53.17v-.17H188.26m0,0,12.53.17v-.17H188.26m-1.11.17-2.56.59h16.2l-13.64-.59m0,0-2.56.59h16.2l-13.64-.59m0,0,13.64.59v-.59H187.15m0,0,13.64.59v-.59H187.15m-2.56.59h0m0,0h0m0,0h0m0,0h0m-.08,0-2.13.6h18.41l-16.28-.6m0,0-2.13.6h18.41l-16.28-.6m0,0,16.28.6v-.6H184.51m0,0,16.28.6v-.6H184.51m-2.13.6-1.54.43h19.95l-18.41-.43m0,0-1.54.43h19.95l-18.41-.43m0,0,18.41.43v-.43H182.38m0,0,18.41.43v-.43H182.38m-52.1.94v.08H151l-20.72-.08m0,0v.08H151l-20.72-.08m0,0,20.72.08v-.08H130.28m0,0,20.72.08v-.08H130.28m0,.08h0m0,0h0m0,0h0m0,0h0m0,0v.26H151l-20.72-.26m0,0v.26H151l-20.72-.26m0,0,20.72.26v-.26H130.28m0,0,20.72.26v-.26H130.28m0,.26h0m0,0h0m0,0h0m0,0h0m50.56-.85-2.73,1h22.68l-19.95-1m0,0-2.73,1h22.68l-19.95-1m0,0,19.95,1v-1H180.84m0,0,19.95,1v-1H180.84m-50.56.85v.34H151l-20.72-.34m0,0v.34H151l-20.72-.34m0,0,20.72.34v-.34H130.28m0,0,20.72.34v-.34H130.28m0,.34v.09H151l-20.72-.09m0,0v.09H151l-20.72-.09m0,0,20.72.09v-.09H130.28m0,0,20.72.09v-.09H130.28m47.83-.17-.59.26h23.27l-22.68-.26m0,0-.59.26h23.27l-22.68-.26m0,0,22.68.26v-.26H178.11m0,0,22.68.26v-.26H178.11m-47.83.26v.42H151l-20.72-.42m0,0v.42H151l-20.72-.42m0,0L151,55.6v-.42H130.28m0,0L151,55.6v-.42H130.28m0,.42v.09H151l-20.72-.09m0,0v.09H151l-20.72-.09m0,0,20.72.09V55.6H130.28m0,0,20.72.09V55.6H130.28m0,.09v.59H151l-20.72-.59m0,0v.59H151l-20.72-.59m0,0,20.72.59v-.59H130.28m0,0,20.72.59v-.59H130.28m0,.59v.17H151l-20.72-.17m0,0v.17H151l-20.72-.17m0,0,20.72.17v-.17H130.28m0,0,20.72.17v-.17H130.28m47.24-1.1-3.16,1.53h26.43l-23.27-1.53m0,0-3.16,1.53h26.43l-23.27-1.53m0,0,23.27,1.53V55.18H177.52m0,0,23.27,1.53V55.18H177.52m-3.16,1.53h0m0,0h0m0,0h0m0,0h0m-44.08-.26v.6H151l-20.72-.6m0,0v.6H151l-20.72-.6m0,0,20.72.6v-.6H130.28m0,0,20.72.6v-.6H130.28m0,.6v.34H151l-20.72-.34m0,0v.34H151l-20.72-.34m0,0,20.72.34v-.34H130.28m0,0,20.72.34v-.34H130.28m0,.34v.51H151l-20.72-.51m0,0v.51H151l-20.72-.51m0,0L151,57.9v-.51H130.28m0,0L151,57.9v-.51H130.28m0,.51v.52H151l-20.72-.52m0,0v.52H151l-20.72-.52m0,0,20.72.52V57.9H130.28m0,0,20.72.52V57.9H130.28m44-1.19-3,1.88h29.5l-26.51-1.88m0,0-3,1.88h29.5l-26.51-1.88m0,0,26.51,1.88V56.71H174.28m0,0,26.51,1.88V56.71H174.28m-3,1.88-.17.08h29.67l-29.5-.08m0,0-.17.08h29.67l-29.5-.08m0,0,29.5.08v-.08h-29.5m0,0,29.5.08v-.08h-29.5m-41-.17v.42H151l-20.72-.42m0,0v.42H151l-20.72-.42m0,0,20.72.42v-.42H130.28m0,0,20.72.42v-.42H130.28m0,.42v.77H151l-20.72-.77m0,0v.77H151l-20.72-.77m0,0,20.72.77v-.77H130.28m0,0,20.72.77v-.77H130.28m40.84-.17-2.73,2h32.4l-29.67-2m0,0-2.73,2h32.4l-29.67-2m0,0,29.67,2v-2H171.12m0,0,29.67,2v-2H171.12m-40.84.94V61H151l-20.72-1.36m0,0V61H151l-20.72-1.36m0,0L151,61V59.61H130.28m0,0L151,61V59.61H130.28m0,1.36h0m0,0h0m0,0h0m0,0h0m0,0v1.45H151L130.28,61m0,0v1.45H151L130.28,61m0,0L151,62.42V61H130.28m0,0L151,62.42V61H130.28m38.11-.34-2.73,2.3h35.13l-32.4-2.3m0,0-2.73,2.3h35.13l-32.4-2.3m0,0,32.4,2.3v-2.3h-32.4m0,0,32.4,2.3v-2.3h-32.4m-2.73,2.3V63h35.13l-35.13-.09m0,0V63h35.13l-35.13-.09m0,0,35.13.09v-.09H165.66m0,0,35.13.09v-.09H165.66m-35.38-.51v.94H151l-20.72-.94m0,0v.94H151l-20.72-.94m0,0,20.72.94v-.94H130.28m0,0,20.72.94v-.94H130.28m0,.94V64H151l-20.72-.68m0,0V64H151l-20.72-.68m0,0L151,64v-.68H130.28m0,0L151,64v-.68H130.28M165.66,63,163,65.58h37.77L165.66,63m0,0L163,65.58h37.77L165.66,63m0,0,35.13,2.56V63H165.66m0,0,35.13,2.56V63H165.66m-35.38,1v1.71H151L130.28,64m0,0v1.71H151L130.28,64m0,0L151,65.75V64H130.28m0,0L151,65.75V64H130.28M163,65.58l-1.45,1.7h39.22L163,65.58m0,0-1.45,1.7h39.22L163,65.58m0,0,37.77,1.7v-1.7H163m0,0,37.77,1.7v-1.7H163m-32.74.17v1.79H151l-20.72-1.79m0,0v1.79H151l-20.72-1.79m0,0L151,67.54V65.75H130.28m0,0L151,67.54V65.75H130.28m31.29,1.53-1.11,1.2h40.33l-39.22-1.2m0,0-1.11,1.2h40.33l-39.22-1.2m0,0,39.22,1.2v-1.2H161.57m0,0,39.22,1.2v-1.2H161.57m-31.29.26v1H151l-20.72-1m0,0v1H151l-20.72-1m0,0,20.72,1v-1H130.28m0,0,20.72,1v-1H130.28m30.18.94-.51.76h40.84l-40.33-.76m0,0-.51.76h40.84l-40.33-.76m0,0,40.33.76v-.76H160.46m0,0,40.33.76v-.76H160.46m-30.18.08v.94H151l-20.72-.94m0,0v.94H151l-20.72-.94m0,0L151,69.5v-.94H130.28m0,0L151,69.5v-.94H130.28m29.67.68L158.59,71h42.2L160,69.24m0,0L158.59,71h42.2L160,69.24m0,0L200.79,71V69.24H160m0,0L200.79,71V69.24H160m-29.67.26v2H151l-20.72-2m0,0v2H151l-20.72-2m0,0,20.72,2v-2H130.28m0,0,20.72,2v-2H130.28M158.59,71l-.51.6h42.71l-42.2-.6m0,0-.51.6h42.71l-42.2-.6m0,0,42.2.6V71h-42.2m0,0,42.2.6V71h-42.2m-28.31.52v.93H151l-20.72-.93m0,0v.93H151l-20.72-.93m0,0,20.72.93v-.93H130.28m0,0,20.72.93v-.93H130.28m27.8.08-.6.85h43.31l-42.71-.85m0,0-.6.85h43.31l-42.71-.85m0,0,42.71.85v-.85H158.08m0,0,42.71.85v-.85H158.08m-.6.85-.43.6h43.74l-43.31-.6m0,0-.43.6h43.74l-43.31-.6m0,0,43.31.6v-.6H157.48m0,0,43.31.6v-.6H157.48m-.43.6-.34.6h44.08l-43.74-.6m0,0-.34.6h44.08l-43.74-.6m0,0,43.74.6v-.6H157.05m0,0,43.74.6v-.6H157.05m-26.77-.6v1.28H151l-20.72-1.28m0,0v1.28H151l-20.72-1.28m0,0L151,73.76V72.48H130.28m0,0L151,73.76V72.48H130.28m26.43,1.2-.25.42h44.33l-44.08-.42m0,0-.25.42h44.33l-44.08-.42m0,0,44.08.42v-.42H156.71m0,0,44.08.42v-.42H156.71m-26.43.08v.6H151l-20.72-.6m0,0v.6H151l-20.72-.6m0,0,20.72.6v-.6H130.28m0,0,20.72.6v-.6H130.28m26.18.34-.26.26h44.59l-44.33-.26m0,0-.26.26h44.59l-44.33-.26m0,0,44.33.26V74.1H156.46m0,0,44.33.26V74.1H156.46m-.26.26-.09.26h44.68l-44.59-.26m0,0-.09.26h44.68l-44.59-.26m0,0,44.59.26v-.26H156.2m0,0,44.59.26v-.26H156.2m-.09.26h0m0,0h0m0,0h0m0,0h0m-.08,0v.08h41.52L156,74.62m0,0v.08h41.52L156,74.62m0,0,41.52.08,3.24-.08H156m0,0,41.52.08,3.24-.08H156m0,.08-.17.17h38.62L156,74.7m0,0-.17.17h38.62L156,74.7m0,0,38.45.17,3.07-.17H156m0,0,38.45.17,3.07-.17H156m-.17.17-.09.17h36.84l-36.75-.17m0,0-.09.17h36.84l-36.75-.17m0,0,36.75.17,1.87-.17H155.86m0,0,36.75.17,1.87-.17H155.86m-.09.17-.08.09h35.72L155.77,75m0,0-.08.09h35.72L155.77,75m0,0,35.64.09,1.2-.09H155.77m0,0,35.64.09,1.2-.09H155.77m-.08.09-.17.42H188.6l-32.91-.42m0,0-.17.42H188.6l-32.91-.42m0,0,32.91.42,2.81-.42H155.69m0,0,32.91.42,2.81-.42H155.69m-25.41-.77V76H151l-20.72-1.62m0,0V76H151l-20.72-1.62m0,0L151,76V74.36H130.28m0,0L151,76V74.36H130.28m25.24,1.19-.34.52h30.61l-30.27-.52m0,0-.34.52h30.61l-30.27-.52m0,0,30.27.52,2.81-.52H155.52m0,0,30.27.52,2.81-.52H155.52M130.28,76v.17H151L130.28,76m0,0v.17H151L130.28,76m0,0,20.72.17V76H130.28m0,0,20.72.17V76H130.28m24.9.09-.34.59h28.3l-28-.59m0,0-.34.59h28.3l-28-.59m0,0,28,.59,2.65-.59H155.18m0,0,28,.59,2.65-.59H155.18m-.34.59-.43.77h26.26l-25.83-.77m0,0-.43.77h26.26l-25.83-.77m0,0,25.83.77,2.47-.77h-28.3m0,0,25.83.77,2.47-.77h-28.3m-24.56-.51v1.62H151l-20.72-1.62m0,0v1.62H151l-20.72-1.62m0,0L151,77.77V76.15H130.28m0,0L151,77.77V76.15H130.28m24.13,1.28-.51.85h24.38l-23.87-.85m0,0-.51.85h24.38l-23.87-.85m0,0,23.87.85,2.39-.85H154.41m0,0,23.87.85,2.39-.85H154.41m-.51.85-.34.43h23.62l-23.28-.43m0,0-.34.43h23.62l-23.28-.43m0,0,23.28.43,1.1-.43H153.9m0,0,23.28.43,1.1-.43H153.9m-23.62-.51v1.45H151l-20.72-1.45m0,0v1.45H151l-20.72-1.45m0,0L151,79.22V77.77H130.28m0,0L151,79.22V77.77H130.28m23.28.94-.26.51H176l-22.42-.51m0,0-.26.51H176l-22.42-.51m0,0,22.42.51,1.2-.51H153.56m0,0,22.42.51,1.2-.51H153.56m-.26.51-.51,1.11h21.06L153.3,79.22m0,0-.51,1.11h21.06L153.3,79.22m0,0,20.55,1.11L176,79.22H153.3m0,0,20.55,1.11L176,79.22H153.3m-23,0V80.5H151l-20.72-1.28m0,0V80.5H151l-20.72-1.28m0,0L151,80.5V79.22H130.28m0,0L151,80.5V79.22H130.28m0,1.28v.25H151l-20.72-.25m0,0v.25H151l-20.72-.25m0,0,20.72.25V80.5H130.28m0,0,20.72.25V80.5H130.28m0,.25v.69H151l-20.72-.69m0,0v.69H151l-20.72-.69m0,0,20.72.69v-.69H130.28m0,0,20.72.69v-.69H130.28m22.51-.42-.6,1.19h19.53l-18.93-1.19m0,0-.6,1.19h19.53l-18.93-1.19m0,0,18.93,1.19,2.13-1.19H152.79m0,0,18.93,1.19,2.13-1.19H152.79m-22.51,1.11v.76H151l-20.72-.76m0,0v.76H151l-20.72-.76m0,0L151,82.2v-.76H130.28m0,0L151,82.2v-.76H130.28m0,.76v.43H151l-20.72-.43m0,0v.43H151l-20.72-.43m0,0,20.72.43V82.2H130.28m0,0,20.72.43V82.2H130.28m21.91-.68-.68,1.2h18.42l-17.74-1.2m0,0-.68,1.2h18.42l-17.74-1.2m0,0,17.74,1.2,1.79-1.2H152.19m0,0,17.74,1.2,1.79-1.2H152.19m-21.91,1.11v.09H151l-20.72-.09m0,0v.09H151l-20.72-.09m0,0,20.72.09v-.09H130.28m0,0,20.72.09v-.09H130.28m0,.09v.08h39.56l-39.56-.08m0,0v.08h39.56l-39.56-.08m0,0,39.56.08.09-.08H130.28m0,0,39.56.08.09-.08H130.28m0,.08v1.37H168L130.28,82.8m0,0v1.37H168L130.28,82.8m0,0L168,84.17l1.87-1.37H130.28m0,0L168,84.17l1.87-1.37H130.28m0,1.37v1.44h36l-36-1.44m0,0v1.44h36l-36-1.44m0,0,36,1.44L168,84.17H130.28m0,0,36,1.44L168,84.17H130.28m0,1.44v.26h35.81l-35.81-.26m0,0v.26h35.81l-35.81-.26m0,0,35.81.26.17-.26h-36m0,0,35.81.26.17-.26h-36m0,.26v1.37h34.45l-34.45-1.37m0,0v1.37h34.45l-34.45-1.37m0,0,34.45,1.37,1.36-1.37H130.28m0,0,34.45,1.37,1.36-1.37H130.28m0,1.37v1.7h32.91l-32.91-1.7m0,0v1.7h32.91l-32.91-1.7m0,0,32.91,1.7,1.54-1.7H130.28m0,0,32.91,1.7,1.54-1.7H130.28m0,1.7v1.79h31.55l-31.55-1.79m0,0v1.79h31.55l-31.55-1.79m0,0,31.55,1.79,1.36-1.79H130.28m0,0,31.55,1.79,1.36-1.79H130.28m0,1.79v.51h31.21l-31.21-.51m0,0v.51h31.21l-31.21-.51m0,0,31.21.51.34-.51H130.28m0,0,31.21.51.34-.51H130.28m0,.51v1.37h30.27l-30.27-1.37m0,0v1.37h30.27l-30.27-1.37m0,0,30.27,1.37.94-1.37H130.28m0,0,30.27,1.37.94-1.37H130.28m0,1.37v2h29.07l-29.07-2m0,0v2h29.07l-29.07-2m0,0,29.07,2,1.2-2H130.28m0,0,29.07,2,1.2-2H130.28m0,2V96.7h28l-28-2.13m0,0V96.7h28l-28-2.13m0,0,28,2.13,1.1-2.13H130.28m0,0,28,2.13,1.1-2.13H130.28m0,2.13v.08h28l-28-.08m0,0v.08h28l-28-.08m0,0,28,.08V96.7h-28m0,0,28,.08V96.7h-28m0,.08v2h27l-27-2m0,0v2h27l-27-2m0,0,27,2,.94-2h-28m0,0,27,2,.94-2h-28m0,2v2.3h26.09l-26.09-2.3m0,0v2.3h26.09l-26.09-2.3m0,0,26.09,2.3.94-2.3h-27m0,0,26.09,2.3.94-2.3h-27m0,2.3v1.45h25.58l-25.58-1.45m0,0v1.45h25.58l-25.58-1.45m0,0,25.58,1.45.51-1.45H130.28m0,0,25.58,1.45.51-1.45H130.28m0,1.45v.86H155.6l-25.32-.86m0,0v.86H155.6l-25.32-.86m0,0,25.32.86.26-.86H130.28m0,0,25.32.86.26-.86H130.28m0,.86v2.47h24.64l-24.64-2.47m0,0v2.47h24.64l-24.64-2.47m0,0,24.64,2.47.68-2.47H130.28m0,0,24.64,2.47.68-2.47H130.28m0,2.47v2.56h24l-24-2.56m0,0v2.56h24l-24-2.56m0,0,24,2.56.6-2.56H130.28m0,0,24,2.56.6-2.56H130.28m0,2.56v1.62H154l-23.7-1.62m0,0v1.62H154l-23.7-1.62m0,0,23.7,1.62.34-1.62h-24m0,0,23.7,1.62.34-1.62h-24m0,1.62v4.43h22.94l-22.94-4.43m0,0v4.43h22.94l-22.94-4.43m0,0,22.94,4.43.76-4.43h-23.7m0,0,22.94,4.43.76-4.43h-23.7m0,21.48v.94h22l-22-.94m0,0v.94h22l-22-.94m0,0,22,.94v-.94h-22m0,0,22,.94v-.94h-22m0,.94v1h22l-22-1m0,0v1h22l-22-1m0,0,22,1v-1h-22m0,0,22,1v-1h-22m0,1v1.11h22l-22-1.11m0,0v1.11h22l-22-1.11m0,0,22,1.11v-1.11h-22m0,0,22,1.11v-1.11h-22m0,1.11v1.28h22l-22-1.28m0,0v1.28h22l-22-1.28m0,0,22,1.28v-1.28h-22m0,0,22,1.28v-1.28h-22m0,1.28v1.28h22l-22-1.28m0,0v1.28h22l-22-1.28m0,0,22,1.28v-1.28h-22m0,0,22,1.28v-1.28h-22m0,1.28v.26h22l-22-.26m0,0v.26h22l-22-.26m0,0,22,.26v-.26h-22m0,0,22,.26v-.26h-22m0,.26v1.19h22l-22-1.19m0,0v1.19h22l-22-1.19m0,0,22,1.19v-1.19h-22m0,0,22,1.19v-1.19h-22m0,1.19v3.07h22l-22-3.07m0,0v3.07h22l-22-3.07m0,0,22,3.07v-3.07h-22m0,0,22,3.07v-3.07h-22m0,3.07v1.45h22l-22-1.45m0,0v1.45h22l-22-1.45m0,0,22,1.45v-1.45h-22m0,0,22,1.45v-1.45h-22m0,1.45v1.88h22l-22-1.88m0,0v1.88h22l-22-1.88m0,0,22,1.88v-1.88h-22m0,0,22,1.88v-1.88h-22m0,1.88v3.58h22l-22-3.58m0,0v3.58h22l-22-3.58m0,0,22,3.58v-3.58h-22m0,0,22,3.58v-3.58h-22m0,3.58v.17h22l-22-.17m0,0v.17h22l-22-.17m0,0,22,.17v-.17h-22m0,0,22,.17v-.17h-22m0,.17v3.49h22l-22-3.49m0,0v3.49h22l-22-3.49m0,0,22,3.49V148.8h-22m0,0,22,3.49V148.8h-22m0,3.49v1.88h22l-22-1.88m0,0v1.88h22l-22-1.88m0,0,22,1.88v-1.88h-22m0,0,22,1.88v-1.88h-22m0,1.88v2h22l-22-2m0,0v2h22l-22-2m0,0,22,2v-2h-22m0,0,22,2v-2h-22m0,2v3.24h22l-22-3.24m0,0v3.24h22l-22-3.24m0,0,22,3.24v-3.24h-22m0,0,22,3.24v-3.24h-22m0,3.24v4.43h22l-22-4.43m0,0v4.43h22l-22-4.43m0,0,22,4.43v-4.43h-22m0,0,22,4.43v-4.43h-22m0,4.43v.43h22l-22-.43m0,0v.43h22l-22-.43m0,0,22,.43v-.43h-22m0,0,22,.43v-.43h-22m0,.43v2.3h22l-22-2.3m0,0v2.3h22l-22-2.3m0,0,22,2.3v-2.3h-22m0,0,22,2.3v-2.3h-22m0,2.3v1h22l-22-1m0,0v1h22l-22-1m0,0,22,1v-1h-22m0,0,22,1v-1h-22m0,1v1.19h22l-22-1.19m0,0v1.19h22l-22-1.19m0,0,22,1.19v-1.19h-22m0,0,22,1.19v-1.19h-22m0,1.19V171h22l-22-2.22m0,0V171h22l-22-2.22m0,0,22,2.22v-2.22h-22m0,0,22,2.22v-2.22h-22m0,2.22v.17h22l-22-.17m0,0v.17h22l-22-.17m0,0,22,.17V171h-22m0,0,22,.17V171h-22m0,.17V173h22l-22-1.87m0,0V173h22l-22-1.87m0,0,22,1.87v-1.87h-22m0,0,22,1.87v-1.87h-22m0,1.87v1.54h22l-22-1.54m0,0v1.54h22l-22-1.54m0,0,22,1.54V173h-22m0,0,22,1.54V173h-22m0,1.54v.34h22l-22-.34m0,0v.34h22l-22-.34m0,0,22,.34v-.34h-22m0,0,22,.34v-.34h-22m0,.34v1.87h22l-22-1.87m0,0v1.87h22l-22-1.87m0,0,22,1.87v-1.87h-22m0,0,22,1.87v-1.87h-22m0,1.87v.94h22l-22-.94m0,0v.94h22l-22-.94m0,0,22,.94v-.94h-22m0,0,22,.94v-.94h-22m0,.94v.77h22l-22-.77m0,0v.77h22l-22-.77m0,0,22,.77v-.77h-22m0,0,22,.77v-.77h-22m0,.77v1.62h22l-22-1.62m0,0v1.62h22l-22-1.62m0,0,22,1.62v-1.62h-22m0,0,22,1.62v-1.62h-22m0,1.62v.51h22l-22-.51m0,0v.51h22l-22-.51m0,0,22,.51v-.51h-22m0,0,22,.51v-.51h-22m0,.51v.94h22l-22-.94m0,0v.94h22l-22-.94m0,0,22,.94v-.94h-22m0,0,22,.94v-.94h-22m0,.94v.34h22l-22-.34m0,0v.34h22l-22-.34m0,0,22,.34v-.34h-22m0,0,22,.34v-.34h-22m0,.34v1h22l-22-1m0,0v1h22l-22-1m0,0,22,1v-1h-22m0,0,22,1v-1h-22m0,1v.26h22l-22-.26m0,0v.26h22l-22-.26m0,0,22,.26v-.26h-22m0,0,22,.26v-.26h-22m0,.26v1h22l-22-1m0,0v1h22l-22-1m0,0,22,1v-1h-22m0,0,22,1v-1h-22m0,1v.09h22l-22-.09m0,0v.09h22l-22-.09m0,0,22,.09v-.09h-22m0,0,22,.09v-.09h-22m0,.09v.94h22l-22-.94m0,0v.94h22l-22-.94m0,0,22,.94v-.94h-22m0,0,22,.94v-.94h-22m0,.94h0m0,0h0m0,0h0m0,0h0m0,0v.93h22l-22-.93m0,0v.93h22l-22-.93m0,0,22,.93v-.93h-22m0,0,22,.93v-.93h-22m0,.93h0m0,0h0m0,0h0m0,0h0m0,0v.69h22l-22-.69m0,0v.69h22l-22-.69m0,0,22,.69v-.69h-22m0,0,22,.69v-.69h-22m0,.69V187h22l-22-.17m0,0V187h22l-22-.17m0,0,22,.17v-.17h-22m0,0,22,.17v-.17h-22m0,.17v.51h22l-22-.51m0,0v.51h22l-22-.51m0,0,22,.51V187h-22m0,0,22,.51V187h-22m0,.51v.08h22l-22-.08m0,0v.08h22l-22-.08m0,0,22,.08v-.08h-22m0,0,22,.08v-.08h-22m0,.08v.34h22l-22-.34m0,0v.34h22l-22-.34m0,0,22,.34v-.34h-22m0,0,22,.34v-.34h-22m0,.34v.17h22l-22-.17m0,0v.17h22l-22-.17m0,0,22,.17v-.17h-22m0,0,22,.17v-.17h-22m0,.17v.18h22l-22-.18m0,0v.18h22l-22-.18m0,0,22,.18v-.18h-22m0,0,22,.18v-.18h-22m0,.18v.08h22l-22-.08m0,0v.08h22l-22-.08m0,0,22,.08v-.08h-22m0,0,22,.08v-.08h-22m0,.08v.17h22l-22-.17m0,0v.17h22l-22-.17m0,0,22,.17v-.17h-22m0,0,22,.17v-.17h-22m0,.17h0m0,0h0m0,0h0m0,0h0m0,0h0m0,0h0m0,0h0m0,0h0m115-174.37v.17h22.09l-22.09-.17m0,0v.17h22.09l-22.09-.17m0,0,22.09.17v-.17H245.3m0,0,22.09.17v-.17H245.3m0,.17v.34h22.09l-22.09-.34m0,0v.34h22.09l-22.09-.34m0,0,22.09.34v-.34H245.3m0,0,22.09.34v-.34H245.3m0,.34v.52h22.09l-22.09-.52m0,0v.52h22.09l-22.09-.52m0,0,22.09.52v-.52H245.3m0,0,22.09.52v-.52H245.3m0,.52V16h22.09l-22.09-.76m0,0V16h22.09l-22.09-.76m0,0,22.09.76v-.76H245.3m0,0,22.09.76v-.76H245.3m0,.76v.86h22.09L245.3,16m0,0v.86h22.09L245.3,16m0,0,22.09.86V16H245.3m0,0,22.09.86V16H245.3m0,.86v1.1h22.09l-22.09-1.1m0,0v1.1h22.09l-22.09-1.1m0,0,22.09,1.1v-1.1H245.3m0,0,22.09,1.1v-1.1H245.3m0,1.1v1.2h22.09l-22.09-1.2m0,0v1.2h22.09l-22.09-1.2m0,0,22.09,1.2v-1.2H245.3m0,0,22.09,1.2v-1.2H245.3m0,1.2v1.36h22.09L245.3,19.11m0,0v1.36h22.09L245.3,19.11m0,0,22.09,1.36V19.11H245.3m0,0,22.09,1.36V19.11H245.3m0,1.36v1.45h22.09L245.3,20.47m0,0v1.45h22.09L245.3,20.47m0,0,22.09,1.45V20.47H245.3m0,0,22.09,1.45V20.47H245.3m0,1.45v1.62h22.09L245.3,21.92m0,0v1.62h22.09L245.3,21.92m0,0,22.09,1.62V21.92H245.3m0,0,22.09,1.62V21.92H245.3m0,1.62V27h22.09L245.3,23.54m0,0V27h22.09L245.3,23.54m0,0L267.39,27V23.54H245.3m0,0L267.39,27V23.54H245.3m0,3.41v3.58h22.09L245.3,27m0,0v3.58h22.09L245.3,27m0,0,22.09,3.58V27H245.3m0,0,22.09,3.58V27H245.3m0,3.58v3.75h22.09L245.3,30.53m0,0v3.75h22.09L245.3,30.53m0,0,22.09,3.75V30.53H245.3m0,0,22.09,3.75V30.53H245.3m0,3.75V38h22.09L245.3,34.28m0,0V38h22.09L245.3,34.28m0,0L267.39,38V34.28H245.3m0,0L267.39,38V34.28H245.3m0,3.76V41.7h22.09L245.3,38m0,0V41.7h22.09L245.3,38m0,0,22.09,3.66V38H245.3m0,0,22.09,3.66V38H245.3m0,3.66v3.41h22.09L245.3,41.7m0,0v3.41h22.09L245.3,41.7m0,0,22.09,3.41V41.7H245.3m0,0,22.09,3.41V41.7H245.3m0,3.41v1.54h22.09L245.3,45.11m0,0v1.54h22.09L245.3,45.11m0,0,22.09,1.54V45.11H245.3m0,0,22.09,1.54V45.11H245.3m0,1.54V48.1h22.09L245.3,46.65m0,0V48.1h22.09L245.3,46.65m0,0,22.09,1.45V46.65H245.3m0,0,22.09,1.45V46.65H245.3m0,1.45v1.36h22.09L245.3,48.1m0,0v1.36h22.09L245.3,48.1m0,0,22.09,1.36V48.1H245.3m0,0,22.09,1.36V48.1H245.3m0,1.36v1.28h22.09L245.3,49.46m0,0v1.28h22.09L245.3,49.46m0,0,22.09,1.28V49.46H245.3m0,0,22.09,1.28V49.46H245.3m0,1.28v1h22.09l-22.09-1m0,0v1h22.09l-22.09-1m0,0,22.09,1v-1H245.3m0,0,22.09,1v-1H245.3m0,1v.94h22.09l-22.09-.94m0,0v.94h22.09l-22.09-.94m0,0,22.09.94v-.94H245.3m0,0,22.09.94v-.94H245.3m0,.94v.68h22.09L245.3,52.7m0,0v.68h22.09L245.3,52.7m0,0,22.09.68V52.7H245.3m0,0,22.09.68V52.7H245.3m0,.68V54h22.09l-22.09-.6m0,0V54h22.09l-22.09-.6m0,0,22.09.6v-.6H245.3m0,0,22.09.6v-.6H245.3m0,.6v.34h22.09L245.3,54m0,0v.34h22.09L245.3,54m0,0,22.09.34V54H245.3m0,0,22.09.34V54H245.3m0,.34v.09h22.09l-22.09-.09m0,0v.09h22.09l-22.09-.09m0,0,22.09.09v-.09H245.3m0,0,22.09.09v-.09H245.3m-22.76.09v.08h71.53l-71.53-.08m0,0v.08h71.53l-71.53-.08m0,0,71.53.08v-.08H222.54m0,0,71.53.08v-.08H222.54m0,.08v.17h71.53l-71.53-.17m0,0v.17h71.53l-71.53-.17m0,0,71.53.17v-.17H222.54m0,0,71.53.17v-.17H222.54m0,.17v.26h71.53l-71.53-.26m0,0v.26h71.53l-71.53-.26m0,0,71.53.26v-.26H222.54m0,0,71.53.26v-.26H222.54m0,.26v.34h71.53l-71.53-.34m0,0v.34h71.53l-71.53-.34m0,0,71.53.34v-.34H222.54m0,0,71.53.34v-.34H222.54m0,.34v.94h71.53l-71.53-.94m0,0v.94h71.53l-71.53-.94m0,0,71.53.94v-.94H222.54m0,0,71.53.94v-.94H222.54m0,.94v1.28h71.53L222.54,56.2m0,0v1.28h71.53L222.54,56.2m0,0,71.53,1.28V56.2H222.54m0,0,71.53,1.28V56.2H222.54m0,1.28v1.45h71.53l-71.53-1.45m0,0v1.45h71.53l-71.53-1.45m0,0,71.53,1.45V57.48H222.54m0,0,71.53,1.45V57.48H222.54m0,1.45v1.62h71.53l-71.53-1.62m0,0v1.62h71.53l-71.53-1.62m0,0,71.53,1.62V58.93H222.54m0,0,71.53,1.62V58.93H222.54m0,1.62v3.58h71.53l-71.53-3.58m0,0v3.58h71.53l-71.53-3.58m0,0,71.53,3.58V60.55H222.54m0,0,71.53,3.58V60.55H222.54m0,3.58v3.58h71.53l-71.53-3.58m0,0v3.58h71.53l-71.53-3.58m0,0,71.53,3.58V64.13H222.54m0,0,71.53,3.58V64.13H222.54m0,3.58v1.62h71.53l-71.53-1.62m0,0v1.62h71.53l-71.53-1.62m0,0,71.53,1.62V67.71H222.54m0,0,71.53,1.62V67.71H222.54m0,1.62v1.53h71.53l-71.53-1.53m0,0v1.53h71.53l-71.53-1.53m0,0,71.53,1.53V69.33H222.54m0,0,71.53,1.53V69.33H222.54m0,1.53v1.2h71.53l-71.53-1.2m0,0v1.2h71.53l-71.53-1.2m0,0,71.53,1.2v-1.2H222.54m0,0,71.53,1.2v-1.2H222.54m0,1.2V73h71.53l-71.53-.94m0,0V73h71.53l-71.53-.94m0,0,71.53.94v-.94H222.54m0,0,71.53.94v-.94H222.54m0,.94v.42h71.53L222.54,73m0,0v.42h71.53L222.54,73m0,0,71.53.42V73H222.54m0,0,71.53.42V73H222.54m0,.42v.26h71.53l-71.53-.26m0,0v.26h71.53l-71.53-.26m0,0,71.53.26v-.26H222.54m0,0,71.53.26v-.26H222.54m0,.26v.17h71.53l-71.53-.17m0,0v.17h71.53l-71.53-.17m0,0,71.53.17v-.17H222.54m0,0,71.53.17v-.17H222.54m0,.17h0m0,0h0m0,0h0m0,0h0m22.76,0h0m0,0h0m0,0h0m0,0h0m0,0v.08h22.09l-22.09-.08m0,0v.08h22.09l-22.09-.08m0,0,22.09.08v-.08H245.3m0,0,22.09.08v-.08H245.3m0,.08V74h22.09l-22.09-.09m0,0V74h22.09l-22.09-.09m0,0,22.09.09v-.09H245.3m0,0,22.09.09v-.09H245.3m0,.09h0m0,0h0m0,0h0m0,0h0m0,0v.25h22.09L245.3,74m0,0v.25h22.09L245.3,74m0,0,22.09.25V74H245.3m0,0,22.09.25V74H245.3m0,.25h0m0,0h0m0,0h0m0,0h0m0,0v.35h22.09l-22.09-.35m0,0v.35h22.09l-22.09-.35m0,0,22.09.35v-.35H245.3m0,0,22.09.35v-.35H245.3m0,.35v.08h22.09l-22.09-.08m0,0v.08h22.09l-22.09-.08m0,0,22.09.08v-.08H245.3m0,0,22.09.08v-.08H245.3m0,.08V75h22.09L245.3,74.7m0,0V75h22.09L245.3,74.7m0,0,22.09.34V74.7H245.3m0,0,22.09.34V74.7H245.3m0,.34v.09h22.09L245.3,75m0,0v.09h22.09L245.3,75m0,0,22.09.09V75H245.3m0,0,22.09.09V75H245.3m0,.09v.42h22.09l-22.09-.42m0,0v.42h22.09l-22.09-.42m0,0,22.09.42v-.42H245.3m0,0,22.09.42v-.42H245.3m0,.42v.17h22.09l-22.09-.17m0,0v.17h22.09l-22.09-.17m0,0,22.09.17v-.17H245.3m0,0,22.09.17v-.17H245.3m0,.17v.52h22.09l-22.09-.52m0,0v.52h22.09l-22.09-.52m0,0,22.09.52v-.52H245.3m0,0,22.09.52v-.52H245.3m0,.52v.17h22.09l-22.09-.17m0,0v.17h22.09l-22.09-.17m0,0,22.09.17v-.17H245.3m0,0,22.09.17v-.17H245.3m0,.17V77h22.09l-22.09-.59m0,0V77h22.09l-22.09-.59m0,0,22.09.59v-.59H245.3m0,0,22.09.59v-.59H245.3m0,.59v.17h22.09L245.3,77m0,0v.17h22.09L245.3,77m0,0,22.09.17V77H245.3m0,0,22.09.17V77H245.3m0,.17v.69h22.09l-22.09-.69m0,0v.69h22.09l-22.09-.69m0,0,22.09.69v-.69H245.3m0,0,22.09.69v-.69H245.3m0,.69V78h22.09l-22.09-.17m0,0V78h22.09l-22.09-.17m0,0,22.09.17v-.17H245.3m0,0,22.09.17v-.17H245.3m0,.17v.76h22.09L245.3,78m0,0v.76h22.09L245.3,78m0,0,22.09.76V78H245.3m0,0,22.09.76V78H245.3m0,.76V79h22.09l-22.09-.17m0,0V79h22.09l-22.09-.17m0,0,22.09.17v-.17H245.3m0,0,22.09.17v-.17H245.3m0,.17v2h22.09L245.3,79m0,0v2h22.09L245.3,79m0,0,22.09,2V79H245.3m0,0,22.09,2V79H245.3m0,2v.25h22.09l-22.09-.25m0,0v.25h22.09l-22.09-.25m0,0,22.09.25v-.25H245.3m0,0,22.09.25v-.25H245.3m0,.25v2.13h22.09L245.3,81.18m0,0v2.13h22.09L245.3,81.18m0,0,22.09,2.13V81.18H245.3m0,0,22.09,2.13V81.18H245.3m0,2.13v.26h22.09l-22.09-.26m0,0v.26h22.09l-22.09-.26m0,0,22.09.26v-.26H245.3m0,0,22.09.26v-.26H245.3m0,.26V86h22.09L245.3,83.57m0,0V86h22.09L245.3,83.57m0,0L267.39,86V83.57H245.3m0,0L267.39,86V83.57H245.3m0,2.47v.26h22.09L245.3,86m0,0v.26h22.09L245.3,86m0,0,22.09.26V86H245.3m0,0,22.09.26V86H245.3m0,.26V89h22.09L245.3,86.3m0,0V89h22.09L245.3,86.3m0,0L267.39,89V86.3H245.3m0,0L267.39,89V86.3H245.3m0,2.73v.25h22.09L245.3,89m0,0v.25h22.09L245.3,89m0,0,22.09.25V89H245.3m0,0,22.09.25V89H245.3m0,.25v3h22.09l-22.09-3m0,0v3h22.09l-22.09-3m0,0,22.09,3v-3H245.3m0,0,22.09,3v-3H245.3m0,3v.25h22.09l-22.09-.25m0,0v.25h22.09l-22.09-.25m0,0,22.09.25v-.25H245.3m0,0,22.09.25v-.25H245.3m0,.25v3.16h22.09L245.3,92.52m0,0v3.16h22.09L245.3,92.52m0,0,22.09,3.16V92.52H245.3m0,0,22.09,3.16V92.52H245.3m0,3.16v.17h22.09l-22.09-.17m0,0v.17h22.09l-22.09-.17m0,0,22.09.17v-.17H245.3m0,0,22.09.17v-.17H245.3m0,.17v3.41h22.09L245.3,95.85m0,0v3.41h22.09L245.3,95.85m0,0,22.09,3.41V95.85H245.3m0,0,22.09,3.41V95.85H245.3m0,3.41v.17h22.09l-22.09-.17m0,0v.17h22.09l-22.09-.17m0,0,22.09.17v-.17H245.3m0,0,22.09.17v-.17H245.3m0,.17v3.49h22.09L245.3,99.43m0,0v3.49h22.09L245.3,99.43m0,0,22.09,3.49V99.43H245.3m0,0,22.09,3.49V99.43H245.3m0,3.49v.17h22.09l-22.09-.17m0,0v.17h22.09l-22.09-.17m0,0,22.09.17v-.17H245.3m0,0,22.09.17v-.17H245.3m0,.17v3.59h22.09l-22.09-3.59m0,0v3.59h22.09l-22.09-3.59m0,0,22.09,3.59v-3.59H245.3m0,0,22.09,3.59v-3.59H245.3m0,3.59v.17h22.09l-22.09-.17m0,0v.17h22.09l-22.09-.17m0,0,22.09.17v-.17H245.3m0,0,22.09.17v-.17H245.3m0,.17v7.67h22.09l-22.09-7.67m0,0v7.67h22.09l-22.09-7.67m0,0,22.09,7.67v-7.67H245.3m0,0,22.09,7.67v-7.67H245.3m0,24.72v5h22.09l-22.09-5m0,0v5h22.09l-22.09-5m0,0,22.09,5v-5H245.3m0,0,22.09,5v-5H245.3m0,5v.17h22.09l-22.09-.17m0,0v.17h22.09l-22.09-.17m0,0,22.09.17v-.17H245.3m0,0,22.09.17v-.17H245.3m0,.17v2.31h22.09l-22.09-2.31m0,0v2.31h22.09l-22.09-2.31m0,0,22.09,2.31v-2.31H245.3m0,0,22.09,2.31v-2.31H245.3m0,2.31v.17h22.09l-22.09-.17m0,0v.17h22.09l-22.09-.17m0,0,22.09.17v-.17H245.3m0,0,22.09.17v-.17H245.3m0,.17v2.13h22.09l-22.09-2.13m0,0v2.13h22.09l-22.09-2.13m0,0,22.09,2.13v-2.13H245.3m0,0,22.09,2.13v-2.13H245.3m0,2.13v.17h22.09l-22.09-.17m0,0v.17h22.09l-22.09-.17m0,0,22.09.17v-.17H245.3m0,0,22.09.17v-.17H245.3m0,.17v2.13h22.09l-22.09-2.13m0,0v2.13h22.09l-22.09-2.13m0,0,22.09,2.13v-2.13H245.3m0,0,22.09,2.13v-2.13H245.3m0,2.13v.17h22.09l-22.09-.17m0,0v.17h22.09l-22.09-.17m0,0,22.09.17v-.17H245.3m0,0,22.09.17v-.17H245.3m0,.17v2h22.09l-22.09-2m0,0v2h22.09l-22.09-2m0,0,22.09,2v-2H245.3m0,0,22.09,2v-2H245.3m0,2v.09h22.09l-22.09-.09m0,0v.09h22.09l-22.09-.09m0,0,22.09.09v-.09H245.3m0,0,22.09.09v-.09H245.3m0,.09v1.87h22.09L245.3,145.9m0,0v1.87h22.09L245.3,145.9m0,0,22.09,1.87V145.9H245.3m0,0,22.09,1.87V145.9H245.3m0,1.87v.09h22.09l-22.09-.09m0,0v.09h22.09l-22.09-.09m0,0,22.09.09v-.09H245.3m0,0,22.09.09v-.09H245.3m0,.09v1.79h22.09l-22.09-1.79m0,0v1.79h22.09l-22.09-1.79m0,0,22.09,1.79v-1.79H245.3m0,0,22.09,1.79v-1.79H245.3m0,1.79v.08h22.09l-22.09-.08m0,0v.08h22.09l-22.09-.08m0,0,22.09.08v-.08H245.3m0,0,22.09.08v-.08H245.3m0,.08v1.62h22.09l-22.09-1.62m0,0v1.62h22.09l-22.09-1.62m0,0,22.09,1.62v-1.62H245.3m0,0,22.09,1.62v-1.62H245.3m0,1.62v.09h22.09l-22.09-.09m0,0v.09h22.09l-22.09-.09m0,0,22.09.09v-.09H245.3m0,0,22.09.09v-.09H245.3m0,.09v1.36h22.09l-22.09-1.36m0,0v1.36h22.09l-22.09-1.36m0,0,22.09,1.36v-1.36H245.3m0,0,22.09,1.36v-1.36H245.3m0,1.36v.26h22.09l-22.09-.26m0,0v.26h22.09l-22.09-.26m0,0,22.09.26v-.26H245.3m0,0,22.09.26v-.26H245.3m0,.26v1h22.09l-22.09-1m0,0v1h22.09l-22.09-1m0,0,22.09,1v-1H245.3m0,0,22.09,1v-1H245.3m0,1v.43h22.09l-22.09-.43m0,0v.43h22.09l-22.09-.43m0,0,22.09.43v-.43H245.3m0,0,22.09.43v-.43H245.3m0,.43v.68h22.09l-22.09-.68m0,0v.68h22.09l-22.09-.68m0,0,22.09.68v-.68H245.3m0,0,22.09.68v-.68H245.3m0,.68v.51h22.09l-22.09-.51m0,0v.51h22.09l-22.09-.51m0,0,22.09.51v-.51H245.3m0,0,22.09.51v-.51H245.3m0,.51V156h22.09l-22.09-.34m0,0V156h22.09l-22.09-.34m0,0,22.09.34v-.34H245.3m0,0,22.09.34v-.34H245.3m0,.34v.6h22.09L245.3,156m0,0v.6h22.09L245.3,156m0,0,22.09.6V156H245.3m0,0,22.09.6V156H245.3m0,.6v.17h22.09l-22.09-.17m0,0v.17h22.09l-22.09-.17m0,0,22.09.17v-.17H245.3m0,0,22.09.17v-.17H245.3m0,.17V157h22.09l-22.09-.17m0,0V157h22.09l-22.09-.17m0,0,22.09.17v-.17H245.3m0,0,22.09.17v-.17H245.3m0,.17v.17h22.09L245.3,157m0,0v.17h22.09L245.3,157m0,0,22.09.17V157H245.3m0,0,22.09.17V157H245.3m0,.17v.6h22.09l-22.09-.6m0,0v.6h22.09l-22.09-.6m0,0,22.09.6v-.6H245.3m0,0,22.09.6v-.6H245.3m0,.6v.68h22.09l-22.09-.68m0,0v.68h22.09l-22.09-.68m0,0,22.09.68v-.68H245.3m0,0,22.09.68v-.68H245.3m0,.68v.51h22.09l-22.09-.51m0,0v.51h22.09l-22.09-.51m0,0,22.09.51v-.51H245.3m0,0,22.09.51v-.51H245.3m0,.51V159h22.09l-22.09-.09m0,0V159h22.09l-22.09-.09m0,0,22.09.09v-.09H245.3m0,0,22.09.09v-.09H245.3m0,.09v.17h22.17L245.3,159m0,0v.17h22.17L245.3,159m0,0,22.17.17-.08-.17H245.3m0,0,22.17.17-.08-.17H245.3m0,.17h0m0,0h0m0,0h0m0,0h0m0,0v.17h22.17l-22.17-.17m0,0v.17h22.17l-22.17-.17m0,0,22.17.17v-.17H245.3m0,0,22.17.17v-.17H245.3m0,.17v.77h22.17l-22.17-.77m0,0v.77h22.17l-22.17-.77m0,0,22.17.77v-.77H245.3m0,0,22.17.77v-.77H245.3m0,.77.09.51h22.17l-22.26-.51m0,0,.09.51h22.17l-22.26-.51m0,0,22.26.51-.09-.51H245.3m0,0,22.26.51-.09-.51H245.3m.09.51v1.11h22.34l-22.34-1.11m0,0v1.11h22.34l-22.34-1.11m0,0,22.34,1.11-.17-1.11H245.39m0,0,22.34,1.11-.17-1.11H245.39m0,1.11v.34h22.34l-22.34-.34m0,0v.34h22.34l-22.34-.34m0,0,22.34.34v-.34H245.39m0,0,22.34.34v-.34H245.39m0,.34.08,1.28h22.6l-22.68-1.28m0,0,.08,1.28h22.6l-22.68-1.28m0,0,22.68,1.28-.34-1.28H245.39m0,0,22.68,1.28-.34-1.28H245.39m.08,1.28v1.11h22.94l-22.94-1.11m0,0v1.11h22.94l-22.94-1.11m0,0,22.94,1.11-.34-1.11h-22.6m0,0,22.94,1.11-.34-1.11h-22.6m0,1.11v.17h23l-23-.17m0,0v.17h23l-23-.17m0,0,23,.17-.08-.17H245.47m0,0,23,.17-.08-.17H245.47m0,.17.09.76H269l-23.54-.76m0,0,.09.76H269l-23.54-.76m0,0,23.54.76-.52-.76h-23m0,0,23.54.76-.52-.76h-23m.09.76.08.86h24.05l-24.13-.86m0,0,.08.86h24.05l-24.13-.86m0,0,24.13.86-.68-.86H245.56m0,0,24.13.86-.68-.86H245.56m.08.86.09.76h24.81l-24.9-.76m0,0,.09.76h24.81l-24.9-.76m0,0,24.9.76-.85-.76H245.64m0,0,24.9.76-.85-.76H245.64m.09.76v.34h25.41L245.73,167m0,0v.34h25.41L245.73,167m0,0,25.41.34-.6-.34H245.73m0,0,25.41.34-.6-.34H245.73m0,.34.08.26h25.67l-25.75-.26m0,0,.08.26h25.67l-25.75-.26m0,0,25.75.26-.34-.26H245.73m0,0,25.75.26-.34-.26H245.73m.08.26v.43h26.86l-26.86-.43m0,0v.43h26.86l-26.86-.43m0,0,26.86.43-1.19-.43H245.81m0,0,26.86.43-1.19-.43H245.81m0,.43.09.34H274l-28.23-.34m0,0,.09.34H274l-28.23-.34m0,0,28.23.34-1.37-.34H245.81m0,0,28.23.34-1.37-.34H245.81m.09.34v.25h29.67l-29.67-.25m0,0v.25h29.67l-29.67-.25m0,0,29.67.25-1.53-.25H245.9m0,0,29.67.25-1.53-.25H245.9m0,.25.08.17h30.87l-31-.17m0,0,.08.17h30.87l-31-.17m0,0,31,.17-1.28-.17H245.9m0,0,31,.17-1.28-.17H245.9m.08.17v.09H278.3L246,168.83m0,0v.09H278.3L246,168.83m0,0,32.32.09-1.45-.09H246m0,0,32.32.09-1.45-.09H246m0,.09V169h33.86L246,168.92m0,0V169h33.86L246,168.92m0,0,33.86.09-1.54-.09H246m0,0,33.86.09-1.54-.09H246m0,.09v.08h35.56L246,169m0,0v.08h35.56L246,169m0,0,35.56.08-1.7-.08H246m0,0,35.56.08-1.7-.08H246m0,.08h0m0,0h0m0,0h0m0,0h0m0,0h0m0,0h0m0,0h0m0,0h0m0,0h0m0,0h0m0,0h0m0,0h0m0,0h0m0,0h0m0,0h0m0,0h0m0,0v.09h48.09L246,169.09m0,0v.09h48.09L246,169.09m0,0,48.09.09v-.09H246m0,0,48.09.09v-.09H246m0,.09v.08h48.09L246,169.18m0,0v.08h48.09L246,169.18m0,0,48.09.08v-.08H246m0,0,48.09.08v-.08H246m0,.08.09.34h48L246,169.26m0,0,.09.34h48L246,169.26m0,0,48.09.34v-.34H246m0,0,48.09.34v-.34H246m.09.34v.34h48l-48-.34m0,0v.34h48l-48-.34m0,0,48,.34v-.34h-48m0,0,48,.34v-.34h-48m0,.34h0m0,0h0m0,0h0m0,0h0m.09,0,.17.94h47.74l-47.91-.94m0,0,.17.94h47.74l-47.91-.94m0,0,47.91.94v-.94H246.16m0,0,47.91.94v-.94H246.16m.17.94.25,1.28h47.49l-47.74-1.28m0,0,.25,1.28h47.49l-47.74-1.28m0,0,47.74,1.28v-1.28H246.33m0,0,47.74,1.28v-1.28H246.33m.25,1.28h0m0,0h0m0,0h0m0,0h0m0,0,.34,1.45h47.15l-47.49-1.45m0,0,.34,1.45h47.15l-47.49-1.45m0,0,47.49,1.45v-1.45H246.58m0,0,47.49,1.45v-1.45H246.58m.34,1.45.26.68h46.89l-47.15-.68m0,0,.26.68h46.89l-47.15-.68m0,0,47.15.68v-.68H246.92m0,0,47.15.68v-.68H246.92m.26.68.34.94h46.55l-46.89-.94m0,0,.34.94h46.55l-46.89-.94m0,0,46.89.94v-.94H247.18m0,0,46.89.94v-.94H247.18m.34.94.08.43h46.47l-46.55-.43m0,0,.08.43h46.47l-46.55-.43m0,0,46.55.43v-.43H247.52m0,0,46.55.43v-.43H247.52m.08.43.6,1.27h45.87l-46.47-1.27m0,0,.6,1.27h45.87l-46.47-1.27m0,0,46.47,1.27v-1.27H247.6m0,0,46.47,1.27v-1.27H247.6m.6,1.27.6,1.28h45.27l-45.87-1.28m0,0,.6,1.28h45.27l-45.87-1.28m0,0,45.87,1.28v-1.28H248.2m0,0,45.87,1.28v-1.28H248.2m.6,1.28.34.6h44.93l-45.27-.6m0,0,.34.6h44.93l-45.27-.6m0,0,45.27.6v-.6H248.8m0,0,45.27.6v-.6H248.8m.34.6.34.51h44.59l-44.93-.51m0,0,.34.51h44.59l-44.93-.51m0,0,44.93.51v-.51H249.14m0,0,44.93.51v-.51H249.14m.34.51.68,1.11h43.91l-44.59-1.11m0,0,.68,1.11h43.91l-44.59-1.11m0,0,44.59,1.11v-1.11H249.48m0,0,44.59,1.11v-1.11H249.48m.68,1.11.77.94h43.14l-43.91-.94m0,0,.77.94h43.14l-43.91-.94m0,0,43.91.94v-.94H250.16m0,0,43.91.94v-.94H250.16m.77.94.17.17h43l-43.14-.17m0,0,.17.17h43l-43.14-.17m0,0,43.14.17v-.17H250.93m0,0,43.14.17v-.17H250.93m.17.17.68.77h42.29l-43-.77m0,0,.68.77h42.29l-43-.77m0,0,43,.77v-.77h-43m0,0,43,.77v-.77h-43m.68.77.94.76h41.35l-42.29-.76m0,0,.94.76h41.35l-42.29-.76m0,0,42.29.76v-.76H251.78m0,0,42.29.76v-.76H251.78m.94.76,1,.77h40.33l-41.35-.77m0,0,1,.77h40.33l-41.35-.77m0,0,41.35.77v-.77H252.72m0,0,41.35.77v-.77H252.72m1,.77.26.17h40.07l-40.33-.17m0,0,.26.17h40.07l-40.33-.17m0,0,40.33.17v-.17H253.74m0,0,40.33.17v-.17H253.74m.26.17.77.51h39.3L254,184m0,0,.77.51h39.3L254,184m0,0,40.07.51V184H254m0,0,40.07.51V184H254m.77.51,1.11.6h38.19l-39.3-.6m0,0,1.11.6h38.19l-39.3-.6m0,0,39.3.6v-.6h-39.3m0,0,39.3.6v-.6h-39.3m1.11.6h0m0,0h0m0,0h0m0,0h0m0,0,1.19.6h37l-38.19-.6m0,0,1.19.6h37l-38.19-.6m0,0,38.19.6v-.6H255.88m0,0,38.19.6v-.6H255.88m1.19.6,1.11.42h35.89l-37-.42m0,0,1.11.42h35.89l-37-.42m0,0,37,.42v-.42h-37m0,0,37,.42v-.42h-37m1.11.42.17.09h35.72l-35.89-.09m0,0,.17.09h35.72l-35.89-.09m0,0,35.89.09v-.09H258.18m0,0,35.89.09v-.09H258.18m.17.09,1.36.43h34.36l-35.72-.43m0,0,1.36.43h34.36l-35.72-.43m0,0,35.72.43v-.43H258.35m0,0,35.72.43v-.43H258.35m1.36.43L261,187h33.08l-34.36-.34m0,0L261,187h33.08l-34.36-.34m0,0,34.36.34v-.34H259.71m0,0,34.36.34v-.34H259.71M261,187l.09.08h33L261,187m0,0,.09.08h33L261,187m0,0,33.08.08V187H261m0,0,33.08.08V187H261m.09.08,1.53.26h31.46l-33-.26m0,0,1.53.26h31.46l-33-.26m0,0,33,.26v-.26h-33m0,0,33,.26v-.26h-33m1.53.26,1.54.34h29.92l-31.46-.34m0,0,1.54.34h29.92l-31.46-.34m0,0,31.46.34v-.34H262.61m0,0,31.46.34v-.34H262.61m1.54.34h0m0,0h0m0,0h0m0,0h0m.42,0,1.2.17h28.3l-29.5-.17m0,0,1.2.17h28.3l-29.5-.17m0,0,29.5.17v-.17h-29.5m0,0,29.5.17v-.17h-29.5m1.2.17,1.7.25h26.6l-28.3-.25m0,0,1.7.25h26.6l-28.3-.25m0,0,28.3.25v-.25h-28.3m0,0,28.3.25v-.25h-28.3m1.7.25,1.37.09h25.23l-26.6-.09m0,0,1.37.09h25.23l-26.6-.09m0,0,26.6.09v-.09h-26.6m0,0,26.6.09v-.09h-26.6m1.37.09.42.09h24.81l-25.23-.09m0,0,.42.09h24.81l-25.23-.09m0,0,25.23.09v-.09H268.84m0,0,25.23.09v-.09H268.84m.42.09,3.84.17h21l-24.81-.17m0,0,3.84.17h21l-24.81-.17m0,0,24.81.17v-.17H269.26m0,0,24.81.17v-.17H269.26m3.84.17h0m0,0h0m0,0h0m0,0h0m1,0,3.16.08h16.79l-19.95-.08m0,0,3.16.08h16.79l-19.95-.08m0,0,19.95.08v-.08H274.12m0,0,19.95.08v-.08H274.12m94.14-134L361.52,82h37.94l-31.2-27.54m0,0L361.52,82h37.94l-31.2-27.54m0,0L399.46,82l-7.07-27.54H368.26m0,0L399.46,82l-7.07-27.54H368.26M37,54.41,30.26,82H68.21L37,54.41m0,0L30.26,82H68.21L37,54.41m0,0L68.21,82,61.13,54.41H37m0,0L68.21,82,61.13,54.41H37M380.45,82l8.36,32.57h18.92L380.45,82m0,0,8.36,32.57h18.92L380.45,82m0,0,27.28,32.57L399.46,82h-19m0,0,27.28,32.57L399.46,82h-19m-18.93,0-8,32.57h18.16L361.52,82m0,0-8,32.57h18.16L361.52,82m0,0,10.15,32.57L379.94,82H361.52m0,0,10.15,32.57L379.94,82H361.52M49.19,82l8.36,32.57H76.48L49.19,82m0,0,8.36,32.57H76.48L49.19,82m0,0,27.29,32.57L68.21,82h-19m0,0,27.29,32.57L68.21,82h-19M30.26,82l-8,32.57H40.41L30.26,82m0,0-8,32.57H40.41L30.26,82m0,0,10.15,32.57L48.68,82H30.26m0,0,10.15,32.57L48.68,82H30.26M429.9,131.57,421,164.14h17.91l-9-32.57m0,0L421,164.14h17.91l-9-32.57m0,0,9,32.57,10.4-32.57H429.9m0,0,9,32.57,10.4-32.57H429.9m-36.75,0,8.36,32.57h18.93l-27.29-32.57m0,0,8.36,32.57h18.93l-27.29-32.57m0,0,27.29,32.57-8.36-32.57H393.15m0,0,27.29,32.57-8.36-32.57H393.15m-43.82,0-8,32.57h17.82l-9.8-32.57m0,0-8,32.57h17.82l-9.8-32.57m0,0,9.8,32.57,8.27-32.57H349.33m0,0,9.8,32.57,8.27-32.57H349.33m-38.54,0,10.48,32.57H340.8l-30-32.57m0,0,10.48,32.57H340.8l-30-32.57m0,0,30,32.57-9-32.57h-21m0,0,30,32.57-9-32.57h-21m90.72,32.57,6.22,24.39H431.1l-29.59-24.39m0,0,6.22,24.39H431.1l-29.59-24.39m0,0,29.59,24.39,7.76-24.39H401.51m0,0,29.59,24.39,7.76-24.39H401.51m-80.24,0,7.85,24.39H353l-31.72-24.39m0,0,7.85,24.39H353l-31.72-24.39m0,0L353,188.53l6.14-24.39H321.27m0,0L353,188.53l6.14-24.39H321.27M61.9,131.57l14.58,57H95.41l-33.51-57m0,0,14.58,57H95.41l-33.51-57m0,0,33.51,57-14.59-57H61.9m0,0,33.51,57-14.59-57H61.9m-43.83,0L4,188.53H21.74l-3.67-57m0,0L4,188.53H21.74l-3.67-57m0,0,3.67,57,14.41-57H18.07m0,0,3.67,57,14.41-57H18.07M532.56,51.34l-3.92.08h7.85l-3.93-.08m0,0-3.92.08h7.85l-3.93-.08m-3.92.08-3.75.26h15.43l-11.68-.26m0,0-3.75.26h15.43l-11.68-.26m0,0,11.68.26-3.83-.26h-7.85m0,0,11.68.26-3.83-.26h-7.85m-3.75.26-3.67.43h22.85l-19.18-.43m0,0-3.67.43h22.85l-19.18-.43m0,0,19.18.43-3.75-.43H524.89m0,0,19.18.43-3.75-.43H524.89m-3.67.43-3.58.59h30l-26.44-.59m0,0-3.58.59h30l-26.44-.59m0,0,26.44.59-3.59-.59H521.22m0,0,26.44.59-3.59-.59H521.22m-3.58.59-3.49.77h36.92l-33.43-.77m0,0-3.49.77h36.92l-33.43-.77m0,0,33.43.77-3.41-.77h-30m0,0,33.43.77-3.41-.77h-30m-3.49.77-3.33.94h43.57l-40.24-.94m0,0-3.33.94h43.57l-40.24-.94m0,0,40.24.94-3.32-.94H514.15m0,0,40.24.94-3.32-.94H514.15m-3.33.94-3.15,1h50l-46.81-1m0,0-3.15,1h50l-46.81-1m0,0,46.81,1-3.24-1H510.82m0,0,46.81,1-3.24-1H510.82m-3.15,1-3.16,1.28H560.7l-53-1.28m0,0-3.16,1.28H560.7l-53-1.28m0,0,53,1.28-3.07-1.28h-50m0,0,53,1.28-3.07-1.28h-50m-3.16,1.28-3,1.45h62.16l-59.18-1.45m0,0-3,1.45h62.16l-59.18-1.45m0,0,59.18,1.45-3-1.45H504.51m0,0,59.18,1.45-3-1.45H504.51m-3,1.45-2.9,1.53H566.5l-65-1.53m0,0-2.9,1.53H566.5l-65-1.53m0,0,65,1.53-2.81-1.53H501.53m0,0,65,1.53-2.81-1.53H501.53m-2.9,1.53L495.9,61.4h73.33l-70.6-1.71m0,0L495.9,61.4h73.33l-70.6-1.71m0,0,70.6,1.71-2.73-1.71H498.63m0,0,70.6,1.71-2.73-1.71H498.63M495.9,61.4l-2.64,1.79h78.53L495.9,61.4m0,0-2.64,1.79h78.53L495.9,61.4m0,0,75.89,1.79-2.56-1.79H495.9m0,0,75.89,1.79-2.56-1.79H495.9m-2.64,1.79-2.48,2h83.56l-81.08-2m0,0-2.48,2h83.56l-81.08-2m0,0,81.08,2-2.55-2H493.26m0,0,81.08,2-2.55-2H493.26m-2.48,2-2.38,2h88.25l-85.87-2m0,0-2.38,2h88.25l-85.87-2m0,0,85.87,2-2.31-2H490.78m0,0,85.87,2-2.31-2H490.78m-2.38,2-2.22,2.13H579L488.4,67.2m0,0-2.22,2.13H579L488.4,67.2m0,0L579,69.33l-2.3-2.13H488.4m0,0L579,69.33l-2.3-2.13H488.4m-2.22,2.13-1.28,1.45h95.33l-94.05-1.45m0,0-1.28,1.45h95.33l-94.05-1.45m0,0,94.05,1.45L579,69.33H486.18m0,0,94.05,1.45L579,69.33H486.18m46.38,1.45h0m0,0h0m0,0h0m0,0h0m-47.66,0h0m0,0h0m0,0h0m0,0h0m49.8,0,2,.17H580.4l-45.7-.17m0,0,2,.17H580.4l-45.7-.17m0,0,45.7.17-.09-.17H534.7m0,0,45.7.17-.09-.17H534.7m-49.89,0-.17.17H528.3l-43.49-.17m0,0-.17.17H528.3l-43.49-.17m0,0L528.3,71l2.13-.17H484.81m0,0L528.3,71l2.13-.17H484.81m51.93.17,2.13.26h41.78L536.74,71m0,0,2.13.26h41.78L536.74,71m0,0,43.91.26L580.4,71H536.74m0,0,43.91.26L580.4,71H536.74m-52.1,0-.25.26h41.86L484.64,71m0,0-.25.26h41.86L484.64,71m0,0,41.61.26,2-.26H484.64m0,0,41.61.26,2-.26H484.64m54.23.26,2,.42H581l-42.12-.42m0,0,2,.42H581l-42.12-.42m0,0,42.12.42-.34-.42H538.87m0,0,42.12.42-.34-.42H538.87m-54.48,0-.34.42h40.16l-39.82-.42m0,0-.34.42h40.16l-39.82-.42m0,0,39.82.42,2-.42H484.39m0,0,39.82.42,2-.42H484.39m56.53.42h0m0,0h0m0,0h0m0,0h0m-56.87,0h0m0,0h0m0,0h0m0,0h0m57.13,0,1.7.43h38.54l-40.24-.43m0,0,1.7.43h38.54l-40.24-.43m0,0,40.24.43-.34-.43h-39.9m0,0,40.24.43-.34-.43h-39.9m-57.13,0-.34.43h38.45l-38.11-.43m0,0-.34.43h38.45l-38.11-.43m0,0,38.11.43,1.79-.43h-39.9m0,0,38.11.43,1.79-.43h-39.9m58.83.43,2,.59h37l-39-.59m0,0,2,.59h37l-39-.59m0,0,39,.59-.43-.59H542.88m0,0,39,.59-.43-.59H542.88m-59.17,0-.52.59h37l-36.49-.59m0,0-.52.59h37l-36.49-.59m0,0,36.49.59,2-.59H483.71m0,0,36.49.59,2-.59H483.71m61.13.59,2,.69h35.64l-37.6-.69m0,0,2,.69h35.64l-37.6-.69m0,0,37.6.69-.59-.69h-37m0,0,37.6.69-.59-.69h-37m-61.65,0-.59.69h35.64l-35.05-.69m0,0-.59.69h35.64l-35.05-.69m0,0,35.05.69,2-.69h-37m0,0,35.05.69,2-.69h-37m63.61.69,1.88.76H583l-36.24-.76m0,0,1.88.76H583l-36.24-.76m0,0L583,74.1l-.6-.76H546.8m0,0L583,74.1l-.6-.76H546.8m-64.2,0-.6.76h34.45l-33.85-.76m0,0-.6.76h34.45l-33.85-.76m0,0,33.85.76,1.79-.76H482.6m0,0,33.85.76,1.79-.76H482.6m66.08.76h0m0,0h0m0,0h0m0,0h0M482,74.1h0m0,0h0m0,0h0m0,0h0m66.76,0,1.88.94h33.17l-35-.94m0,0,1.88.94h33.17l-35-.94m0,0,35,.94-.68-.94H548.76m0,0,35,.94-.68-.94H548.76M482,74.1l-.68.94H514.4L482,74.1m0,0-.68.94H514.4L482,74.1m0,0,32.4.94,2-.94H482m0,0,32.4.94,2-.94H482m68.64.94,1.79.94h32.06L550.64,75m0,0,1.79.94h32.06L550.64,75m0,0,33.85.94-.68-.94H550.64m0,0,33.85.94-.68-.94H550.64m-69.32,0-.77.94h32.06L481.32,75m0,0-.77.94h32.06L481.32,75m0,0,31.29.94L514.4,75H481.32m0,0,31.29.94L514.4,75H481.32m71.11.94,1,.6h31.47L552.43,76m0,0,1,.6h31.47L552.43,76m0,0,32.49.6-.43-.6H552.43m0,0,32.49.6-.43-.6H552.43m-71.88,0-.43.6h31.55L480.55,76m0,0-.43.6h31.55L480.55,76m0,0,31.12.6.94-.6H480.55m0,0,31.12.6.94-.6H480.55m72.9.6.77.51h31l-31.81-.51m0,0,.77.51h31l-31.81-.51m0,0,31.81.51-.34-.51H553.45m0,0,31.81.51-.34-.51H553.45m-73.33,0-.34.51h31l-30.7-.51m0,0-.34.51h31l-30.7-.51m0,0,30.7.51.85-.51H480.12m0,0,30.7.51.85-.51H480.12m74.1.51,1.71,1.19H586l-31.81-1.19m0,0,1.71,1.19H586l-31.81-1.19m0,0L586,78.28l-.77-1.19h-31m0,0L586,78.28l-.77-1.19h-31m-74.44,0L479,78.28h30.1l-29.34-1.19m0,0L479,78.28h30.1l-29.34-1.19m0,0,29.34,1.19,1.7-1.19h-31m0,0,29.34,1.19,1.7-1.19h-31m76.15,1.19,1.19.94h29.59l-30.78-.94m0,0,1.19.94h29.59l-30.78-.94m0,0,30.78.94-.68-.94h-30.1m0,0,30.78.94-.68-.94h-30.1m-76.91,0-.69.94h29.59L479,78.28m0,0-.69.94h29.59L479,78.28m0,0,28.9.94,1.2-.94H479m0,0,28.9.94,1.2-.94H479m78.1.94.43.34h29.33l-29.76-.34m0,0,.43.34h29.33l-29.76-.34m0,0,29.76.34-.17-.34H557.12m0,0,29.76.34-.17-.34H557.12m-78.79,0-.17.34H507.5l-29.17-.34m0,0-.17.34H507.5l-29.17-.34m0,0,29.17.34.42-.34H478.33m0,0,29.17.34.42-.34H478.33m79.22.34,1.62,1.37h28.56l-30.18-1.37m0,0,1.62,1.37h28.56l-30.18-1.37m0,0,30.18,1.37-.85-1.37H557.55m0,0,30.18,1.37-.85-1.37H557.55m-79.39,0-.76,1.37H506l-27.8-1.37m0,0-.76,1.37H506l-27.8-1.37m0,0L506,80.93l1.54-1.37H478.16m0,0L506,80.93l1.54-1.37H478.16m81,1.37,1,1h28.14l-29.16-1m0,0,1,1h28.14l-29.16-1m0,0,29.16,1-.6-1H559.17m0,0,29.16,1-.6-1H559.17m-81.77,0-.69,1h28.14l-27.45-1m0,0-.69,1h28.14l-27.45-1m0,0,27.45,1,1.11-1H477.4m0,0,27.45,1,1.11-1H477.4m82.79,1,.51.51h27.88L560.19,82m0,0,.51.51h27.88L560.19,82m0,0,28.39.51-.25-.51H560.19m0,0,28.39.51-.25-.51H560.19m-83.48,0-.17.51h27.89L476.71,82m0,0-.17.51h27.89L476.71,82m0,0,27.72.51.42-.51H476.71m0,0,27.72.51.42-.51H476.71m84,.51L562.15,84h27.2L560.7,82.46m0,0L562.15,84h27.2L560.7,82.46m0,0L589.35,84l-.77-1.53H560.7m0,0L589.35,84l-.77-1.53H560.7m-84.16,0L475.69,84H503l-26.44-1.53m0,0L475.69,84H503l-26.44-1.53m0,0L503,84l1.45-1.53H476.54m0,0L503,84l1.45-1.53H476.54M562.15,84l.68.86h27L562.15,84m0,0,.68.86h27L562.15,84m0,0,27.71.86-.51-.86h-27.2m0,0,27.71.86-.51-.86h-27.2m-86.46,0-.43.86h27L475.69,84m0,0-.43.86h27L475.69,84m0,0,26.6.86L503,84H475.69m0,0,26.6.86L503,84H475.69m87.14.86.69.85H590.2l-27.37-.85m0,0,.69.85H590.2l-27.37-.85m0,0,27.37.85-.34-.85h-27m0,0,27.37.85-.34-.85h-27m-87.57,0-.42.85h26.77l-26.35-.85m0,0-.42.85h26.77l-26.35-.85m0,0,26.35.85.68-.85h-27m0,0,26.35.85.68-.85h-27m88.26.85,1.27,1.71h26.27L563.52,85.7m0,0,1.27,1.71h26.27L563.52,85.7m0,0,27.54,1.71-.86-1.71H563.52m0,0,27.54,1.71-.86-1.71H563.52m-88.68,0-.77,1.71h26.18L474.84,85.7m0,0-.77,1.71h26.18L474.84,85.7m0,0,25.41,1.71,1.36-1.71H474.84m0,0,25.41,1.71,1.36-1.71H474.84m89.95,1.71.26.34h26.09l-26.35-.34m0,0,.26.34h26.09l-26.35-.34m0,0,26.35.34-.08-.34H564.79m0,0,26.35.34-.08-.34H564.79m-90.72,0-.17.34H500l-25.92-.34m0,0-.17.34H500l-25.92-.34m0,0,25.92.34.26-.34H474.07m0,0,25.92.34.26-.34H474.07m91,.34,1,1.53h25.75l-26.77-1.53m0,0,1,1.53h25.75l-26.77-1.53m0,0,26.77,1.53-.68-1.53H565.05m0,0,26.77,1.53-.68-1.53H565.05m-91.15,0-.6,1.53h25.75L473.9,87.75m0,0-.6,1.53h25.75L473.9,87.75m0,0,25.15,1.53.94-1.53H473.9m0,0,25.15,1.53.94-1.53H473.9m92.17,1.53.94,1.54h25.41l-26.35-1.54m0,0,.94,1.54h25.41l-26.35-1.54m0,0,26.35,1.54-.6-1.54H566.07m0,0,26.35,1.54-.6-1.54H566.07m-92.77,0-.59,1.54h25.41L473.3,89.28m0,0-.59,1.54h25.41L473.3,89.28m0,0,24.82,1.54.93-1.54H473.3m0,0,24.82,1.54.93-1.54H473.3M567,90.82l.17.42h25.41L567,90.82m0,0,.17.42h25.41L567,90.82m0,0,25.58.42-.17-.42H567m0,0,25.58.42-.17-.42H567m-94.3,0-.17.42h25.32l-25.15-.42m0,0-.17.42h25.32l-25.15-.42m0,0,25.15.42.26-.42H472.71m0,0,25.15.42.26-.42H472.71m94.47.42,1.11,2.05h25l-26.09-2.05m0,0,1.11,2.05h25l-26.09-2.05m0,0,26.09,2.05-.68-2.05H567.18m0,0,26.09,2.05-.68-2.05H567.18m-94.64,0-.69,2.05h24.9l-24.21-2.05m0,0-.69,2.05h24.9l-24.21-2.05m0,0,24.21,2.05,1.11-2.05H472.54m0,0,24.21,2.05,1.11-2.05H472.54m95.75,2.05.34.68h24.9l-25.24-.68m0,0,.34.68h24.9l-25.24-.68m0,0,25.24.68-.26-.68h-25m0,0,25.24.68-.26-.68h-25m-96.44,0-.25.68h24.81l-24.56-.68m0,0-.25.68h24.81l-24.56-.68m0,0,24.56.68.34-.68h-24.9m0,0,24.56.68.34-.68h-24.9m96.78.68.68,1.45H594L568.63,94m0,0,.68,1.45H594L568.63,94m0,0L594,95.42,593.53,94h-24.9m0,0L594,95.42,593.53,94h-24.9m-97,0-.43,1.45h24.64L471.6,94m0,0-.43,1.45h24.64L471.6,94m0,0,24.21,1.45.6-1.45H471.6m0,0,24.21,1.45.6-1.45H471.6m97.71,1.45.94,2.22h24.3l-25.24-2.22m0,0,.94,2.22h24.3l-25.24-2.22m0,0,25.24,2.22-.6-2.22H569.31m0,0,25.24,2.22-.6-2.22H569.31m-98.14,0-.68,2.22h24.39l-23.71-2.22m0,0-.68,2.22h24.39l-23.71-2.22m0,0,23.71,2.22.93-2.22H471.17m0,0,23.71,2.22.93-2.22H471.17m99.08,2.22.43,1.28H595l-24.73-1.28m0,0,.43,1.28H595l-24.73-1.28m0,0L595,98.92l-.43-1.28h-24.3m0,0L595,98.92l-.43-1.28h-24.3m-99.76,0-.34,1.28h24.21l-23.87-1.28m0,0-.34,1.28h24.21l-23.87-1.28m0,0,23.87,1.28.52-1.28H470.49m0,0,23.87,1.28.52-1.28H470.49m100.19,1.28.42,1h24l-24.47-1m0,0,.42,1h24l-24.47-1m0,0,24.47,1-.17-1h-24.3m0,0,24.47,1-.17-1h-24.3m-100.53,0-.26,1H494l-23.87-1m0,0-.26,1H494l-23.87-1m0,0,23.87,1,.34-1H470.15m0,0,23.87,1,.34-1H470.15m101,1,1,3.41h23.79L571.1,99.94m0,0,1,3.41h23.79L571.1,99.94m0,0,24.82,3.41-.77-3.41h-24m0,0,24.82,3.41-.77-3.41h-24m-101.21,0-.76,3.41H493l-23.11-3.41m0,0-.76,3.41H493l-23.11-3.41m0,0L493,103.35l1-3.41H469.89m0,0L493,103.35l1-3.41H469.89m102.24,3.41.17.6h23.79l-24-.6m0,0,.17.6h23.79l-24-.6m0,0,24,.6-.17-.6H572.13m0,0,24,.6-.17-.6H572.13m-103,0-.09.6h23.79l-23.7-.6m0,0-.09.6h23.79l-23.7-.6m0,0,23.7.6.17-.6H469.13m0,0,23.7.6.17-.6H469.13m103.17.6.68,3h23.53l-24.21-3m0,0,.68,3h23.53l-24.21-3m0,0,24.21,3-.42-3H572.3m0,0,24.21,3-.42-3H572.3M469,104l-.51,3h23.62L469,104m0,0-.51,3h23.62L469,104m0,0,23.11,3,.68-3H469m0,0,23.11,3,.68-3H469m103.94,3,.34,2.22h23.53L573,106.93m0,0,.34,2.22h23.53L573,106.93m0,0,23.87,2.22-.34-2.22H573m0,0,23.87,2.22-.34-2.22H573m-104.45,0-.34,2.22h23.53l-23.19-2.22m0,0-.34,2.22h23.53l-23.19-2.22m0,0,23.19,2.22.43-2.22H468.53m0,0,23.19,2.22.43-2.22H468.53m104.79,2.22.26,1.45H597l-23.7-1.45m0,0,.26,1.45H597l-23.7-1.45m0,0L597,110.6l-.17-1.45H573.32m0,0L597,110.6l-.17-1.45H573.32m-105.13,0L468,110.6h23.45l-23.28-1.45m0,0L468,110.6h23.45l-23.28-1.45m0,0,23.28,1.45.25-1.45H468.19m0,0,23.28,1.45.25-1.45H468.19m105.39,1.45.42,3.92h23.45l-23.87-3.92m0,0,.42,3.92h23.45l-23.87-3.92m0,0,23.87,3.92L597,110.6H573.58m0,0,23.87,3.92L597,110.6H573.58M468,110.6l-.34,3.92H491l-23-3.92m0,0-.34,3.92H491l-23-3.92m0,0,23,3.92.43-3.92H468m0,0,23,3.92.43-3.92H468m105.73,21-.51,3.07h23.53l-23-3.07m0,0-.51,3.07h23.53l-23-3.07m0,0,23,3.07.43-3.07H573.75m0,0,23,3.07.43-3.07H573.75m-105.82,0,.34,3.07h23.54l-23.88-3.07m0,0,.34,3.07h23.54l-23.88-3.07m0,0,23.88,3.07-.43-3.07H467.93m0,0,23.88,3.07-.43-3.07H467.93m105.31,3.07-.26,1.45H596.6l-23.36-1.45m0,0-.26,1.45H596.6l-23.36-1.45m0,0,23.36,1.45.17-1.45H573.24m0,0,23.36,1.45.17-1.45H573.24m-105,0,.26,1.45h23.62l-23.88-1.45m0,0,.26,1.45h23.62l-23.88-1.45m0,0,23.88,1.45-.34-1.45H468.27m0,0,23.88,1.45-.34-1.45H468.27M573,136.09l-.34,1.54h23.7L573,136.09m0,0-.34,1.54h23.7L573,136.09m0,0,23.36,1.54.26-1.54H573m0,0,23.36,1.54.26-1.54H573m-104.45,0,.25,1.54H492.4l-23.87-1.54m0,0,.25,1.54H492.4l-23.87-1.54m0,0,23.87,1.54-.25-1.54H468.53m0,0,23.87,1.54-.25-1.54H468.53m104.11,1.54-.68,2.9h23.87l-23.19-2.9m0,0-.68,2.9h23.87l-23.19-2.9m0,0,23.19,2.9.51-2.9h-23.7m0,0,23.19,2.9.51-2.9h-23.7m-103.86,0,.52,2.9h23.87l-24.39-2.9m0,0,.52,2.9h23.87l-24.39-2.9m0,0,24.39,2.9-.77-2.9H468.78m0,0,24.39,2.9-.77-2.9H468.78M572,140.53h0m0,0h0m0,0h0m0,0h0m-102.66,0h0m0,0h0m0,0h0m0,0h0m102.66,0-.86,2.72h24L572,140.53m0,0-.86,2.72h24L572,140.53m0,0,23.19,2.72.68-2.72H572m0,0,23.19,2.72.68-2.72H572m-102.66,0,.59,2.72H494l-24.72-2.72m0,0,.59,2.72H494l-24.72-2.72m0,0L494,143.25l-.85-2.72H469.3m0,0L494,143.25l-.85-2.72H469.3m101.8,2.72-.59,1.62h24.3l-23.71-1.62m0,0-.59,1.62h24.3l-23.71-1.62m0,0,23.71,1.62.34-1.62h-24m0,0,23.71,1.62.34-1.62h-24m-101.21,0,.43,1.62h24.3l-24.73-1.62m0,0,.43,1.62h24.3l-24.73-1.62m0,0,24.73,1.62-.6-1.62H469.89m0,0,24.73,1.62-.6-1.62H469.89m100.62,1.62-.26.69h24.3l-24-.69m0,0-.26.69h24.3l-24-.69m0,0,24,.69.26-.69h-24.3m0,0,24,.69.26-.69h-24.3m-100.19,0,.17.69h24.39l-24.56-.69m0,0,.17.69h24.39l-24.56-.69m0,0,24.56.69-.26-.69h-24.3m0,0,24.56.69-.26-.69h-24.3m99.93.69-.94,2.21h24.56l-23.62-2.21m0,0-.94,2.21h24.56l-23.62-2.21m0,0,23.62,2.21.68-2.21h-24.3m0,0,23.62,2.21.68-2.21h-24.3m-99.76,0,.68,2.21h24.64l-25.32-2.21m0,0,.68,2.21h24.64l-25.32-2.21m0,0,25.32,2.21-.93-2.21H470.49m0,0,25.32,2.21-.93-2.21H470.49m98.82,2.21-.59,1.37h24.81l-24.22-1.37m0,0-.59,1.37h24.81l-24.22-1.37m0,0,24.22,1.37.34-1.37H569.31m0,0,24.22,1.37.34-1.37H569.31m-98.14,0,.43,1.37h24.81l-25.24-1.37m0,0,.43,1.37h24.81l-25.24-1.37m0,0,25.24,1.37-.6-1.37H471.17m0,0,25.24,1.37-.6-1.37H471.17m97.55,1.37-.43.77h24.9l-24.47-.77m0,0-.43.77h24.9l-24.47-.77m0,0,24.47.77.34-.77H568.72m0,0,24.47.77.34-.77H568.72m-97.12,0,.25.77h24.9l-25.15-.77m0,0,.25.77h24.9l-25.15-.77m0,0,25.15.77-.34-.77H471.6m0,0,25.15.77-.34-.77H471.6m96.69.77-1.11,2h25.33l-24.22-2m0,0-1.11,2h25.33l-24.22-2m0,0,24.22,2,.68-2h-24.9m0,0,24.22,2,.68-2h-24.9m-96.44,0,.69,2h25.32l-26-2m0,0,.69,2h25.32l-26-2m0,0,26,2-1.11-2h-24.9m0,0,26,2-1.11-2h-24.9m95.33,2-.17.26h25.41L567.18,152m0,0-.17.26h25.41L567.18,152m0,0,25.24.26.09-.26H567.18m0,0,25.24.26.09-.26H567.18m-94.64,0,.17.26H498L472.54,152m0,0,.17.26H498L472.54,152m0,0,25.49.26-.17-.26H472.54m0,0,25.49.26-.17-.26H472.54m94.47.26-.94,1.7h25.67L567,152.21m0,0-.94,1.7h25.67L567,152.21m0,0,24.73,1.7.68-1.7H567m0,0,24.73,1.7.68-1.7H567m-94.3,0,.59,1.7h25.75l-26.34-1.7m0,0,.59,1.7h25.75l-26.34-1.7m0,0,26.34,1.7-1-1.7H472.71m0,0,26.34,1.7-1-1.7H472.71m93.36,1.7-.93,1.37h26l-25.07-1.37m0,0-.93,1.37h26l-25.07-1.37m0,0,25.07,1.37.6-1.37H566.07m0,0,25.07,1.37.6-1.37H566.07m-92.77,0,.6,1.37h26l-26.61-1.37m0,0,.6,1.37h26l-26.61-1.37m0,0,26.61,1.37-.86-1.37H473.3m0,0,26.61,1.37-.86-1.37H473.3m91.84,1.37-.35.42H591l-25.83-.42m0,0-.35.42H591l-25.83-.42m0,0,25.83.42.17-.42h-26m0,0,25.83.42.17-.42h-26m-91.24,0,.26.42h26.09l-26.35-.42m0,0,.26.42h26.09l-26.35-.42m0,0,26.35.42-.34-.42h-26m0,0,26.35.42-.34-.42h-26m90.89.42-1.27,1.79h26.6l-25.33-1.79m0,0-1.27,1.79h26.6l-25.33-1.79m0,0,25.33,1.79.85-1.79H564.79m0,0,25.33,1.79.85-1.79H564.79m-90.63,0,.76,1.79h26.69l-27.45-1.79m0,0,.76,1.79h26.69l-27.45-1.79m0,0,27.45,1.79-1.36-1.79H474.16m0,0,27.45,1.79-1.36-1.79H474.16m89.36,1.79-.6.69h26.94l-26.34-.69m0,0-.6.69h26.94l-26.34-.69m0,0,26.34.69.26-.69h-26.6m0,0,26.34.69.26-.69h-26.6m-88.6,0,.34.69h26.95l-27.29-.69m0,0,.34.69h26.95l-27.29-.69m0,0,27.29.69-.6-.69H474.92m0,0,27.29.69-.6-.69H474.92m88,.69-.77.93h27.2l-26.43-.93m0,0-.77.93h27.2l-26.43-.93m0,0,26.43.93.51-.93H562.92m0,0,26.43.93.51-.93H562.92m-87.66,0,.52.93H503l-27.72-.93m0,0,.52.93H503l-27.72-.93m0,0,27.72.93-.77-.93H475.26m0,0,27.72.93-.77-.93H475.26m86.89.93-1.45,1.54h27.8l-26.35-1.54m0,0-1.45,1.54h27.8l-26.35-1.54m0,0,26.35,1.54.85-1.54h-27.2m0,0,26.35,1.54.85-1.54h-27.2m-86.37,0,.76,1.54h27.89l-28.65-1.54m0,0,.76,1.54h27.89l-28.65-1.54m0,0,28.65,1.54L503,159.11h-27.2m0,0,28.65,1.54L503,159.11h-27.2m84.92,1.54-.43.34h28.06l-27.63-.34m0,0-.43.34h28.06l-27.63-.34m0,0,27.63.34.17-.34H560.7m0,0,27.63.34.17-.34H560.7m-84.16,0,.17.34h28.06l-28.23-.34m0,0,.17.34h28.06l-28.23-.34m0,0,28.23.34-.34-.34H476.54m0,0,28.23.34-.34-.34H476.54m83.73.34-1.1,1.11h28.48L560.27,161m0,0-1.1,1.11h28.48L560.27,161m0,0,27.38,1.11.68-1.11H560.27m0,0,27.38,1.11.68-1.11H560.27m-83.56,0,.69,1.11H506L476.71,161m0,0,.69,1.11H506L476.71,161m0,0L506,162.1,504.77,161H476.71m0,0L506,162.1,504.77,161H476.71m82.46,1.11-1.62,1.36h29.33l-27.71-1.36m0,0-1.62,1.36h29.33l-27.71-1.36m0,0,27.71,1.36.77-1.36H559.17m0,0,27.71,1.36.77-1.36H559.17m-81.77,0,.76,1.36H507.5l-30.1-1.36m0,0,.76,1.36H507.5l-30.1-1.36m0,0,30.1,1.36L506,162.1H477.4m0,0,30.1,1.36L506,162.1H477.4m80.15,1.36-.34.26h29.5l-29.16-.26m0,0-.34.26h29.5l-29.16-.26m0,0,29.16.26.17-.26H557.55m0,0,29.16.26.17-.26H557.55m-79.39,0,.17.26h29.59l-29.76-.26m0,0,.17.26h29.59l-29.76-.26m0,0,29.76.26-.42-.26H478.16m0,0,29.76.26-.42-.26H478.16m79.05.26-1.28,1H586l-28.82-1m0,0-1.28,1H586l-28.82-1m0,0,28.82,1,.68-1h-29.5m0,0,28.82,1,.68-1h-29.5m-78.88,0,.69,1h30.1l-30.79-1m0,0,.69,1h30.1l-30.79-1m0,0,30.79,1-1.2-1H478.33m0,0,30.79,1-1.2-1H478.33m77.6,1-1.71,1.11h31l-29.33-1.11m0,0-1.71,1.11h31l-29.33-1.11m0,0,29.33,1.11.77-1.11h-30.1m0,0,29.33,1.11.77-1.11h-30.1m-76.91,0,.76,1.11h31L479,164.74m0,0,.76,1.11h31L479,164.74m0,0,31.8,1.11-1.7-1.11H479m0,0,31.8,1.11-1.7-1.11H479m75.2,1.11-.77.51h31.47l-30.7-.51m0,0-.77.51h31.47l-30.7-.51m0,0,30.7.51.34-.51h-31m0,0,30.7.51.34-.51h-31m-74.44,0,.34.51h31.55l-31.89-.51m0,0,.34.51h31.55l-31.89-.51m0,0,31.89.51-.85-.51h-31m0,0,31.89.51-.85-.51h-31m73.67.51-1,.6h32.06l-31-.6m0,0-1,.6h32.06l-31-.6m0,0,31,.6.43-.6H553.45m0,0,31,.6.43-.6H553.45m-73.33,0,.43.6h32.06l-32.49-.6m0,0,.43.6h32.06l-32.49-.6m0,0,32.49.6-.94-.6H480.12m0,0,32.49.6-.94-.6H480.12m72.31.6-1.79.94h33.17L552.43,167m0,0-1.79.94h33.17L552.43,167m0,0,31.38.94.68-.94H552.43m0,0,31.38.94.68-.94H552.43m-71.88,0,.77.94H514.4L480.55,167m0,0,.77.94H514.4L480.55,167m0,0,33.85.94-1.79-.94H480.55m0,0,33.85.94-1.79-.94H480.55m70.09.94-1.88.93h34.37l-32.49-.93m0,0-1.88.93h34.37l-32.49-.93m0,0,32.49.93.68-.93H550.64m0,0,32.49.93.68-.93H550.64m-69.32,0,.68.93h34.36l-35-.93m0,0,.68.93h34.36l-35-.93m0,0,35,.93-2-.93H481.32m0,0,35,.93-2-.93H481.32m67.44.93h0m0,0h0m0,0h0m0,0h0m-66.76,0h0m0,0h0m0,0h0m0,0h0m66.68,0-1.88.77h35.64l-33.76-.77m0,0-1.88.77h35.64l-33.76-.77m0,0,33.76.77.6-.77H548.68m0,0,33.76.77.6-.77H548.68m-66.68,0,.6.77h35.64L482,168.83m0,0,.6.77h35.64L482,168.83m0,0,36.24.77-1.79-.77H482m0,0,36.24.77-1.79-.77H482m64.8.77-2,.68h37l-35.05-.68m0,0-2,.68h37l-35.05-.68m0,0,35.05.68.59-.68H546.8m0,0,35.05.68.59-.68H546.8m-64.2,0,.59.68h37l-37.6-.68m0,0,.59.68h37l-37.6-.68m0,0,37.6.68-2-.68H482.6m0,0,37.6.68-2-.68H482.6m62.24.68-2,.6h38.54l-36.58-.6m0,0-2,.6h38.54l-36.58-.6m0,0,36.58.6.43-.6h-37m0,0,36.58.6.43-.6h-37m-61.65,0,.52.6h38.45l-39-.6m0,0,.52.6h38.45l-39-.6m0,0,39,.6-2-.6h-37m0,0,39,.6-2-.6h-37m59.69.6-1.7.43h39.9l-38.2-.43m0,0-1.7.43h39.9l-38.2-.43m0,0,38.2.43.34-.43H542.88m0,0,38.2.43.34-.43H542.88m-59.17,0,.34.43H524l-40.24-.43m0,0,.34.43H524l-40.24-.43m0,0,40.24.43-1.79-.43H483.71m0,0,40.24.43-1.79-.43H483.71m57.47.43-.26.08H581l-39.81-.08m0,0-.26.08H581l-39.81-.08m0,0,39.81.08.09-.08h-39.9m0,0,39.81.08.09-.08h-39.9m-57.13,0v.08h40.16l-40.16-.08m0,0v.08h40.16l-40.16-.08m0,0,40.16.08-.26-.08h-39.9m0,0,40.16.08-.26-.08h-39.9m56.87.08-2,.34h41.78l-39.73-.34m0,0-2,.34h41.78l-39.73-.34m0,0,39.73.34.34-.34H540.92m0,0,39.73.34.34-.34H540.92m-56.87,0,.34.34h41.86l-42.2-.34m0,0,.34.34h41.86l-42.2-.34m0,0,42.2.34-2-.34H484.05m0,0,42.2.34-2-.34H484.05m54.82.34-2.13.26H580.4l-41.53-.26m0,0-2.13.26H580.4l-41.53-.26m0,0,41.53.26.25-.26H538.87m0,0,41.53.26.25-.26H538.87m-54.48,0,.25.26H528.3l-43.91-.26m0,0,.25.26H528.3l-43.91-.26m0,0,43.91.26-2-.26H484.39m0,0,43.91.26-2-.26H484.39m52.35.26-2,.17h45.61L536.74,172m0,0-2,.17h45.61L536.74,172m0,0,43.57.17.09-.17H536.74m0,0,43.57.17.09-.17H536.74m-52.1,0,.17.17h45.62L484.64,172m0,0,.17.17h45.62L484.64,172m0,0,45.79.17L528.3,172H484.64m0,0,45.79.17L528.3,172H484.64m50.06.17h0m0,0h0m0,0h0m0,0h0m-49.89,0h0m0,0h0m0,0h0m0,0h0m.09,0,1.28,1.45H579l-94.05-1.45m0,0,1.28,1.45H579l-94.05-1.45m0,0L579,173.61l1.28-1.45H484.9m0,0L579,173.61l1.28-1.45H484.9m1.28,1.45,2.22,2.13h88.25l-90.47-2.13m0,0,2.22,2.13h88.25l-90.47-2.13m0,0,90.47,2.13,2.3-2.13H486.18m0,0,90.47,2.13,2.3-2.13H486.18m2.22,2.13,2.38,2h83.56l-85.94-2m0,0,2.38,2h83.56l-85.94-2m0,0,85.94,2,2.31-2H488.4m0,0,85.94,2,2.31-2H488.4m2.38,2,2.48,2h78.53l-81-2m0,0,2.48,2h78.53l-81-2m0,0,81,2,2.55-2H490.78m0,0,81,2,2.55-2H490.78m2.48,2,2.64,1.79h73.33l-76-1.79m0,0,2.64,1.79h73.33l-76-1.79m0,0,76,1.79,2.56-1.79H493.26m0,0,76,1.79,2.56-1.79H493.26m2.64,1.79,2.73,1.62H566.5l-70.6-1.62m0,0,2.73,1.62H566.5l-70.6-1.62m0,0,70.6,1.62,2.73-1.62H495.9m0,0,70.6,1.62,2.73-1.62H495.9m2.73,1.62,2.9,1.53h62.16l-65.06-1.53m0,0,2.9,1.53h62.16l-65.06-1.53m0,0,65.06,1.53,2.81-1.53H498.63m0,0,65.06,1.53,2.81-1.53H498.63m2.9,1.53,3,1.37H560.7l-59.17-1.37m0,0,3,1.37H560.7l-59.17-1.37m0,0,59.17,1.37,3-1.37H501.53m0,0,59.17,1.37,3-1.37H501.53m3,1.37,3.16,1.28h50l-53.12-1.28m0,0,3.16,1.28h50l-53.12-1.28m0,0,53.12,1.28,3.07-1.28H504.51m0,0,53.12,1.28,3.07-1.28H504.51m3.16,1.28,3.15,1.11h43.57l-46.72-1.11m0,0,3.15,1.11h43.57l-46.72-1.11m0,0,46.72,1.11,3.24-1.11h-50m0,0,46.72,1.11,3.24-1.11h-50m3.15,1.11,3.33.85h36.92l-40.25-.85m0,0,3.33.85h36.92l-40.25-.85m0,0,40.25.85,3.32-.85H510.82m0,0,40.25.85,3.32-.85H510.82m3.33.85,3.49.77h30l-33.51-.77m0,0,3.49.77h30l-33.51-.77m0,0,33.51.77,3.41-.77H514.15m0,0,33.51.77,3.41-.77H514.15m3.49.77,3.58.59h22.85l-26.43-.59m0,0,3.58.59h22.85l-26.43-.59m0,0,26.43.59,3.59-.59h-30m0,0,26.43.59,3.59-.59h-30m3.58.59,3.67.43h15.43l-19.1-.43m0,0,3.67.43h15.43l-19.1-.43m0,0,19.1.43,3.75-.43H521.22m0,0,19.1.43,3.75-.43H521.22m7.42.68,3.92.09,3.93-.09h-7.85m0,0,3.92.09,3.93-.09h-7.85m-3.75-.25,3.75.25h7.85l-11.6-.25m0,0,3.75.25h7.85l-11.6-.25m0,0,11.6.25,3.83-.25H524.89m0,0,11.6.25,3.83-.25H524.89M693.38,51.34h0m0,0h0m-4.35,0h0m0,0h0m0,0h0m0,0h0m-1,0-3.15.25h8.53L688,51.34m0,0-3.15.25h8.53L688,51.34m0,0,5.38.25v-.25H688m0,0,5.38.25v-.25H688m-3.15.25h0m0,0h0m0,0h0m0,0h0m0,0-2.47.26h11l-8.53-.26m0,0-2.47.26h11l-8.53-.26m0,0,8.53.26v-.26h-8.53m0,0,8.53.26v-.26h-8.53m-2.47.26-1.54.26h12.54l-11-.26m0,0-1.54.26h12.54l-11-.26m0,0,11,.26v-.26h-11m0,0,11,.26v-.26h-11m-1.54.26-1.11.17h13.65l-12.54-.17m0,0-1.11.17h13.65l-12.54-.17m0,0,12.54.17v-.17H680.84m0,0,12.54.17v-.17H680.84m-1.11.17-2.56.59h16.21l-13.65-.59m0,0-2.56.59h16.21l-13.65-.59m0,0,13.65.59v-.59H679.73m0,0,13.65.59v-.59H679.73m-2.56.59h0m0,0h0m0,0h0m0,0h0m-.08,0-2.13.6h18.42l-16.29-.6m0,0-2.13.6h18.42l-16.29-.6m0,0,16.29.6v-.6H677.09m0,0,16.29.6v-.6H677.09m-2.13.6-1.45.43h19.87L675,53.47m0,0-1.45.43h19.87L675,53.47m0,0,18.42.43v-.43H675m0,0,18.42.43v-.43H675m-52.1.94v.08h20.72l-20.72-.08m0,0v.08h20.72l-20.72-.08m0,0,20.72.08v-.08H622.86m0,0,20.72.08v-.08H622.86m0,.08h0m0,0h0m0,0h0m0,0h0m0,0v.26h20.72l-20.72-.26m0,0v.26h20.72l-20.72-.26m0,0,20.72.26v-.26H622.86m0,0,20.72.26v-.26H622.86m0,.26h0m0,0h0m0,0h0m0,0h0m50.65-.85-2.82,1h22.69l-19.87-1m0,0-2.82,1h22.69l-19.87-1m0,0,19.87,1v-1H673.51m0,0,19.87,1v-1H673.51m-50.65.85v.34h20.72l-20.72-.34m0,0v.34h20.72l-20.72-.34m0,0,20.72.34v-.34H622.86m0,0,20.72.34v-.34H622.86m0,.34v.09h20.72l-20.72-.09m0,0v.09h20.72l-20.72-.09m0,0,20.72.09v-.09H622.86m0,0,20.72.09v-.09H622.86m47.83-.17-.59.26h23.28l-22.69-.26m0,0-.59.26h23.28l-22.69-.26m0,0,22.69.26v-.26H670.69m0,0,22.69.26v-.26H670.69m-47.83.26v.42h20.72l-20.72-.42m0,0v.42h20.72l-20.72-.42m0,0,20.72.42v-.42H622.86m0,0,20.72.42v-.42H622.86m0,.42v.09h20.72l-20.72-.09m0,0v.09h20.72l-20.72-.09m0,0,20.72.09V55.6H622.86m0,0,20.72.09V55.6H622.86m0,.09v.59h20.72l-20.72-.59m0,0v.59h20.72l-20.72-.59m0,0,20.72.59v-.59H622.86m0,0,20.72.59v-.59H622.86m0,.59v.17h20.72l-20.72-.17m0,0v.17h20.72l-20.72-.17m0,0,20.72.17v-.17H622.86m0,0,20.72.17v-.17H622.86m47.24-1.1-3.16,1.53h26.44L670.1,55.18m0,0-3.16,1.53h26.44L670.1,55.18m0,0,23.28,1.53V55.18H670.1m0,0,23.28,1.53V55.18H670.1m-3.16,1.53h0m0,0h0m0,0h0m0,0h0m-44.08-.26v.6h20.72l-20.72-.6m0,0v.6h20.72l-20.72-.6m0,0,20.72.6v-.6H622.86m0,0,20.72.6v-.6H622.86m0,.6v.34h20.72l-20.72-.34m0,0v.34h20.72l-20.72-.34m0,0,20.72.34v-.34H622.86m0,0,20.72.34v-.34H622.86m0,.34v.51h20.72l-20.72-.51m0,0v.51h20.72l-20.72-.51m0,0,20.72.51v-.51H622.86m0,0,20.72.51v-.51H622.86m0,.51v.52h20.72l-20.72-.52m0,0v.52h20.72l-20.72-.52m0,0,20.72.52V57.9H622.86m0,0,20.72.52V57.9H622.86m44-1.19-3,1.88h29.51l-26.52-1.88m0,0-3,1.88h29.51l-26.52-1.88m0,0,26.52,1.88V56.71H666.86m0,0,26.52,1.88V56.71H666.86m-3,1.88-.17.08h29.68l-29.51-.08m0,0-.17.08h29.68l-29.51-.08m0,0,29.51.08v-.08H663.87m0,0,29.51.08v-.08H663.87m-41-.17v.42h20.72l-20.72-.42m0,0v.42h20.72l-20.72-.42m0,0,20.72.42v-.42H622.86m0,0,20.72.42v-.42H622.86m0,.42v.77h20.72l-20.72-.77m0,0v.77h20.72l-20.72-.77m0,0,20.72.77v-.77H622.86m0,0,20.72.77v-.77H622.86m40.84-.17-2.73,2h32.41l-29.68-2m0,0-2.73,2h32.41l-29.68-2m0,0,29.68,2v-2H663.7m0,0,29.68,2v-2H663.7m-40.84.94V61h20.72l-20.72-1.36m0,0V61h20.72l-20.72-1.36m0,0L643.58,61V59.61H622.86m0,0L643.58,61V59.61H622.86m0,1.36h0m0,0h0m0,0h0m0,0h0m0,0v1.45h20.72L622.86,61m0,0v1.45h20.72L622.86,61m0,0,20.72,1.45V61H622.86m0,0,20.72,1.45V61H622.86M661,60.63l-2.72,2.3h35.13L661,60.63m0,0-2.72,2.3h35.13L661,60.63m0,0,32.41,2.3v-2.3H661m0,0,32.41,2.3v-2.3H661m-2.72,2.3V63h35.13l-35.13-.09m0,0V63h35.13l-35.13-.09m0,0,35.13.09v-.09H658.25m0,0,35.13.09v-.09H658.25m-35.39-.51v.94h20.72l-20.72-.94m0,0v.94h20.72l-20.72-.94m0,0,20.72.94v-.94H622.86m0,0,20.72.94v-.94H622.86m0,.94V64h20.72l-20.72-.68m0,0V64h20.72l-20.72-.68m0,0,20.72.68v-.68H622.86m0,0,20.72.68v-.68H622.86M658.25,63l-2.65,2.56h37.78L658.25,63m0,0-2.65,2.56h37.78L658.25,63m0,0,35.13,2.56V63H658.25m0,0,35.13,2.56V63H658.25m-35.39,1v1.71h20.72L622.86,64m0,0v1.71h20.72L622.86,64m0,0,20.72,1.71V64H622.86m0,0,20.72,1.71V64H622.86m32.74,1.54-1.45,1.7h39.23l-37.78-1.7m0,0-1.45,1.7h39.23l-37.78-1.7m0,0,37.78,1.7v-1.7H655.6m0,0,37.78,1.7v-1.7H655.6m-32.74.17v1.79h20.72l-20.72-1.79m0,0v1.79h20.72l-20.72-1.79m0,0,20.72,1.79V65.75H622.86m0,0,20.72,1.79V65.75H622.86m31.29,1.53L653,68.48h40.34l-39.23-1.2m0,0L653,68.48h40.34l-39.23-1.2m0,0,39.23,1.2v-1.2H654.15m0,0,39.23,1.2v-1.2H654.15m-31.29.26v1h20.72l-20.72-1m0,0v1h20.72l-20.72-1m0,0,20.72,1v-1H622.86m0,0,20.72,1v-1H622.86m30.18.94-.51.76h40.85L653,68.48m0,0-.51.76h40.85L653,68.48m0,0,40.34.76v-.76H653m0,0,40.34.76v-.76H653m-30.18.08v.94h20.72l-20.72-.94m0,0v.94h20.72l-20.72-.94m0,0,20.72.94v-.94H622.86m0,0,20.72.94v-.94H622.86m29.67.68L651.17,71h42.21l-40.85-1.79m0,0L651.17,71h42.21l-40.85-1.79m0,0L693.38,71V69.24H652.53m0,0L693.38,71V69.24H652.53m-29.67.26v2h20.72l-20.72-2m0,0v2h20.72l-20.72-2m0,0,20.72,2v-2H622.86m0,0,20.72,2v-2H622.86M651.17,71l-.51.6h42.72L651.17,71m0,0-.51.6h42.72L651.17,71m0,0,42.21.6V71H651.17m0,0,42.21.6V71H651.17m-28.31.52v.93h20.72l-20.72-.93m0,0v.93h20.72l-20.72-.93m0,0,20.72.93v-.93H622.86m0,0,20.72.93v-.93H622.86m27.8.08-.6.85h43.32l-42.72-.85m0,0-.6.85h43.32l-42.72-.85m0,0,42.72.85v-.85H650.66m0,0,42.72.85v-.85H650.66m-.6.85-.43.6h43.75l-43.32-.6m0,0-.43.6h43.75l-43.32-.6m0,0,43.32.6v-.6H650.06m0,0,43.32.6v-.6H650.06m-.43.6-.34.6h44.09l-43.75-.6m0,0-.34.6h44.09l-43.75-.6m0,0,43.75.6v-.6H649.63m0,0,43.75.6v-.6H649.63m-26.77-.6v1.28h20.72l-20.72-1.28m0,0v1.28h20.72l-20.72-1.28m0,0,20.72,1.28V72.48H622.86m0,0,20.72,1.28V72.48H622.86m26.43,1.2-.25.42h44.34l-44.09-.42m0,0-.25.42h44.34l-44.09-.42m0,0,44.09.42v-.42H649.29m0,0,44.09.42v-.42H649.29m-26.43.08v.6h20.72l-20.72-.6m0,0v.6h20.72l-20.72-.6m0,0,20.72.6v-.6H622.86m0,0,20.72.6v-.6H622.86M649,74.1l-.26.26h44.6L649,74.1m0,0-.26.26h44.6L649,74.1m0,0,44.34.26V74.1H649m0,0,44.34.26V74.1H649m-.26.26-.08.26h44.68l-44.6-.26m0,0-.08.26h44.68l-44.6-.26m0,0,44.6.26v-.26h-44.6m0,0,44.6.26v-.26h-44.6m-.08.26h0m0,0h0m0,0h0m0,0h0m-.09,0v.08h41.52l-41.52-.08m0,0v.08h41.52l-41.52-.08m0,0,41.52.08,3.25-.08H648.61m0,0,41.52.08,3.25-.08H648.61m0,.08-.17.17h38.63l-38.46-.17m0,0-.17.17h38.63l-38.46-.17m0,0,38.46.17,3.06-.17H648.61m0,0,38.46.17,3.06-.17H648.61m-.17.17-.09.17h36.84l-36.75-.17m0,0-.09.17h36.84l-36.75-.17m0,0,36.75.17,1.88-.17H648.44m0,0,36.75.17,1.88-.17H648.44m-.09.17-.08.09H684L648.35,75m0,0-.08.09H684L648.35,75m0,0,35.65.09,1.19-.09H648.35m0,0,35.65.09,1.19-.09H648.35m-.08.09-.17.42h33.08l-32.91-.42m0,0-.17.42h33.08l-32.91-.42m0,0,32.91.42,2.82-.42H648.27m0,0,32.91.42,2.82-.42H648.27m-25.41-.77V76h20.72l-20.72-1.62m0,0V76h20.72l-20.72-1.62m0,0L643.58,76V74.36H622.86m0,0L643.58,76V74.36H622.86m25.24,1.19-.34.52h30.61l-30.27-.52m0,0-.34.52h30.61l-30.27-.52m0,0,30.27.52,2.81-.52H648.1m0,0,30.27.52,2.81-.52H648.1M622.86,76v.17h20.72L622.86,76m0,0v.17h20.72L622.86,76m0,0,20.72.17V76H622.86m0,0,20.72.17V76H622.86m24.9.09-.34.59h28.3l-28-.59m0,0-.34.59h28.3l-28-.59m0,0,28,.59,2.65-.59H647.76m0,0,28,.59,2.65-.59H647.76m-.34.59-.43.77h26.26l-25.83-.77m0,0-.43.77h26.26l-25.83-.77m0,0,25.83.77,2.47-.77h-28.3m0,0,25.83.77,2.47-.77h-28.3m-24.56-.51v1.62h20.72l-20.72-1.62m0,0v1.62h20.72l-20.72-1.62m0,0,20.72,1.62V76.15H622.86m0,0,20.72,1.62V76.15H622.86M647,77.43l-.51.85h24.38L647,77.43m0,0-.51.85h24.38L647,77.43m0,0,23.87.85,2.39-.85H647m0,0,23.87.85,2.39-.85H647m-.51.85-.26.43h23.54l-23.28-.43m0,0-.26.43h23.54l-23.28-.43m0,0,23.28.43,1.1-.43H646.48m0,0,23.28.43,1.1-.43H646.48m-23.62-.51v1.45h20.72l-20.72-1.45m0,0v1.45h20.72l-20.72-1.45m0,0,20.72,1.45V77.77H622.86m0,0,20.72,1.45V77.77H622.86m23.36.94-.34.51h22.68l-22.34-.51m0,0-.34.51h22.68l-22.34-.51m0,0,22.34.51,1.2-.51H646.22m0,0,22.34.51,1.2-.51H646.22m-.34.51-.51,1.11h21.06l-20.55-1.11m0,0-.51,1.11h21.06l-20.55-1.11m0,0,20.55,1.11,2.13-1.11H645.88m0,0,20.55,1.11,2.13-1.11H645.88m-23,0V80.5h20.72l-20.72-1.28m0,0V80.5h20.72l-20.72-1.28m0,0,20.72,1.28V79.22H622.86m0,0,20.72,1.28V79.22H622.86m0,1.28v.25h20.72l-20.72-.25m0,0v.25h20.72l-20.72-.25m0,0,20.72.25V80.5H622.86m0,0,20.72.25V80.5H622.86m0,.25v.69h20.72l-20.72-.69m0,0v.69h20.72l-20.72-.69m0,0,20.72.69v-.69H622.86m0,0,20.72.69v-.69H622.86m22.51-.42-.6,1.19h19.61l-19-1.19m0,0-.6,1.19h19.61l-19-1.19m0,0,19,1.19,2-1.19H645.37m0,0,19,1.19,2-1.19H645.37m-22.51,1.11v.76h20.72l-20.72-.76m0,0v.76h20.72l-20.72-.76m0,0,20.72.76v-.76H622.86m0,0,20.72.76v-.76H622.86m0,.76v.43h20.72l-20.72-.43m0,0v.43h20.72l-20.72-.43m0,0,20.72.43V82.2H622.86m0,0,20.72.43V82.2H622.86m21.91-.68-.68,1.2h18.42l-17.74-1.2m0,0-.68,1.2h18.42l-17.74-1.2m0,0,17.74,1.2,1.87-1.2H644.77m0,0,17.74,1.2,1.87-1.2H644.77m-21.91,1.11v.09h20.72l-20.72-.09m0,0v.09h20.72l-20.72-.09m0,0,20.72.09v-.09H622.86m0,0,20.72.09v-.09H622.86m0,.09v.08h39.56l-39.56-.08m0,0v.08h39.56l-39.56-.08m0,0,39.56.08.09-.08H622.86m0,0,39.56.08.09-.08H622.86m0,.08v1.37h37.69L622.86,82.8m0,0v1.37h37.69L622.86,82.8m0,0,37.69,1.37,1.87-1.37H622.86m0,0,37.69,1.37,1.87-1.37H622.86m0,1.37v1.44h36l-36-1.44m0,0v1.44h36l-36-1.44m0,0,36,1.44,1.71-1.44H622.86m0,0,36,1.44,1.71-1.44H622.86m0,1.44v.26h35.81l-35.81-.26m0,0v.26h35.81l-35.81-.26m0,0,35.81.26.17-.26h-36m0,0,35.81.26.17-.26h-36m0,.26v1.37h34.45l-34.45-1.37m0,0v1.37h34.45l-34.45-1.37m0,0,34.45,1.37,1.36-1.37H622.86m0,0,34.45,1.37,1.36-1.37H622.86m0,1.37v1.7h32.91l-32.91-1.7m0,0v1.7h32.91l-32.91-1.7m0,0,32.91,1.7,1.54-1.7H622.86m0,0,32.91,1.7,1.54-1.7H622.86m0,1.7v1.79h31.55l-31.55-1.79m0,0v1.79h31.55l-31.55-1.79m0,0,31.55,1.79,1.36-1.79H622.86m0,0,31.55,1.79,1.36-1.79H622.86m0,1.79v.51h31.21l-31.21-.51m0,0v.51h31.21l-31.21-.51m0,0,31.21.51.34-.51H622.86m0,0,31.21.51.34-.51H622.86m0,.51v1.37h30.27l-30.27-1.37m0,0v1.37h30.27l-30.27-1.37m0,0,30.27,1.37.94-1.37H622.86m0,0,30.27,1.37.94-1.37H622.86m0,1.37v2h29.08l-29.08-2m0,0v2h29.08l-29.08-2m0,0,29.08,2,1.19-2H622.86m0,0,29.08,2,1.19-2H622.86m0,2V96.7h28l-28-2.13m0,0V96.7h28l-28-2.13m0,0,28,2.13,1.11-2.13H622.86m0,0,28,2.13,1.11-2.13H622.86m0,2.13v.08h28l-28-.08m0,0v.08h28l-28-.08m0,0,28,.08V96.7h-28m0,0,28,.08V96.7h-28m0,.08v2h27l-27-2m0,0v2h27l-27-2m0,0,27,2,.94-2h-28m0,0,27,2,.94-2h-28m0,2v2.3H649l-26.09-2.3m0,0v2.3H649l-26.09-2.3m0,0,26.09,2.3.94-2.3h-27m0,0,26.09,2.3.94-2.3h-27m0,2.3v1.45h25.58l-25.58-1.45m0,0v1.45h25.58l-25.58-1.45m0,0,25.58,1.45.51-1.45H622.86m0,0,25.58,1.45.51-1.45H622.86m0,1.45v.86h25.32l-25.32-.86m0,0v.86h25.32l-25.32-.86m0,0,25.32.86.26-.86H622.86m0,0,25.32.86.26-.86H622.86m0,.86v2.47H647.5l-24.64-2.47m0,0v2.47H647.5l-24.64-2.47m0,0,24.64,2.47.68-2.47H622.86m0,0,24.64,2.47.68-2.47H622.86m0,2.47v2.56h24l-24-2.56m0,0v2.56h24l-24-2.56m0,0,24,2.56.59-2.56H622.86m0,0,24,2.56.59-2.56H622.86m0,2.56v1.62h23.7l-23.7-1.62m0,0v1.62h23.7l-23.7-1.62m0,0,23.7,1.62.35-1.62h-24m0,0,23.7,1.62.35-1.62h-24m0,1.62v4.43H645.8l-22.94-4.43m0,0v4.43H645.8l-22.94-4.43m0,0,22.94,4.43.76-4.43h-23.7m0,0,22.94,4.43.76-4.43h-23.7m0,21.48v.94h22l-22-.94m0,0v.94h22l-22-.94m0,0,22,.94v-.94h-22m0,0,22,.94v-.94h-22m0,.94v1h22l-22-1m0,0v1h22l-22-1m0,0,22,1v-1h-22m0,0,22,1v-1h-22m0,1v1.11h22l-22-1.11m0,0v1.11h22l-22-1.11m0,0,22,1.11v-1.11h-22m0,0,22,1.11v-1.11h-22m0,1.11v1.28h22l-22-1.28m0,0v1.28h22l-22-1.28m0,0,22,1.28v-1.28h-22m0,0,22,1.28v-1.28h-22m0,1.28v1.28h22l-22-1.28m0,0v1.28h22l-22-1.28m0,0,22,1.28v-1.28h-22m0,0,22,1.28v-1.28h-22m0,1.28v.26h22l-22-.26m0,0v.26h22l-22-.26m0,0,22,.26v-.26h-22m0,0,22,.26v-.26h-22m0,.26v1.19h22l-22-1.19m0,0v1.19h22l-22-1.19m0,0,22,1.19v-1.19h-22m0,0,22,1.19v-1.19h-22m0,1.19v3.07h22l-22-3.07m0,0v3.07h22l-22-3.07m0,0,22,3.07v-3.07h-22m0,0,22,3.07v-3.07h-22m0,3.07v1.45h22l-22-1.45m0,0v1.45h22l-22-1.45m0,0,22,1.45v-1.45h-22m0,0,22,1.45v-1.45h-22m0,1.45v1.88h22l-22-1.88m0,0v1.88h22l-22-1.88m0,0,22,1.88v-1.88h-22m0,0,22,1.88v-1.88h-22m0,1.88v3.58h22l-22-3.58m0,0v3.58h22l-22-3.58m0,0,22,3.58v-3.58h-22m0,0,22,3.58v-3.58h-22m0,3.58v.17h22l-22-.17m0,0v.17h22l-22-.17m0,0,22,.17v-.17h-22m0,0,22,.17v-.17h-22m0,.17v3.49h22l-22-3.49m0,0v3.49h22l-22-3.49m0,0,22,3.49V148.8h-22m0,0,22,3.49V148.8h-22m0,3.49v1.88h22l-22-1.88m0,0v1.88h22l-22-1.88m0,0,22,1.88v-1.88h-22m0,0,22,1.88v-1.88h-22m0,1.88v2h22l-22-2m0,0v2h22l-22-2m0,0,22,2v-2h-22m0,0,22,2v-2h-22m0,2v3.24h22l-22-3.24m0,0v3.24h22l-22-3.24m0,0,22,3.24v-3.24h-22m0,0,22,3.24v-3.24h-22m0,3.24v4.43h22l-22-4.43m0,0v4.43h22l-22-4.43m0,0,22,4.43v-4.43h-22m0,0,22,4.43v-4.43h-22m0,4.43v.43h22l-22-.43m0,0v.43h22l-22-.43m0,0,22,.43v-.43h-22m0,0,22,.43v-.43h-22m0,.43v2.3h22l-22-2.3m0,0v2.3h22l-22-2.3m0,0,22,2.3v-2.3h-22m0,0,22,2.3v-2.3h-22m0,2.3v1h22l-22-1m0,0v1h22l-22-1m0,0,22,1v-1h-22m0,0,22,1v-1h-22m0,1v1.19h22l-22-1.19m0,0v1.19h22l-22-1.19m0,0,22,1.19v-1.19h-22m0,0,22,1.19v-1.19h-22m0,1.19V171h22l-22-2.22m0,0V171h22l-22-2.22m0,0,22,2.22v-2.22h-22m0,0,22,2.22v-2.22h-22m0,2.22v.17h22l-22-.17m0,0v.17h22l-22-.17m0,0,22,.17V171h-22m0,0,22,.17V171h-22m0,.17V173h22l-22-1.87m0,0V173h22l-22-1.87m0,0,22,1.87v-1.87h-22m0,0,22,1.87v-1.87h-22m0,1.87v1.54h22l-22-1.54m0,0v1.54h22l-22-1.54m0,0,22,1.54V173h-22m0,0,22,1.54V173h-22m0,1.54v.34h22l-22-.34m0,0v.34h22l-22-.34m0,0,22,.34v-.34h-22m0,0,22,.34v-.34h-22m0,.34v1.87h22l-22-1.87m0,0v1.87h22l-22-1.87m0,0,22,1.87v-1.87h-22m0,0,22,1.87v-1.87h-22m0,1.87v.94h22l-22-.94m0,0v.94h22l-22-.94m0,0,22,.94v-.94h-22m0,0,22,.94v-.94h-22m0,.94v.77h22l-22-.77m0,0v.77h22l-22-.77m0,0,22,.77v-.77h-22m0,0,22,.77v-.77h-22m0,.77v1.62h22l-22-1.62m0,0v1.62h22l-22-1.62m0,0,22,1.62v-1.62h-22m0,0,22,1.62v-1.62h-22m0,1.62v.51h22l-22-.51m0,0v.51h22l-22-.51m0,0,22,.51v-.51h-22m0,0,22,.51v-.51h-22m0,.51v.94h22l-22-.94m0,0v.94h22l-22-.94m0,0,22,.94v-.94h-22m0,0,22,.94v-.94h-22m0,.94v.34h22l-22-.34m0,0v.34h22l-22-.34m0,0,22,.34v-.34h-22m0,0,22,.34v-.34h-22m0,.34v1h22l-22-1m0,0v1h22l-22-1m0,0,22,1v-1h-22m0,0,22,1v-1h-22m0,1v.26h22l-22-.26m0,0v.26h22l-22-.26m0,0,22,.26v-.26h-22m0,0,22,.26v-.26h-22m0,.26v1h22l-22-1m0,0v1h22l-22-1m0,0,22,1v-1h-22m0,0,22,1v-1h-22m0,1v.09h22l-22-.09m0,0v.09h22l-22-.09m0,0,22,.09v-.09h-22m0,0,22,.09v-.09h-22m0,.09v.94h22l-22-.94m0,0v.94h22l-22-.94m0,0,22,.94v-.94h-22m0,0,22,.94v-.94h-22m0,.94h0m0,0h0m0,0h0m0,0h0m0,0v.93h22l-22-.93m0,0v.93h22l-22-.93m0,0,22,.93v-.93h-22m0,0,22,.93v-.93h-22m0,.93h0m0,0h0m0,0h0m0,0h0m0,0v.69h22l-22-.69m0,0v.69h22l-22-.69m0,0,22,.69v-.69h-22m0,0,22,.69v-.69h-22m0,.69V187h22l-22-.17m0,0V187h22l-22-.17m0,0,22,.17v-.17h-22m0,0,22,.17v-.17h-22m0,.17v.51h22l-22-.51m0,0v.51h22l-22-.51m0,0,22,.51V187h-22m0,0,22,.51V187h-22m0,.51v.08h22l-22-.08m0,0v.08h22l-22-.08m0,0,22,.08v-.08h-22m0,0,22,.08v-.08h-22m0,.08v.34h22l-22-.34m0,0v.34h22l-22-.34m0,0,22,.34v-.34h-22m0,0,22,.34v-.34h-22m0,.34v.17h22l-22-.17m0,0v.17h22l-22-.17m0,0,22,.17v-.17h-22m0,0,22,.17v-.17h-22m0,.17v.18h22l-22-.18m0,0v.18h22l-22-.18m0,0,22,.18v-.18h-22m0,0,22,.18v-.18h-22m0,.18v.08h22l-22-.08m0,0v.08h22l-22-.08m0,0,22,.08v-.08h-22m0,0,22,.08v-.08h-22m0,.08v.17h22l-22-.17m0,0v.17h22l-22-.17m0,0,22,.17v-.17h-22m0,0,22,.17v-.17h-22m0,.17h0m0,0h0m0,0h0m0,0h0m0,0h0m0,0h0m0,0h0m0,0h0M802.43,54.41l-62.76,60.11h26.78l36-60.11m0,0-62.76,60.11h26.78l36-60.11m0,0-36,60.11L832,54.41H802.43m0,0-36,60.11L832,54.41H802.43M711.28,3.33V114.52h22.08L711.28,3.33m0,0V114.52h22.08L711.28,3.33m0,0,22.08,111.19V3.33H711.28m0,0,22.08,111.19V3.33H711.28m44,128.24,37.34,57h28.06l-65.4-57m0,0,37.34,57h28.06l-65.4-57m0,0,65.4,57-38.12-57H755.28m0,0,65.4,57-38.12-57H755.28m-44,0v57h22.08l-22.08-57m0,0v57h22.08l-22.08-57m0,0,22.08,57v-57H711.28m0,0,22.08,57v-57H711.28M889.06,51.34l-3.92.08h9.55l-5.63-.08m0,0-3.92.08h9.55l-5.63-.08m-3.92.08h0m0,0h0m0,0h0m0,0h0m-.51,0-3.76.34h19.19l-15.43-.34m0,0-3.76.34h19.19l-15.43-.34m0,0,15.43.34-5.2-.34H884.63m0,0,15.43.34-5.2-.34H884.63m-3.76.34-.68.09h20.38l-19.7-.09m0,0-.68.09h20.38l-19.7-.09m0,0,19.7.09-.51-.09H880.87m0,0,19.7.09-.51-.09H880.87m-.68.09-3.49.51h28.48l-25-.51m0,0-3.49.51h28.48l-25-.51m0,0,25,.51-4.61-.51H880.19m0,0,25,.51-4.61-.51H880.19m-3.49.51-.94.17H906l-29.33-.17m0,0-.94.17H906l-29.33-.17m0,0,29.33.17-.85-.17H876.7m0,0,29.33.17-.85-.17H876.7m-.94.17-3.24.68H910l-34.28-.68m0,0-3.24.68H910l-34.28-.68m0,0,34.28.68-4-.68H875.76m0,0,34.28.68-4-.68H875.76m-3.24.68-1.2.26h39.91l-38.71-.26m0,0-1.2.26h39.91l-38.71-.26m0,0,38.71.26L910,53.21H872.52m0,0,38.71.26L910,53.21H872.52m-1.2.26-1,.34h42.12l-41.1-.34m0,0-1,.34h42.12l-41.1-.34m0,0,41.1.34-1.19-.34H871.32m0,0,41.1.34-1.19-.34H871.32m-1,.34-1.19.26h44.51l-43.32-.26m0,0-1.19.26h44.51l-43.32-.26m0,0,43.32.26-1.2-.26H870.3m0,0,43.32.26-1.2-.26H870.3m-1.19.26-1,.34h46.65l-45.62-.34m0,0-1,.34h46.65l-45.62-.34m0,0,45.62.34-1.11-.34H869.11m0,0,45.62.34-1.11-.34H869.11m-1,.34-1.19.34h48.94l-47.75-.34m0,0-1.19.34h48.94l-47.75-.34m0,0,47.75.34-1.1-.34H868.08m0,0,47.75.34-1.1-.34H868.08m-1.19.34-.94.34h51l-50.05-.34m0,0-.94.34h51l-50.05-.34m0,0,50.05.34-1.11-.34H866.89m0,0,50.05.34-1.11-.34H866.89m-.94.34-1.11.43H918l-52-.43m0,0-1.11.43H918l-52-.43m0,0,52,.43-1-.43H866m0,0,52,.43-1-.43H866m-1.11.43-1.1.42h55.42l-54.32-.42m0,0-1.1.42h55.42l-54.32-.42m0,0,54.32.42L918,55.52H864.84m0,0,54.32.42L918,55.52H864.84m-1.1.42-.94.34H920l-56.27-.34m0,0-.94.34H920l-56.27-.34m0,0,56.27.34-.85-.34H863.74m0,0,56.27.34-.85-.34H863.74m-.94.34-1.11.52h59.52l-58.41-.52m0,0-1.11.52h59.52l-58.41-.52m0,0,58.41.52-1.2-.52H862.8m0,0,58.41.52-1.2-.52H862.8m-1.11.52-.85.34H922l-60.28-.34m0,0-.85.34H922l-60.28-.34m0,0,60.28.34-.76-.34H861.69m0,0,60.28.34-.76-.34H861.69m-.85.34-1.28.59h63.69l-62.41-.59m0,0-1.28.59h63.69l-62.41-.59m0,0,62.41.59L922,57.14H860.84m0,0,62.41.59L922,57.14H860.84m-1.28.59-.68.43h65l-64.29-.43m0,0-.68.43h65l-64.29-.43m0,0,64.29.43-.6-.43H859.56m0,0,64.29.43-.6-.43H859.56m-.68.43-1.28.68h67.61l-66.33-.68m0,0-1.28.68h67.61l-66.33-.68m0,0,66.33.68-1.36-.68h-65m0,0,66.33.68-1.36-.68h-65m-1.28.68-.6.34h68.72l-68.12-.34m0,0-.6.34h68.72l-68.12-.34m0,0,68.12.34-.51-.34H857.6m0,0,68.12.34-.51-.34H857.6m-.6.34-1.36.77h71.45L857,59.18m0,0-1.36.77h71.45L857,59.18m0,0,70.09.77-1.37-.77H857m0,0,70.09.77-1.37-.77H857m-1.36.77-.43.34h72.22L855.64,60m0,0-.43.34h72.22L855.64,60m0,0,71.79.34-.34-.34H855.64m0,0,71.79.34-.34-.34H855.64m-.43.34-1.45.94h75.12l-73.67-.94m0,0-1.45.94h75.12l-73.67-.94m0,0,73.67.94-1.45-.94H855.21m0,0,73.67.94-1.45-.94H855.21m-1.45.94-.34.17h75.72l-75.38-.17m0,0-.34.17h75.72l-75.38-.17m0,0,75.38.17-.26-.17H853.76m0,0,75.38.17-.26-.17H853.76m-.34.17-1.54,1.19h78.7L853.42,61.4m0,0-1.54,1.19h78.7L853.42,61.4m0,0,77.16,1.19-1.44-1.19H853.42m0,0,77.16,1.19-1.44-1.19H853.42m-1.54,1.19-.08.09h78.87l-78.79-.09m0,0-.08.09h78.87l-78.79-.09m0,0,78.79.09-.09-.09h-78.7m0,0,78.79.09-.09-.09h-78.7m-.08.09L850.18,64h82l-80.4-1.36m0,0L850.18,64h82l-80.4-1.36m0,0L932.2,64l-1.53-1.36H851.8m0,0L932.2,64l-1.53-1.36H851.8M850.18,64h0m0,0h0m0,0h0m0,0h0m0,0-1.45,1.45h84.84L850.18,64m0,0-1.45,1.45h84.84L850.18,64m0,0,83.39,1.45L932.2,64h-82m0,0,83.39,1.45L932.2,64h-82m-1.45,1.45-.17.17h85.18l-85-.17m0,0-.17.17h85.18l-85-.17m0,0,85,.17-.17-.17H848.73m0,0,85,.17-.17-.17H848.73m-.17.17L847.28,67h87.57l-86.29-1.37m0,0L847.28,67h87.57l-86.29-1.37m0,0L934.85,67l-1.11-1.37H848.56m0,0L934.85,67l-1.11-1.37H848.56M847.28,67l-.26.25h88.17L847.28,67m0,0-.26.25h88.17L847.28,67m0,0,87.91.25-.34-.25H847.28m0,0,87.91.25-.34-.25H847.28m-.26.25-1.1,1.28h90.21L847,67.28m0,0-1.1,1.28h90.21L847,67.28m0,0,89.11,1.28-.94-1.28H847m0,0,89.11,1.28-.94-1.28H847m-1.1,1.28-.35.51h90.9l-90.55-.51m0,0-.35.51h90.9l-90.55-.51m0,0,90.55.51-.34-.51H845.92m0,0,90.55.51-.34-.51H845.92m-.35.51-.85,1.2h92.52l-91.67-1.2m0,0-.85,1.2h92.52l-91.67-1.2m0,0,91.67,1.2-.77-1.2h-90.9m0,0,91.67,1.2-.77-1.2h-90.9m-.85,1.2-.34.51h93.2l-92.86-.51m0,0-.34.51h93.2l-92.86-.51m0,0,92.86.51-.34-.51H844.72m0,0,92.86.51-.34-.51H844.72m46.13.51h0m0,0h0m0,0h0m0,0h0m-46.47,0h0m0,0h0m0,0h0m0,0h0m48.26,0,.94.08h44.08l-45-.08m0,0,.94.08h44.08l-45-.08m0,0,45,.08-.08-.08H892.64m0,0,45,.08-.08-.08H892.64m-48.26,0-.17.17h41.7l-41.53-.17m0,0-.17.17h41.7l-41.53-.17m0,0,41.53.17,2.47-.17h-44m0,0,41.53.17,2.47-.17h-44m49.2.08,1.79.09h42.38l-44.17-.09m0,0,1.79.09h42.38l-44.17-.09m0,0,44.17.09-.09-.09H893.58m0,0,44.17.09-.09-.09H893.58m1.79.09.94.08h41.44L895.37,71m0,0,.94.08h41.44L895.37,71m0,0,42.38.08V71H895.37m0,0,42.38.08V71H895.37m-51.16,0-.08.26h39.3L844.21,71m0,0-.08.26h39.3L844.21,71m0,0,39.22.26,2.48-.26h-41.7m0,0,39.22.26,2.48-.26h-41.7m52.1.08,2.64.35h39L896.31,71m0,0,2.64.35h39L896.31,71m0,0,41.69.35-.25-.35H896.31m0,0,41.69.35-.25-.35H896.31m-52.18.18-.26.34h37l-36.74-.34m0,0-.26.34h37l-36.74-.34m0,0,36.74.34,2.56-.34h-39.3m0,0,36.74.34,2.56-.34h-39.3m54.82.17,2.73.51h36.58L899,71.38m0,0,2.73.51h36.58L899,71.38m0,0,39.31.51-.26-.51H899m0,0,39.31.51-.26-.51H899m-55.08.17-.34.42H878.4l-34.53-.42m0,0-.34.42H878.4l-34.53-.42m0,0L878.4,72l2.47-.42h-37m0,0L878.4,72l2.47-.42h-37m-.34.42v.09h34.7L843.53,72m0,0v.09h34.7L843.53,72m0,0,34.7.09.17-.09H843.53m0,0,34.7.09.17-.09H843.53m58.15-.08,2.56.68h34.45l-37-.68m0,0,2.56.68h34.45l-37-.68m0,0,37,.68-.43-.68H901.68m0,0,37,.68-.43-.68H901.68m-58.15.17-.34.51H876l-32.48-.51m0,0-.34.51H876l-32.48-.51m0,0,32.48.51,2.22-.51h-34.7m0,0,32.48.51,2.22-.51h-34.7m60.71.51,1.11.43h33.51l-34.62-.43m0,0,1.11.43h33.51l-34.62-.43m0,0,34.62.43-.17-.43H904.24m0,0,34.62.43-.17-.43H904.24m-61,0-.43.77h31l-30.61-.77m0,0-.43.77h31l-30.61-.77m0,0,30.61.77,2.21-.77H843.19m0,0,30.61.77,2.21-.77H843.19m62.16.43,1.36.42h32.4L905.35,73m0,0,1.36.42h32.4L905.35,73m0,0,33.76.42-.25-.42H905.35m0,0,33.76.42-.25-.42H905.35m-62.59.34-.34.59h30.1l-29.76-.59m0,0-.34.59h30.1l-29.76-.59m0,0,29.76.59,1.28-.59h-31m0,0,29.76.59,1.28-.59h-31m-.34.59-.17.34h29.42l-29.25-.34m0,0-.17.34h29.42l-29.25-.34m0,0,29.25.34.85-.34h-30.1m0,0,29.25.34.85-.34h-30.1m64.29-.51,2.39,1h30.52l-32.91-1m0,0,2.39,1h30.52l-32.91-1m0,0,32.91,1-.51-1h-32.4m0,0,32.91,1-.51-1h-32.4m2.39,1,1.11.59H940l-30.86-.59m0,0,1.11.59H940l-30.86-.59m0,0L940,75l-.34-.59H909.1m0,0L940,75l-.34-.59H909.1m-66.85-.18-.43,1H869.7l-27.45-1m0,0-.43,1H869.7l-27.45-1m0,0,27.45,1,2-1H842.25m0,0,27.45,1,2-1H842.25m68,.77,1.19.68h28.82l-30-.68m0,0,1.19.68h28.82l-30-.68m0,0,30,.68L940,75H910.21m0,0,30,.68L940,75H910.21m-68.39.26-.25.59h27.28l-27-.59m0,0-.25.59h27.28l-27-.59m0,0,27,.59.85-.59H841.82m0,0,27,.59.85-.59H841.82m-.25.59-.26.6h26.6l-26.34-.6m0,0-.26.6h26.6l-26.34-.6m0,0,26.34.6.94-.6H841.57m0,0,26.34.6.94-.6H841.57m69.83-.17,2.05,1.37h27.28L911.4,75.72m0,0,2.05,1.37h27.28L911.4,75.72m0,0,29.33,1.37-.51-1.37H911.4m0,0,29.33,1.37-.51-1.37H911.4m2.05,1.37.25.25h27.12l-27.37-.25m0,0,.25.25h27.12l-27.37-.25m0,0,27.37.25-.09-.25H913.45m0,0,27.37.25-.09-.25H913.45m-72.14-.6-.6,1.45h25.58l-25-1.45m0,0-.6,1.45h25.58l-25-1.45m0,0,25,1.45,1.62-1.45h-26.6m0,0,25,1.45,1.62-1.45h-26.6m-.6,1.45h0m0,0h0m0,0h0m0,0h0m73-.6,1.71,1.37h25.92L913.7,77.34m0,0,1.71,1.37h25.92L913.7,77.34m0,0,27.63,1.37-.51-1.37H913.7m0,0,27.63,1.37-.51-1.37H913.7m-73,.6-.42,1.54h24.64l-24.22-1.54m0,0-.42,1.54h24.64l-24.22-1.54m0,0,24.22,1.54,1.36-1.54H840.71m0,0,24.22,1.54,1.36-1.54H840.71m74.7.77.85.94h25.41l-26.26-.94m0,0,.85.94h25.41l-26.26-.94m0,0,26.26.94-.34-.94H915.41m0,0,26.26.94-.34-.94H915.41m-75.12.77-.17.59H864.5l-24.21-.59m0,0-.17.59H864.5l-24.21-.59m0,0,24.21.59.43-.59H840.29m0,0,24.21.59.43-.59H840.29m-.17.59-.09.26h24.3l-24.21-.26m0,0-.09.26h24.3l-24.21-.26m0,0,24.21.26.17-.26H840.12m0,0,24.21.26.17-.26H840.12m76.14-.42.85.85h24.82l-25.67-.85m0,0,.85.85h24.82l-25.67-.85m0,0,25.67.85-.26-.85H916.26m0,0,25.67.85-.26-.85H916.26M840,80.33l-.17.85h24L840,80.33m0,0-.17.85h24L840,80.33m0,0,23.79.85.51-.85H840m0,0,23.79.85.51-.85H840m77.08.17,1.2,1.62h24L917.11,80.5m0,0,1.2,1.62h24L917.11,80.5m0,0,25.24,1.62-.42-1.62H917.11m0,0,25.24,1.62-.42-1.62H917.11m-77.25.68-.25.94h23.7l-23.45-.94m0,0-.25.94h23.7l-23.45-.94m0,0,23.45.94.51-.94h-24m0,0,23.45.94.51-.94h-24m-.25.94v.17h23.7l-23.7-.17m0,0v.17h23.7l-23.7-.17m0,0,23.7.17v-.17h-23.7m0,0,23.7.17v-.17h-23.7m78.7,0,.34.43h23.79l-24.13-.43m0,0,.34.43h23.79l-24.13-.43m0,0,24.13.43-.09-.43h-24m0,0,24.13.43-.09-.43h-24m-78.7.17-.17.85H863l-23.36-.85m0,0-.17.85H863l-23.36-.85m0,0,23.36.85.34-.85h-23.7m0,0,23.36.85.34-.85h-23.7m79,.26.68,1.1h23.36l-24-1.1m0,0,.68,1.1h23.36l-24-1.1m0,0,24,1.1-.25-1.1H918.65m0,0,24,1.1-.25-1.1H918.65m-79.21.59-.18,1.11h23.45l-23.27-1.11m0,0-.18,1.11h23.45l-23.27-1.11m0,0,23.27,1.11.26-1.11H839.44m0,0,23.27,1.11.26-1.11H839.44m-.18,1.11v.34h23.37l-23.37-.34m0,0v.34h23.37l-23.37-.34m0,0,23.37.34.08-.34H839.26m0,0,23.37.34.08-.34H839.26m80.07-.6.51,1.11H943l-23.62-1.11m0,0,.51,1.11H943l-23.62-1.11m0,0L943,84.76l-.26-1.11H919.33m0,0L943,84.76l-.26-1.11H919.33m.51,1.11.09.09h23l-23.11-.09m0,0,.09.09h23l-23.11-.09m0,0,23.11.09v-.09H919.84m0,0,23.11.09v-.09H919.84m-80.58-.17-.08.85h23.28l-23.2-.85m0,0-.08.85h23.28l-23.2-.85m0,0,23.2.85.17-.85H839.26m0,0,23.2.85.17-.85H839.26m80.67.26.51,1.28H943.2l-23.27-1.28m0,0,.51,1.28H943.2l-23.27-1.28m0,0,23.27,1.28L943,84.85h-23m0,0,23.27,1.28L943,84.85h-23m-80.75.59-.09,1.2h23.28l-23.19-1.2m0,0-.09,1.2h23.28l-23.19-1.2m0,0,23.19,1.2.09-1.2H839.18m0,0,23.19,1.2.09-1.2H839.18m-.09,1.2L839,87h23.36l-23.28-.34m0,0L839,87h23.36l-23.28-.34m0,0,23.28.34v-.34H839.09m0,0,23.28.34v-.34H839.09m81.35-.51.42,1.28h22.6l-23-1.28m0,0,.42,1.28h22.6l-23-1.28m0,0,23,1.28-.26-1.28H920.44m0,0,23,1.28-.26-1.28H920.44m.42,1.28.09.08h22.51l-22.6-.08m0,0,.09.08h22.51l-22.6-.08m0,0,22.6.08v-.08h-22.6m0,0,22.6.08v-.08h-22.6M839,87v.94h23.36L839,87m0,0v.94h23.36L839,87m0,0,23.36.94V87H839m0,0,23.36.94V87H839m81.94.51.34,1.28h22.34L921,87.49m0,0,.34,1.28h22.34L921,87.49m0,0,22.68,1.28-.17-1.28H921m0,0,22.68,1.28-.17-1.28H921M839,87.92v1.36h23.36L839,87.92m0,0v1.36h23.36L839,87.92m0,0,23.36,1.36V87.92H839m0,0,23.36,1.36V87.92H839m0,1.36v.17h23.36L839,89.28m0,0v.17h23.36L839,89.28m0,0,23.36.17v-.17H839m0,0,23.36.17v-.17H839m82.28-.51.34,1.45H943.8l-22.51-1.45m0,0,.34,1.45H943.8l-22.51-1.45m0,0,22.51,1.45-.17-1.45H921.29m0,0,22.51,1.45-.17-1.45H921.29m.34,1.45v.08H943.8l-22.17-.08m0,0v.08H943.8l-22.17-.08m0,0,22.17.08v-.08H921.63m0,0,22.17.08v-.08H921.63M839,89.45v1.2h23.53L839,89.45m0,0v1.2h23.53L839,89.45m0,0,23.53,1.2-.17-1.2H839m0,0,23.53,1.2-.17-1.2H839m82.62.85.17,1.45H944L921.63,90.3m0,0,.17,1.45H944L921.63,90.3m0,0L944,91.75l-.17-1.45H921.63m0,0L944,91.75l-.17-1.45H921.63M839,90.65l.08,1.27h23.79L839,90.65m0,0,.08,1.27h23.79L839,90.65m0,0,23.87,1.27-.34-1.27H839m0,0,23.87,1.27-.34-1.27H839m.08,1.27v.69h24l-24-.69m0,0v.69h24l-24-.69m0,0,24,.69-.17-.69H839.09m0,0,24,.69-.17-.69H839.09m0,.69v.51h24.13l-24.13-.51m0,0v.51h24.13l-24.13-.51m0,0,24.13.51-.17-.51h-24m0,0,24.13.51-.17-.51h-24m82.71-.86.17,1.54h22.09L921.8,91.75m0,0,.17,1.54h22.09L921.8,91.75m0,0,22.26,1.54L944,91.75H921.8m0,0,22.26,1.54L944,91.75H921.8m-82.71,1.37.17,1.19h24.48l-24.65-1.19m0,0,.17,1.19h24.48l-24.65-1.19m0,0,24.65,1.19-.52-1.19H839.09m0,0,24.65,1.19-.52-1.19H839.09m.17,1.19.09,1.11h25l-25.07-1.11m0,0,.09,1.11h25l-25.07-1.11m0,0,25.07,1.11-.59-1.11H839.26m0,0,25.07,1.11-.59-1.11H839.26m.09,1.11v.17h25.07l-25.07-.17m0,0v.17h25.07l-25.07-.17m0,0,25.07.17-.09-.17h-25m0,0,25.07.17-.09-.17h-25m0,.17.17.94H865l-25.67-.94m0,0,.17.94H865l-25.67-.94m0,0,25.67.94-.6-.94H839.35m0,0,25.67.94-.6-.94H839.35m.17.94.26,1.11h26l-26.26-1.11m0,0,.26,1.11h26l-26.26-1.11m0,0,26.26,1.11L865,96.53h-25.5m0,0,26.26,1.11L865,96.53h-25.5m.26,1.11.08.76h26.69l-26.77-.76m0,0,.08.76h26.69l-26.77-.76m0,0,26.77.76-.77-.76h-26m0,0,26.77.76-.77-.76h-26m.08.76.77,2.56H869L839.86,98.4m0,0,.77,2.56H869L839.86,98.4m0,0L869,101l-2.47-2.56H839.86m0,0L869,101l-2.47-2.56H839.86m.77,2.56.43,1.2h29.07l-29.5-1.2m0,0,.43,1.2h29.07l-29.5-1.2m0,0,29.5,1.2L869,101H840.63m0,0,29.5,1.2L869,101H840.63m.43,1.2.42,1.28h30l-30.44-1.28m0,0,.42,1.28h30l-30.44-1.28m0,0,30.44,1.28-1.37-1.28H841.06m0,0,30.44,1.28-1.37-1.28H841.06m.42,1.28,1.11,2.21h31.29l-32.4-2.21m0,0,1.11,2.21h31.29l-32.4-2.21m0,0,32.4,2.21-2.38-2.21h-30m0,0,32.4,2.21-2.38-2.21h-30m1.11,2.21.51.86h31.64l-32.15-.86m0,0,.51.86h31.64l-32.15-.86m0,0,32.15.86-.86-.86H842.59m0,0,32.15.86-.86-.86H842.59m.51.86.85,1.27h32.24l-33.09-1.27m0,0,.85,1.27h32.24l-33.09-1.27m0,0,33.09,1.27-1.45-1.27H843.1m0,0,33.09,1.27-1.45-1.27H843.1m.85,1.27,1.54,1.88H878.4L844,107.78m0,0,1.54,1.88H878.4L844,107.78m0,0,34.45,1.88-2.21-1.88H844m0,0,34.45,1.88-2.21-1.88H844m1.54,1.88.85.94h33.17l-34-.94m0,0,.85.94h33.17l-34-.94m0,0,34,.94-1.11-.94H845.49m0,0,34,.94-1.11-.94H845.49m.85.94,1.54,1.62h33.59l-35.13-1.62m0,0,1.54,1.62h33.59l-35.13-1.62m0,0,35.13,1.62-2-1.62H846.34m0,0,35.13,1.62-2-1.62H846.34m1.54,1.62,2.73,2.3h33.85l-36.58-2.3m0,0,2.73,2.3h33.85l-36.58-2.3m0,0,36.58,2.3-3-2.3H847.88m0,0,36.58,2.3-3-2.3H847.88M905,131.57l3.92,1.54h37.26L905,131.57m0,0,3.92,1.54h37.26L905,131.57m0,0,41.18,1.54-1-1.54H905m0,0,41.18,1.54-1-1.54H905m3.92,1.54.34.17h37l-37.34-.17m0,0,.34.17h37l-37.34-.17m0,0,37.34.17-.08-.17H908.93m0,0,37.34.17-.08-.17H908.93m.34.17,3.58,1.62h34.28l-37.86-1.62m0,0,3.58,1.62h34.28l-37.86-1.62m0,0,37.86,1.62-.86-1.62h-37m0,0,37.86,1.62-.86-1.62h-37m3.58,1.62V135h34.28l-34.28-.08m0,0V135h34.28l-34.28-.08m0,0,34.28.08v-.08H912.85m0,0,34.28.08v-.08H912.85m0,.08,3.24,1.71h31.8l-35-1.71m0,0,3.24,1.71h31.8l-35-1.71m0,0,35,1.71-.76-1.71H912.85m0,0,35,1.71-.76-1.71H912.85m3.24,1.71.51.26H948l-31.89-.26m0,0,.51.26H948l-31.89-.26m0,0L948,137l-.09-.26h-31.8m0,0L948,137l-.09-.26h-31.8m.51.26,2.56,1.62h29.42l-32-1.62m0,0,2.56,1.62h29.42l-32-1.62m0,0,32,1.62L948,137H916.6m0,0,32,1.62L948,137H916.6m2.56,1.62,1,.68h28.57l-29.59-.68m0,0,1,.68h28.57l-29.59-.68m0,0,29.59.68-.17-.68H919.16m0,0,29.59.68-.17-.68H919.16m1,.68,1.54,1.19h27.37l-28.91-1.19m0,0,1.54,1.19h27.37l-28.91-1.19m0,0,28.91,1.19-.34-1.19H920.18m0,0,28.91,1.19-.34-1.19H920.18m1.54,1.19.17.09h27.2l-27.37-.09m0,0,.17.09h27.2l-27.37-.09m0,0,27.37.09v-.09H921.72m0,0,27.37.09v-.09H921.72m.17.09,1.11,1.19h26.34l-27.45-1.19m0,0,1.11,1.19h26.34l-27.45-1.19m0,0,27.45,1.19-.25-1.19h-27.2m0,0,27.45,1.19-.25-1.19h-27.2m1.11,1.19.76.85h25.75L923,141.72m0,0,.76.85h25.75L923,141.72m0,0,26.51.85-.17-.85H923m0,0,26.51.85-.17-.85H923m.76.85.34.6h25.5l-25.84-.6m0,0,.34.6h25.5l-25.84-.6m0,0,25.84.6-.09-.6H923.76m0,0,25.84.6-.09-.6H923.76m.34.6.94,1.53h24.73l-25.67-1.53m0,0,.94,1.53h24.73l-25.67-1.53m0,0,25.67,1.53-.17-1.53H924.1m0,0,25.67,1.53-.17-1.53H924.1m.94,1.53.09.09h24.64L925,144.7m0,0,.09.09h24.64L925,144.7m0,0,24.73.09v-.09H925m0,0,24.73.09v-.09H925m.09.09.68,1.62h24.13l-24.81-1.62m0,0,.68,1.62h24.13l-24.81-1.62m0,0,24.81,1.62-.17-1.62H925.13m0,0,24.81,1.62-.17-1.62H925.13m.68,1.62.17.6h24l-24.13-.6m0,0,.17.6h24l-24.13-.6m0,0,24.13.6v-.6H925.81m0,0,24.13.6v-.6H925.81m-89.7-.17.17,1.79h22l-22.17-1.79m0,0,.17,1.79h22l-22.17-1.79m0,0L858.28,148l-.09-1.79H836.11m0,0L858.28,148l-.09-1.79H836.11M926,147l.26,1.19H950L926,147m0,0,.26,1.19H950L926,147m0,0,24,1.19-.09-1.19H926m0,0,24,1.19-.09-1.19H926m-89.7,1v1.28h22.17L836.28,148m0,0v1.28h22.17L836.28,148m0,0,22.17,1.28-.17-1.28h-22m0,0,22.17,1.28-.17-1.28h-22m90,.17.25,1.19H950l-23.79-1.19m0,0,.25,1.19H950l-23.79-1.19m0,0L950,149.39V148.2H926.24m0,0L950,149.39V148.2H926.24m-90,1.11.09.42h22.08l-22.17-.42m0,0,.09.42h22.08l-22.17-.42m0,0,22.17.42v-.42H836.28m0,0,22.17.42v-.42H836.28m90.21.08.09.77H950l-23.54-.77m0,0,.09.77H950l-23.54-.77m0,0,23.54.77v-.77H926.49m0,0,23.54.77v-.77H926.49m-90.12.34.17,1.62h22.25l-22.42-1.62m0,0,.17,1.62h22.25l-22.42-1.62m0,0,22.42,1.62-.34-1.62H836.37m0,0,22.42,1.62-.34-1.62H836.37m90.21.43.08,2.05h23.28l-23.36-2.05m0,0,.08,2.05h23.28l-23.36-2.05m0,0,23.36,2.05.09-2.05H926.58m0,0,23.36,2.05.09-2.05H926.58m-90,1.19.08.86H859l-22.42-.86m0,0,.08.86H859l-22.42-.86m0,0,22.42.86-.17-.86H836.54m0,0,22.42.86-.17-.86H836.54m90.12.86v.17h23.28l-23.28-.17m0,0v.17h23.28l-23.28-.17m0,0,23.28.17v-.17H926.66m0,0,23.28.17v-.17H926.66m-90,0,.17.77h22.34l-22.51-.77m0,0,.17.77h22.34l-22.51-.77m0,0,22.51.77-.17-.77H836.62m0,0,22.51.77-.17-.77H836.62m90,.17v1.36h23.19l-23.19-1.36m0,0v1.36h23.19l-23.19-1.36m0,0,23.19,1.36.09-1.36H926.66m0,0,23.19,1.36.09-1.36H926.66m-89.87.6.17,1.53h22.68L836.79,153m0,0,.17,1.53h22.68L836.79,153m0,0,22.85,1.53-.51-1.53H836.79m0,0,22.85,1.53-.51-1.53H836.79m.17,1.53.17.6h22.68l-22.85-.6m0,0,.17.6h22.68l-22.85-.6m0,0,22.85.6-.17-.6H837m0,0,22.85.6-.17-.6H837m89.7-.77-.17,1.45h23.19l-23-1.45m0,0-.17,1.45h23.19l-23-1.45m0,0,23,1.45.17-1.45H926.66m0,0,23,1.45.17-1.45H926.66m-.17,1.45h0m0,0h0m0,0h0m0,0h0m-89.36-.08.17.76h22.86l-23-.76m0,0,.17.76h22.86l-23-.76m0,0,23,.76-.35-.76H837.13m0,0,23,.76-.35-.76H837.13m89.36.08-.25,1.37h23.27l-23-1.37m0,0-.25,1.37h23.27l-23-1.37m0,0,23,1.37.17-1.37H926.49m0,0,23,1.37.17-1.37H926.49m-89.19.68.26,1.37h23.28l-23.54-1.37m0,0,.26,1.37h23.28l-23.54-1.37m0,0,23.54,1.37-.68-1.37H837.3m0,0,23.54,1.37-.68-1.37H837.3m.26,1.37.08.51h23.45l-23.53-.51m0,0,.08.51h23.45l-23.53-.51m0,0,23.53.51-.25-.51H837.56m0,0,23.53.51-.25-.51H837.56m88.68-.68-.34,1.36h23.44l-23.1-1.36m0,0-.34,1.36h23.44l-23.1-1.36m0,0,23.1,1.36.17-1.36H926.24m0,0,23.1,1.36.17-1.36H926.24m-.34,1.36h0m0,0h0m0,0h0m0,0h0m-88.26-.17.26.85h23.62l-23.88-.85m0,0,.26.85h23.62l-23.88-.85m0,0,23.88.85-.43-.85H837.64m0,0,23.88.85-.43-.85H837.64m88.26.17-.43,1.19h23.62l-23.19-1.19m0,0-.43,1.19h23.62l-23.19-1.19m0,0,23.19,1.19.25-1.19H925.9m0,0,23.19,1.19.25-1.19H925.9m-88,.68.34,1.2h24.13l-24.47-1.2m0,0,.34,1.2h24.13l-24.47-1.2m0,0,24.47,1.2-.85-1.2H837.9m0,0,24.47,1.2-.85-1.2H837.9m87.57.51-.51,1.2h23.87l-23.36-1.2m0,0-.51,1.2h23.87l-23.36-1.2m0,0,23.36,1.2.26-1.2H925.47m0,0,23.36,1.2.26-1.2H925.47m-87.23.69.17.59H862.8l-24.56-.59m0,0,.17.59H862.8l-24.56-.59m0,0,24.56.59-.43-.59H838.24m0,0,24.56.59-.43-.59H838.24m86.72.51-.17.25h24L925,160.31m0,0-.17.25h24L925,160.31m0,0,23.79.25.08-.25H925m0,0,23.79.25.08-.25H925m-86.55.08.17.6h24.64l-24.81-.6m0,0,.17.6h24.64l-24.81-.6m0,0,24.81.6-.42-.6H838.41m0,0,24.81.6-.42-.6H838.41m86.38.17-.51.86h24.21l-23.7-.86m0,0-.51.86h24.21l-23.7-.86m0,0,23.7.86.26-.86h-24m0,0,23.7.86.26-.86h-24m-86.21.43.43,1.11h25.15L838.58,161m0,0,.43,1.11h25.15L838.58,161m0,0,25.58,1.11-.94-1.11H838.58m0,0,25.58,1.11-.94-1.11H838.58m85.7.43-.69,1h24.64l-24-1m0,0-.69,1h24.64l-24-1m0,0,24,1,.26-1H924.28m0,0,24,1,.26-1H924.28M839,162.1l.25.68h25.58L839,162.1m0,0,.25.68h25.58L839,162.1m0,0,25.83.68-.68-.68H839m0,0,25.83.68-.68-.68H839m84.58.34-.51.51h25l-24.47-.51m0,0-.51.51h25l-24.47-.51m0,0,24.47.51.17-.51H923.59m0,0,24.47.51.17-.51H923.59m-84.33.34.09.34h25.84l-25.93-.34m0,0,.09.34h25.84l-25.93-.34m0,0,25.93.34-.35-.34H839.26m0,0,25.93.34-.35-.34H839.26m.09.34.43.94h26.43l-26.86-.94m0,0,.43.94h26.43l-26.86-.94m0,0,26.86.94-1-.94H839.35m0,0,26.86.94-1-.94H839.35m83.73-.17-1.19,1.45h25.66L923.08,163m0,0-1.19,1.45h25.66L923.08,163m0,0,24.47,1.45.51-1.45h-25m0,0,24.47,1.45.51-1.45h-25m-83.3,1.11.34.94h27.2l-27.54-.94m0,0,.34.94h27.2l-27.54-.94m0,0,27.54.94-1.11-.94H839.78m0,0,27.54.94-1.11-.94H839.78m.34.94.08.17h27.37L840.12,165m0,0,.08.17h27.37L840.12,165m0,0,27.45.17-.25-.17h-27.2m0,0,27.45.17-.25-.17h-27.2m81.77-.6-1.11.94h26.43l-25.32-.94m0,0-1.11.94h26.43l-25.32-.94m0,0,25.32.94.34-.94H921.89m0,0,25.32.94.34-.94H921.89m-81.69.77.34.68h28l-28.31-.68m0,0,.34.68h28l-28.31-.68m0,0,28.31.68-.94-.68H840.2m0,0,28.31.68-.94-.68H840.2m80.58.17L920,166h26.86l-26.09-.68m0,0L920,166h26.86l-26.09-.68m0,0,26.09.68.34-.68H920.78m0,0,26.09.68.34-.68H920.78m-80.24.51.43.77H869.7l-29.16-.77m0,0,.43.77H869.7l-29.16-.77m0,0,29.16.77-1.19-.77h-28m0,0,29.16.77-1.19-.77h-28m.43.77.34.76h29.84L841,166.62m0,0,.34.76h29.84L841,166.62m0,0,30.18.76-1.45-.76H841m0,0,30.18.76-1.45-.76H841m79-.6-2,1.36h28.22L920,166m0,0-2,1.36h28.22L920,166m0,0,26.18,1.36.68-1.36H920m0,0,26.18,1.36.68-1.36H920m-2,1.36-.26.18h28.48L918,167.38m0,0-.26.18h28.48L918,167.38m0,0,28.22.18v-.18H918m0,0,28.22.18v-.18H918m-76.66,0,.34.6h30.7l-31-.6m0,0,.34.6h30.7l-31-.6m0,0,31,.6-1.2-.6H841.31m0,0,31,.6-1.2-.6H841.31m76.4.18-2.05,1h29.93l-27.88-1m0,0-2.05,1h29.93l-27.88-1m0,0,27.88,1,.6-1H917.71m0,0,27.88,1,.6-1H917.71m-76.06.42.68,1.2h32.75L841.65,168m0,0,.68,1.2h32.75L841.65,168m0,0,33.43,1.2-2.73-1.2h-30.7m0,0,33.43,1.2-2.73-1.2h-30.7m.68,1.2.18.34H876.1l-33.77-.34m0,0,.18.34H876.1l-33.77-.34m0,0,33.77.34-1-.34H842.33m0,0,33.77.34-1-.34H842.33m73.33-.6-2.47.94H945l-29.33-.94m0,0-2.47.94H945l-29.33-.94m0,0,29.33.94.6-.94H915.66m0,0,29.33.94.6-.94H915.66m-2.47.94-.26.08H945l-31.8-.08m0,0-.26.08H945l-31.8-.08m0,0,31.8.08v-.08h-31.8m0,0,31.8.08v-.08h-31.8m-70.68,0,.42.59h35.13l-35.55-.59m0,0,.42.59h35.13l-35.55-.59m0,0,35.55.59-2-.59H842.51m0,0,35.55.59-2-.59H842.51m70.42.08-2.3.68h33.85l-31.55-.68m0,0-2.3.68h33.85l-31.55-.68m0,0,31.55.68.51-.68H912.93m0,0,31.55.68.51-.68H912.93m-70,.51.51.77h37.69l-38.2-.77m0,0,.51.77h37.69l-38.2-.77m0,0,38.2.77-3.07-.77H842.93m0,0,38.2.77-3.07-.77H842.93m67.7.17-2.73.69h36.16l-33.43-.69m0,0-2.73.69h36.16l-33.43-.69m0,0,33.43.69.42-.69H910.63m0,0,33.43.69.42-.69H910.63m-2.73.69-2.72.42H943.8L907.9,171m0,0-2.72.42H943.8L907.9,171m0,0,35.9.42.26-.42H907.9m0,0,35.9.42.26-.42H907.9m-64.46-.09.34.6h40.59l-40.93-.6m0,0,.34.6h40.59l-40.93-.6m0,0,40.93.6-3.24-.6H843.44m0,0,40.93.6-3.24-.6H843.44m.34.6.09.08h41l-41.1-.08m0,0,.09.08h41l-41.1-.08m0,0,41.1.08-.51-.08H843.78m0,0,41.1.08-.51-.08H843.78m61.4-.09-1.28.17h39.73l-38.45-.17m0,0-1.28.17h39.73l-38.45-.17m0,0,38.45.17.17-.17H905.18m0,0,38.45.17.17-.17H905.18m-1.28.17-1.54.17h41.19l-39.65-.17m0,0-1.54.17h41.19l-39.65-.17m0,0,39.65.17.08-.17H903.9m0,0,39.65.17.08-.17H903.9m-60,0,.26.34h43.48l-43.74-.34m0,0,.26.34h43.48l-43.74-.34m0,0,43.74.34-2.73-.34h-41m0,0,43.74.34-2.73-.34h-41m58.49.17-2.81.26h43.74l-40.93-.26m0,0-2.81.26h43.74l-40.93-.26m0,0,40.93.26.26-.26H902.36m0,0,40.93.26.26-.26H902.36m-58.23.17.17.17h46.64l-46.81-.17m0,0,.17.17h46.64l-46.81-.17m0,0,46.81.17-3.33-.17H844.13m0,0,46.81.17-3.33-.17H844.13m55.42.09-2.65.17h46.3L899.55,172m0,0-2.65.17h46.3L899.55,172m0,0,43.65.17.09-.17H899.55m0,0,43.65.17.09-.17H899.55m-2.65.17h0m0,0h0m0,0h0m0,0h0m-52.6-.09v.09h50l-50-.09m0,0v.09h50l-50-.09m0,0,50,.09-3.32-.09H844.3m0,0,50,.09-3.32-.09H844.3m0,.09.93,1.28h97l-98-1.28m0,0,.93,1.28h97l-98-1.28m0,0,98,1.28.93-1.28H844.3m0,0,98,1.28.93-1.28H844.3m.93,1.28h0m0,0h0m0,0h0m0,0h0m0,0,1.45,1.79h94.05l-95.5-1.79m0,0,1.45,1.79h94.05l-95.5-1.79m0,0,95.5,1.79,1.54-1.79h-97m0,0,95.5,1.79,1.54-1.79h-97m1.45,1.79h0m0,0h0m0,0h0m0,0h0m.09,0,1.53,1.62h90.81l-92.34-1.62m0,0,1.53,1.62h90.81l-92.34-1.62m0,0,92.34,1.62,1.62-1.62h-94m0,0,92.34,1.62,1.62-1.62h-94m1.53,1.62.09.08H939l-90.73-.08m0,0,.09.08H939l-90.73-.08m0,0,90.73.08.08-.08H848.3m0,0,90.73.08.08-.08H848.3m.09.08,1.62,1.54h87.4l-89-1.54m0,0,1.62,1.54h87.4l-89-1.54m0,0,89,1.54,1.62-1.54H848.39m0,0,89,1.54,1.62-1.54H848.39m1.62,1.54.08.08h87.23L850,178.47m0,0,.08.08h87.23L850,178.47m0,0,87.31.08.09-.08H850m0,0,87.31.08.09-.08H850m.08.08,1.62,1.37h83.91l-85.53-1.37m0,0,1.62,1.37h83.91l-85.53-1.37m0,0,85.53,1.37,1.7-1.37H850.09m0,0,85.53,1.37,1.7-1.37H850.09m1.62,1.37.17.08h83.56l-83.73-.08m0,0,.17.08h83.56l-83.73-.08m0,0,83.73.08.18-.08H851.71m0,0,83.73.08.18-.08H851.71m.17.08,1.71,1.28h80.15L851.88,180m0,0,1.71,1.28h80.15L851.88,180m0,0,81.86,1.28,1.7-1.28H851.88m0,0,81.86,1.28,1.7-1.28H851.88m1.71,1.28.17.09h79.81l-80-.09m0,0,.17.09h79.81l-80-.09m0,0,80,.09.17-.09H853.59m0,0,80,.09.17-.09H853.59m.17.09,1.79,1.19h76.23l-78-1.19m0,0,1.79,1.19h76.23l-78-1.19m0,0,78,1.19,1.79-1.19H853.76m0,0,78,1.19,1.79-1.19H853.76m1.79,1.19.17.17h75.8l-76-.17m0,0,.17.17h75.8l-76-.17m0,0,76,.17.26-.17H855.55m0,0,76,.17.26-.17H855.55m.17.17,1.88,1h72l-73.93-1m0,0,1.88,1h72l-73.93-1m0,0,73.93,1,1.87-1h-75.8m0,0,73.93,1,1.87-1h-75.8m1.88,1,.17.08h71.62l-71.79-.08m0,0,.17.08h71.62l-71.79-.08m0,0,71.79.08.26-.08h-72m0,0,71.79.08.26-.08h-72m.17.08,2,1h67.79l-69.75-1m0,0,2,1h67.79l-69.75-1m0,0,69.75,1,1.87-1H857.77m0,0,69.75,1,1.87-1H857.77m2,1,.17.09h67.36l-67.53-.09m0,0,.17.09h67.36l-67.53-.09m0,0,67.53.09.26-.09H859.73m0,0,67.53.09.26-.09H859.73m.17.09,2,.94H925.3L859.9,185m0,0,2,.94H925.3L859.9,185m0,0,65.4.94,2-.94H859.9m0,0,65.4.94,2-.94H859.9m2,.94.26.08H925l-63.18-.08m0,0,.26.08H925l-63.18-.08m0,0L925,186l.26-.08H861.86m0,0L925,186l.26-.08H861.86m.26.08,2,.77h59l-61-.77m0,0,2,.77h59l-61-.77m0,0,61,.77,2-.77H862.12m0,0,61,.77,2-.77H862.12m2,.77.34.17h58.24l-58.58-.17m0,0,.34.17h58.24l-58.58-.17m0,0,58.58.17.42-.17h-59m0,0,58.58.17.42-.17h-59m.34.17,2,.68h54.31l-56.27-.68m0,0,2,.68h54.31l-56.27-.68m0,0,56.27.68,2-.68H864.42m0,0,56.27.68,2-.68H864.42m2,.68.34.09h53.55l-53.89-.09m0,0,.34.09h53.55l-53.89-.09m0,0,53.89.09.42-.09H866.38m0,0,53.89.09.42-.09H866.38m.34.09,2,.6h49.63l-51.59-.6m0,0,2,.6h49.63l-51.59-.6m0,0,51.59.6,2-.6H866.72m0,0,51.59.6,2-.6H866.72m2,.6.51.17h48.6l-49.11-.17m0,0,.51.17h48.6l-49.11-.17m0,0,49.11.17.52-.17H868.68m0,0,49.11.17.52-.17H868.68m.51.17,1.88.51h44.76l-46.64-.51m0,0,1.88.51h44.76l-46.64-.51m0,0,46.64.51,2-.51h-48.6m0,0,46.64.51,2-.51h-48.6m1.88.51.6.08h43.48L871.07,189m0,0,.6.08h43.48L871.07,189m0,0,44.08.08.68-.08H871.07m0,0,44.08.08.68-.08H871.07m.6.08,2,.43h39.73L871.67,189m0,0,2,.43h39.73L871.67,189m0,0,41.69.43,1.79-.43H871.67m0,0,41.69.43,1.79-.43H871.67m2,.43,3.15.6h32.74l-35.89-.6m0,0,3.15.6h32.74l-35.89-.6m0,0,35.89.6,3.84-.6H873.63m0,0,35.89.6,3.84-.6H873.63m3.15.6,1.62.25h29.76l-31.38-.25m0,0,1.62.25h29.76l-31.38-.25m0,0,31.38.25,1.36-.25H876.78m0,0,31.38.25,1.36-.25H876.78m1.62.25,3.67.51H903.9l-25.5-.51m0,0,3.67.51H903.9l-25.5-.51m0,0,25.5.51,4.26-.51H878.4m0,0,25.5.51,4.26-.51H878.4m3.67.51,1.19.09h19.87l-21.06-.09m0,0,1.19.09h19.87l-21.06-.09m0,0,21.06.09.77-.09H882.07m0,0,21.06.09.77-.09H882.07m1.19.09,4.18.34h10.91l-15.09-.34m0,0,4.18.34h10.91l-15.09-.34m0,0,15.09.34,4.78-.34H883.26m0,0,15.09.34,4.78-.34H883.26m5.12.34,4.6.17,5-.17h-9.63m0,0,4.6.17,5-.17h-9.63m-.94,0h0m0,0h0m0,0h0m0,0h0"/></svg>