<svg id="_0" data-name="0" xmlns="http://www.w3.org/2000/svg" viewBox="0 0 464.65 93.12"><defs><style>.cls-1,.cls-2{fill:#fff;}.cls-2{stroke:#231f20;stroke-width:0.66px;}</style></defs><path class="cls-1" d="M120.41,130.81h11.48V101H120.41Zm30.41-56.28c1.09.09,2.22.21,3.4.38V62.67a15.36,15.36,0,0,0-1.76-.13h-1.64a23.5,23.5,0,0,0-11.68,3.35,19.12,19.12,0,0,0-7.5,8.89V62.92H120.41V92.76H132c.26-6.2,1.57-10.73,3.91-13.56q4-4.8,11.93-4.79,1.38,0,3,.12" transform="translate(-60.77 -39.33)"/><path class="cls-1" d="M174.78,101v12.8a44.18,44.18,0,0,0,.69,8.65,10.3,10.3,0,0,0,2.46,5.17,9.42,9.42,0,0,0,4.86,2.52,37.18,37.18,0,0,0,8,.7h8.33v-9.59h-5.8a15.65,15.65,0,0,1-3.91-.38,3.54,3.54,0,0,1-2.09-1.39,5.93,5.93,0,0,1-.88-2.71,39.85,39.85,0,0,1-.19-4.35V101Zm11.48-28.84h12.87V62.92H186.26v-17H174.78v17H164.05v9.21h10.73V92.76h11.48Z" transform="translate(-60.77 -39.33)"/><path class="cls-1" d="M286.85,101a38.73,38.73,0,0,0,2.56,11.79,30.71,30.71,0,0,0,7.26,11A29.23,29.23,0,0,0,307,130.11a34.72,34.72,0,0,0,23.73,0,29.32,29.32,0,0,0,10.34-6.37,30.71,30.71,0,0,0,7.26-11A38.73,38.73,0,0,0,350.9,101H338.62a31.2,31.2,0,0,1-1.39,7.19,22.44,22.44,0,0,1-4.29,7.82,17.12,17.12,0,0,1-6.37,4.61,19.91,19.91,0,0,1-7.7,1.51,21.39,21.39,0,0,1-7.69-1.39,16,16,0,0,1-6.37-4.41,21.71,21.71,0,0,1-4.29-7.83,32.09,32.09,0,0,1-1.4-7.5Zm64-8.21A38.79,38.79,0,0,0,348.34,81a30.71,30.71,0,0,0-7.26-11,29.32,29.32,0,0,0-10.34-6.37,34.72,34.72,0,0,0-23.73,0A29.23,29.23,0,0,0,296.67,70a30.71,30.71,0,0,0-7.26,11,38.79,38.79,0,0,0-2.56,11.79h12.26a32.73,32.73,0,0,1,1.41-7.63,21.66,21.66,0,0,1,4.29-7.82A15.59,15.59,0,0,1,311.18,73a22.48,22.48,0,0,1,7.69-1.32,21.41,21.41,0,0,1,7.7,1.39,16.08,16.08,0,0,1,6.37,4.41,21.71,21.71,0,0,1,4.29,7.83,32.61,32.61,0,0,1,1.4,7.5Z" transform="translate(-60.77 -39.33)"/><path class="cls-1" d="M364.81,130.81h11.48V101H364.81Zm30.4-56.28c1.1.09,2.23.21,3.41.38V62.67a15.36,15.36,0,0,0-1.76-.13h-1.65a23.46,23.46,0,0,0-11.67,3.35,19.12,19.12,0,0,0-7.5,8.89V62.92H364.81V92.76h11.53c.27-6.2,1.57-10.73,3.92-13.56q4-4.8,11.93-4.79c.92,0,1.93,0,3,.12" transform="translate(-60.77 -39.33)"/><path class="cls-1" d="M479.74,108.85H467.62a26.85,26.85,0,0,0,2.59,8.71,24.06,24.06,0,0,0,5.8,7.57,28.85,28.85,0,0,0,9.09,5.3,34.49,34.49,0,0,0,12.18,2,42.27,42.27,0,0,0,11.16-1.39,27.4,27.4,0,0,0,8.9-4.1,19.91,19.91,0,0,0,5.93-6.62,18.35,18.35,0,0,0,2.14-9,17,17,0,0,0-1.89-8.33,17.44,17.44,0,0,0-1.38-2.08H502.19s2.11.87,3.81,1.6a24.09,24.09,0,0,1,4.06,2.43,11.13,11.13,0,0,1,2.61,3.22,8.4,8.4,0,0,1,1.13,4.42q0,4.8-4.66,7.44a23.24,23.24,0,0,1-11.61,2.65q-7.95,0-12.18-3.66a17.88,17.88,0,0,1-5.61-10.22m32.8-26.12h12a24.12,24.12,0,0,0-8.71-15.39q-7.07-5.69-18.54-5.68a44.74,44.74,0,0,0-10.86,1.26,28.17,28.17,0,0,0-8.77,3.72,19.27,19.27,0,0,0-5.86,5.94,14.82,14.82,0,0,0-2.15,8,17,17,0,0,0,1.7,8,16.21,16.21,0,0,0,3.14,4.16H494a40.77,40.77,0,0,1-7-3.32,22.77,22.77,0,0,1-3.1-2.52,9.84,9.84,0,0,1-2.61-6.84,6,6,0,0,1,1.33-3.91,10.35,10.35,0,0,1,3.4-2.71,16.11,16.11,0,0,1,4.73-1.52,32.77,32.77,0,0,1,5.3-.44,20.85,20.85,0,0,1,10.79,2.59c2.9,1.72,4.82,4.61,5.74,8.64" transform="translate(-60.77 -39.33)"/><polygon class="cls-1" points="194.78 53.44 186.76 23.6 174.9 23.6 166.88 53.44 176.17 53.44 180.58 36.84 185.14 53.44 194.78 53.44"/><polygon class="cls-1" points="146.09 61.64 154.11 91.48 165.97 91.48 174 61.64 164.7 61.64 160.29 78.23 155.73 61.64 146.09 61.64"/><polygon class="cls-1" points="187.38 61.64 195.41 91.48 207.27 91.48 215.29 61.64 206 61.64 201.59 78.23 197.03 61.64 187.38 61.64"/><polygon class="cls-1" points="38.67 53.44 30.65 23.6 18.79 23.6 10.77 53.44 20.06 53.44 24.46 36.84 29.02 53.44 38.67 53.44"/><polygon class="cls-1" points="31.27 61.64 39.3 91.48 49.16 91.48 45.48 78.23 40.92 61.64 31.27 61.64"/><polygon class="cls-1" points="8.24 61.64 3.68 78.23 0 91.48 9.86 91.48 17.88 61.64 8.24 61.64"/><path class="cls-1" d="M433.13,101" transform="translate(-60.77 -39.33)"/><path class="cls-2" d="M433.13,101" transform="translate(-60.77 -39.33)"/><path class="cls-1" d="M424.24,101" transform="translate(-60.77 -39.33)"/><path class="cls-2" d="M424.24,101" transform="translate(-60.77 -39.33)"/><path class="cls-1" d="M409.11,101v29.84H420.6V108.1l0-7.13Zm23.51,0,18.13,29.84h13.51L445.65,101Zm-23.51-8.21H420.6V39.33H409.11Z" transform="translate(-60.77 -39.33)"/><polygon class="cls-1" points="379.79 49.59 403.77 23.6 389.63 23.6 362.88 53.44 376.38 53.44 379.79 49.59"/></svg>