<svg id="Layer_4" data-name="Layer 4" xmlns="http://www.w3.org/2000/svg" viewBox="0 0 609.89 324.59"><defs><style>.cls-1{font-size:6.19px;}.cls-1,.cls-2,.cls-3,.cls-4,.cls-5,.cls-6,.cls-7,.cls-9{fill:#3953a4;}.cls-1,.cls-2,.cls-3,.cls-4,.cls-5,.cls-6{font-family:SuisseIntl, Suisse Intl;}.cls-2{font-size:6.19px;}.cls-3{font-size:6.19px;}.cls-4{font-size:6.19px;}.cls-5{font-size:6.19px;}.cls-6{font-size:6.19px;}.cls-10,.cls-8{fill:none;}.cls-8{stroke:#3953a4;stroke-width:1.02px;}.cls-10,.cls-9{font-size:5.75px;font-family:SuisseIntlMono, Suisse Intl Mono;}.cls-10{stroke:#fff;stroke-miterlimit:2.56;stroke-width:1.28px;}</style></defs><text class="cls-1" transform="translate(212.34 112.04) rotate(-4.22)"> </text><text class="cls-2" transform="matrix(1, -0.05, 0.05, 1, 214.11, 111.91)"> </text><text class="cls-3" transform="translate(216 111.84) rotate(0.12)"> </text><text class="cls-4" transform="translate(217.89 111.87) rotate(3.02)"> </text><text class="cls-5" transform="translate(219.78 111.99) rotate(5.93)"> </text><text class="cls-6" transform="matrix(0.99, 0.15, -0.15, 0.99, 221.66, 112.2)"> </text><path class="cls-7" d="M692,406.33a3.79,3.79,0,1,0-3.45-4.11,3.79,3.79,0,0,0,3.45,4.11" transform="translate(-183.8 -290.18)"/><path class="cls-8" d="M692,406.33a3.79,3.79,0,1,0-3.45-4.11A3.79,3.79,0,0,0,692,406.33Z" transform="translate(-183.8 -290.18)"/><path class="cls-7" d="M698.16,515a3.79,3.79,0,1,0-3.45-4.11,3.78,3.78,0,0,0,3.45,4.11" transform="translate(-183.8 -290.18)"/><path class="cls-8" d="M698.16,515a3.79,3.79,0,1,0-3.45-4.11A3.78,3.78,0,0,0,698.16,515Z" transform="translate(-183.8 -290.18)"/><path class="cls-7" d="M395.82,448.14a3.8,3.8,0,1,0-3.86-3.73,3.81,3.81,0,0,0,3.86,3.73" transform="translate(-183.8 -290.18)"/><path class="cls-8" d="M395.82,448.14a3.8,3.8,0,1,0-3.86-3.73A3.81,3.81,0,0,0,395.82,448.14Z" transform="translate(-183.8 -290.18)"/><path class="cls-7" d="M401.44,353.05a3.79,3.79,0,1,0-2.84-4.55,3.79,3.79,0,0,0,2.84,4.55" transform="translate(-183.8 -290.18)"/><path class="cls-8" d="M401.44,353.05a3.79,3.79,0,1,0-2.84-4.55A3.79,3.79,0,0,0,401.44,353.05Z" transform="translate(-183.8 -290.18)"/><path class="cls-7" d="M348.61,319.4a3.8,3.8,0,1,0-2.84-4.56,3.8,3.8,0,0,0,2.84,4.56" transform="translate(-183.8 -290.18)"/><path class="cls-8" d="M348.61,319.4a3.8,3.8,0,1,0-2.84-4.56A3.8,3.8,0,0,0,348.61,319.4Z" transform="translate(-183.8 -290.18)"/><path class="cls-7" d="M333.92,365.73a3.79,3.79,0,1,0-2.84-4.55,3.79,3.79,0,0,0,2.84,4.55" transform="translate(-183.8 -290.18)"/><path class="cls-8" d="M333.92,365.73a3.79,3.79,0,1,0-2.84-4.55A3.79,3.79,0,0,0,333.92,365.73Z" transform="translate(-183.8 -290.18)"/><path class="cls-7" d="M377.38,552.22a3.8,3.8,0,1,0-2.84-4.55,3.79,3.79,0,0,0,2.84,4.55" transform="translate(-183.8 -290.18)"/><path class="cls-8" d="M377.38,552.22a3.8,3.8,0,1,0-2.84-4.55A3.79,3.79,0,0,0,377.38,552.22Z" transform="translate(-183.8 -290.18)"/><path class="cls-7" d="M356.83,569.27a3.8,3.8,0,1,0-2.85-4.55,3.79,3.79,0,0,0,2.85,4.55" transform="translate(-183.8 -290.18)"/><path class="cls-8" d="M356.83,569.27a3.8,3.8,0,1,0-2.85-4.55A3.79,3.79,0,0,0,356.83,569.27Z" transform="translate(-183.8 -290.18)"/><path class="cls-7" d="M322.31,327.21a3.8,3.8,0,1,0-2.85-4.55,3.79,3.79,0,0,0,2.85,4.55" transform="translate(-183.8 -290.18)"/><path class="cls-8" d="M322.31,327.21a3.8,3.8,0,1,0-2.85-4.55A3.79,3.79,0,0,0,322.31,327.21Z" transform="translate(-183.8 -290.18)"/><path class="cls-7" d="M309,586.58a3.8,3.8,0,1,0-2.84-4.55,3.8,3.8,0,0,0,2.84,4.55" transform="translate(-183.8 -290.18)"/><path class="cls-8" d="M309,586.58a3.8,3.8,0,1,0-2.84-4.55A3.8,3.8,0,0,0,309,586.58Z" transform="translate(-183.8 -290.18)"/><path class="cls-7" d="M340.74,594.3a3.8,3.8,0,1,0-2.85-4.55,3.79,3.79,0,0,0,2.85,4.55" transform="translate(-183.8 -290.18)"/><path class="cls-8" d="M340.74,594.3a3.8,3.8,0,1,0-2.85-4.55A3.79,3.79,0,0,0,340.74,594.3Z" transform="translate(-183.8 -290.18)"/><path class="cls-7" d="M363.91,336.53a3.8,3.8,0,1,0-2.84-4.55,3.8,3.8,0,0,0,2.84,4.55" transform="translate(-183.8 -290.18)"/><path class="cls-8" d="M363.91,336.53a3.8,3.8,0,1,0-2.84-4.55A3.8,3.8,0,0,0,363.91,336.53Z" transform="translate(-183.8 -290.18)"/><path class="cls-7" d="M366.76,313.13a3.8,3.8,0,1,0-2.85-4.55,3.79,3.79,0,0,0,2.85,4.55" transform="translate(-183.8 -290.18)"/><path class="cls-8" d="M366.76,313.13a3.8,3.8,0,1,0-2.85-4.55A3.79,3.79,0,0,0,366.76,313.13Z" transform="translate(-183.8 -290.18)"/><path class="cls-7" d="M789.05,533a3.79,3.79,0,1,0-3.45-4.11,3.8,3.8,0,0,0,3.45,4.11" transform="translate(-183.8 -290.18)"/><path class="cls-8" d="M789.05,533a3.79,3.79,0,1,0-3.45-4.11A3.8,3.8,0,0,0,789.05,533Z" transform="translate(-183.8 -290.18)"/><path class="cls-7" d="M728.89,596.93a3.79,3.79,0,1,0-3.45-4.11,3.79,3.79,0,0,0,3.45,4.11" transform="translate(-183.8 -290.18)"/><path class="cls-8" d="M728.89,596.93a3.79,3.79,0,1,0-3.45-4.11A3.79,3.79,0,0,0,728.89,596.93Z" transform="translate(-183.8 -290.18)"/><path class="cls-7" d="M784.74,451.57a3.79,3.79,0,1,0-3.45-4.11,3.79,3.79,0,0,0,3.45,4.11" transform="translate(-183.8 -290.18)"/><path class="cls-8" d="M784.74,451.57a3.79,3.79,0,1,0-3.45-4.11A3.79,3.79,0,0,0,784.74,451.57Z" transform="translate(-183.8 -290.18)"/><path class="cls-7" d="M419.25,454.65a3.79,3.79,0,1,0-3.45-4.11,3.81,3.81,0,0,0,3.45,4.11" transform="translate(-183.8 -290.18)"/><path class="cls-8" d="M419.25,454.65a3.79,3.79,0,1,0-3.45-4.11A3.81,3.81,0,0,0,419.25,454.65Z" transform="translate(-183.8 -290.18)"/><path class="cls-7" d="M400.26,424.87a3.8,3.8,0,1,0-3.86-3.73,3.8,3.8,0,0,0,3.86,3.73" transform="translate(-183.8 -290.18)"/><path class="cls-8" d="M400.26,424.87a3.8,3.8,0,1,0-3.86-3.73A3.8,3.8,0,0,0,400.26,424.87Z" transform="translate(-183.8 -290.18)"/><path class="cls-7" d="M249.74,410.8a3.8,3.8,0,1,0-3.72,3.86,3.8,3.8,0,0,0,3.72-3.86" transform="translate(-183.8 -290.18)"/><path class="cls-8" d="M249.74,410.8a3.8,3.8,0,1,0-3.72,3.86A3.8,3.8,0,0,0,249.74,410.8Z" transform="translate(-183.8 -290.18)"/><path class="cls-7" d="M400.31,462.46a3.8,3.8,0,1,0-3.86-3.73,3.8,3.8,0,0,0,3.86,3.73" transform="translate(-183.8 -290.18)"/><path class="cls-8" d="M400.31,462.46a3.8,3.8,0,1,0-3.86-3.73A3.8,3.8,0,0,0,400.31,462.46Z" transform="translate(-183.8 -290.18)"/><path class="cls-7" d="M597.31,300.86a3.79,3.79,0,1,0-3.45-4.11,3.79,3.79,0,0,0,3.45,4.11" transform="translate(-183.8 -290.18)"/><path class="cls-8" d="M597.31,300.86a3.79,3.79,0,1,0-3.45-4.11A3.79,3.79,0,0,0,597.31,300.86Z" transform="translate(-183.8 -290.18)"/><path class="cls-7" d="M384.21,365.17a3.8,3.8,0,1,0-3.86-3.73,3.8,3.8,0,0,0,3.86,3.73" transform="translate(-183.8 -290.18)"/><path class="cls-8" d="M384.21,365.17a3.8,3.8,0,1,0-3.86-3.73A3.8,3.8,0,0,0,384.21,365.17Z" transform="translate(-183.8 -290.18)"/><path class="cls-7" d="M287,530.36a3.8,3.8,0,1,0-3.86-3.73,3.8,3.8,0,0,0,3.86,3.73" transform="translate(-183.8 -290.18)"/><path class="cls-8" d="M287,530.36a3.8,3.8,0,1,0-3.86-3.73A3.8,3.8,0,0,0,287,530.36Z" transform="translate(-183.8 -290.18)"/><path class="cls-7" d="M310.39,548.4a3.8,3.8,0,1,0-3.86-3.73,3.8,3.8,0,0,0,3.86,3.73" transform="translate(-183.8 -290.18)"/><path class="cls-8" d="M310.39,548.4a3.8,3.8,0,1,0-3.86-3.73A3.8,3.8,0,0,0,310.39,548.4Z" transform="translate(-183.8 -290.18)"/><path class="cls-7" d="M319.21,505.62a3.8,3.8,0,1,0-3.87-3.73,3.78,3.78,0,0,0,3.87,3.73" transform="translate(-183.8 -290.18)"/><path class="cls-8" d="M319.21,505.62a3.8,3.8,0,1,0-3.87-3.73A3.78,3.78,0,0,0,319.21,505.62Z" transform="translate(-183.8 -290.18)"/><path class="cls-7" d="M359.27,495.43a3.8,3.8,0,1,0-3.86-3.73,3.79,3.79,0,0,0,3.86,3.73" transform="translate(-183.8 -290.18)"/><path class="cls-8" d="M359.27,495.43a3.8,3.8,0,1,0-3.86-3.73A3.79,3.79,0,0,0,359.27,495.43Z" transform="translate(-183.8 -290.18)"/><path class="cls-7" d="M270.86,425.54a3.8,3.8,0,1,0-3.73,3.86,3.79,3.79,0,0,0,3.73-3.86" transform="translate(-183.8 -290.18)"/><path class="cls-8" d="M270.86,425.54a3.8,3.8,0,1,0-3.73,3.86A3.79,3.79,0,0,0,270.86,425.54Z" transform="translate(-183.8 -290.18)"/><path class="cls-7" d="M224.7,427.24A3.8,3.8,0,1,0,221,431.1a3.81,3.81,0,0,0,3.73-3.86" transform="translate(-183.8 -290.18)"/><path class="cls-8" d="M224.7,427.24A3.8,3.8,0,1,0,221,431.1,3.81,3.81,0,0,0,224.7,427.24Z" transform="translate(-183.8 -290.18)"/><path class="cls-7" d="M249,379a3.8,3.8,0,1,0-3.73,3.86A3.78,3.78,0,0,0,249,379" transform="translate(-183.8 -290.18)"/><path class="cls-8" d="M249,379a3.8,3.8,0,1,0-3.73,3.86A3.78,3.78,0,0,0,249,379Z" transform="translate(-183.8 -290.18)"/><path class="cls-7" d="M249.94,446.55a3.8,3.8,0,1,0-3.73,3.86,3.8,3.8,0,0,0,3.73-3.86" transform="translate(-183.8 -290.18)"/><path class="cls-8" d="M249.94,446.55a3.8,3.8,0,1,0-3.73,3.86A3.8,3.8,0,0,0,249.94,446.55Z" transform="translate(-183.8 -290.18)"/><path class="cls-7" d="M391,317.64a3.8,3.8,0,1,0-3.86-3.73,3.78,3.78,0,0,0,3.86,3.73" transform="translate(-183.8 -290.18)"/><path class="cls-8" d="M391,317.64a3.8,3.8,0,1,0-3.86-3.73A3.78,3.78,0,0,0,391,317.64Z" transform="translate(-183.8 -290.18)"/><text class="cls-9" transform="translate(383.26 20.1)">BERNARDO BORDALO</text><text class="cls-9" transform="translate(442.7 20.1)"> </text><text class="cls-9" transform="translate(392.55 27.13)">Audiovisual</text><text class="cls-9" transform="translate(433.41 27.13)"> </text><text class="cls-9" transform="translate(466.36 169.87)"> </text><text class="cls-9" transform="translate(466.36 176.9)"> </text><text class="cls-9" transform="translate(524.95 121.34)">MARIA D&apos;OREY</text><text class="cls-9" transform="translate(569.53 121.34)"> </text><text class="cls-9" transform="translate(511.94 128.37)">Gestora de Projecto</text><text class="cls-9" transform="translate(582.53 128.37)"> </text><text class="cls-9" transform="translate(549.32 149.35)">RUI BARROS</text><text class="cls-9" transform="translate(586.47 149.35)"> </text><text class="cls-9" transform="translate(549.32 156.38)">Assistente </text><text class="cls-9" transform="translate(590.19 156.38)"> </text><text class="cls-9" transform="translate(553.04 163.41)">Projecto</text><text class="cls-9" transform="translate(582.76 163.41)"> </text><text class="cls-9" transform="translate(518.99 233.63)">FRANCISCO </text><text class="cls-9" transform="translate(556.14 233.63)"> </text><text class="cls-9" transform="translate(522.7 240.66)">FONSECA</text><text class="cls-9" transform="translate(576.53 238.89)">PEDRO </text><text class="cls-9" transform="translate(598.82 238.89)"> </text><text class="cls-9" transform="translate(576.53 245.92)">SILVA</text><text class="cls-9" transform="translate(595.1 245.92)"> </text><text class="cls-9" transform="translate(531.83 281.74)">TIAGO </text><text class="cls-9" transform="translate(554.12 281.74)"> </text><text class="cls-9" transform="translate(529.97 288.77)">NOVAIS</text><text class="cls-9" transform="translate(552.26 288.77)"> </text><text class="cls-9" transform="translate(42.92 102.09)">SARA SERRA</text><text class="cls-9" transform="translate(80.07 102.09)"> </text><text class="cls-9" transform="translate(33.63 109.12)">Finanças &amp; Log.</text><text class="cls-9" transform="translate(89.36 109.12)"> </text><text class="cls-9" transform="translate(48.63 72.98)">CLÁUDIA </text><text class="cls-9" transform="translate(78.35 72.98)"> </text><text class="cls-9" transform="translate(50.49 80.01)">SANTOS</text><text class="cls-10" transform="translate(67.14 147.5)">PEDRO GRAÇA</text><text class="cls-9" transform="translate(67.14 147.5)">PEDRO GRAÇA</text><text class="cls-10" transform="translate(13.64 150.7)">YUDAMI</text><text class="cls-10" transform="translate(35.93 150.7)"> </text><text class="cls-9" transform="translate(13.64 150.7)">YUDAMI</text><text class="cls-9" transform="translate(35.93 150.7)"> </text><text class="cls-10" transform="translate(0.64 157.73)">Ferramentaria</text><text class="cls-10" transform="translate(48.93 157.73)"> </text><text class="cls-9" transform="translate(0.64 157.73)">Ferramentaria</text><text class="cls-9" transform="translate(48.93 157.73)"> </text><text class="cls-10" transform="translate(53.06 168.84)">SÓNIA</text><text class="cls-9" transform="translate(53.06 168.84)">SÓNIA</text><text class="cls-10" transform="translate(71.63 168.84)"> </text><text class="cls-9" transform="translate(71.63 168.84)"> </text><text class="cls-10" transform="translate(43.77 175.87)">Manutenção </text><text class="cls-10" transform="translate(84.64 175.87)"> </text><text class="cls-9" transform="translate(43.77 175.87)">Manutenção </text><text class="cls-9" transform="translate(84.64 175.87)"> </text><text class="cls-10" transform="translate(45.63 182.9)">e Limpeza</text><text class="cls-10" transform="translate(79.06 182.9)"> </text><text class="cls-9" transform="translate(45.63 182.9)">e Limpeza</text><text class="cls-9" transform="translate(79.06 182.9)"> </text><text class="cls-10" transform="translate(227.99 145.3)">AMÉRICO</text><text class="cls-10" transform="translate(254 145.3)"> </text><text class="cls-9" transform="translate(227.99 145.3)">AMÉRICO</text><text class="cls-9" transform="translate(254 145.3)"> </text><text class="cls-10" transform="translate(220.56 152.33)">Coordenador</text><text class="cls-9" transform="translate(220.56 152.33)">Coordenador</text><text class="cls-10" transform="translate(181.17 157.14)">SÉRGIO</text><text class="cls-10" transform="translate(203.46 157.14)"> </text><text class="cls-9" transform="translate(181.17 157.14)">SÉRGIO</text><text class="cls-9" transform="translate(203.46 157.14)"> </text><text class="cls-10" transform="translate(179.31 164.17)">Técnico</text><text class="cls-9" transform="translate(179.31 164.17)">Técnico</text><text class="cls-10" transform="translate(190.45 137.04)">BRYAN</text><text class="cls-10" transform="translate(209.03 137.04)"> </text><text class="cls-9" transform="translate(190.45 137.04)">BRYAN</text><text class="cls-9" transform="translate(209.03 137.04)"> </text><text class="cls-10" transform="translate(186.74 144.07)">Técnico</text><text class="cls-9" transform="translate(186.74 144.07)">Técnico</text><text class="cls-10" transform="translate(226.36 175.33)">JORGE</text><text class="cls-10" transform="translate(244.93 175.33)"> </text><text class="cls-9" transform="translate(226.36 175.33)">JORGE</text><text class="cls-9" transform="translate(244.93 175.33)"> </text><text class="cls-10" transform="translate(209.64 182.36)">Técnico Fibras</text><text class="cls-9" transform="translate(209.64 182.36)">Técnico Fibras</text><text class="cls-10" transform="translate(155.8 55.16)">CARLOS ARTEIRO</text><text class="cls-10" transform="translate(207.81 55.16)"> </text><text class="cls-9" transform="translate(155.8 55.16)">CARLOS ARTEIRO</text><text class="cls-9" transform="translate(207.81 55.16)"> </text><text class="cls-10" transform="translate(161.37 62.19)">Coordenador</text><text class="cls-9" transform="translate(161.37 62.19)">Coordenador</text><text class="cls-10" transform="translate(225.73 59.54)">ANDRÉ COELHO</text><text class="cls-10" transform="translate(270.31 59.54)"> </text><text class="cls-9" transform="translate(225.73 59.54)">ANDRÉ COELHO</text><text class="cls-9" transform="translate(270.31 59.54)"> </text><text class="cls-10" transform="translate(227.58 66.57)">Coord. Adj.</text><text class="cls-9" transform="translate(227.58 66.57)">Coord. Adj.</text><text class="cls-10" transform="translate(182.68 5.6)">ALFREDO LAPA</text><text class="cls-10" transform="translate(227.26 5.6)"> </text><text class="cls-9" transform="translate(182.68 5.6)">ALFREDO LAPA</text><text class="cls-9" transform="translate(227.26 5.6)"> </text><text class="cls-10" transform="translate(191.97 12.63)">Técnico</text><text class="cls-9" transform="translate(191.97 12.63)">Técnico</text><text class="cls-10" transform="translate(121.53 12.76)">RENATO CABRAL</text><text class="cls-10" transform="translate(169.83 12.76)"> </text><text class="cls-9" transform="translate(121.53 12.76)">RENATO CABRAL</text><text class="cls-9" transform="translate(169.83 12.76)"> </text><text class="cls-10" transform="translate(132.68 19.79)">Técnico</text><text class="cls-9" transform="translate(132.68 19.79)">Técnico</text><text class="cls-10" transform="translate(204.49 36.44)">LEONARDO CENA</text><text class="cls-10" transform="translate(252.78 36.44)"> </text><text class="cls-9" transform="translate(204.49 36.44)">LEONARDO CENA</text><text class="cls-9" transform="translate(252.78 36.44)"> </text><text class="cls-10" transform="translate(215.63 43.47)">Técnico</text><text class="cls-9" transform="translate(215.63 43.47)">Técnico</text><text class="cls-10" transform="translate(102.54 46.73)">ANTÓNIO ESTEVES</text><text class="cls-10" transform="translate(158.27 46.73)"> </text><text class="cls-9" transform="translate(102.54 46.73)">ANTÓNIO ESTEVES</text><text class="cls-9" transform="translate(158.27 46.73)"> </text><text class="cls-10" transform="translate(117.4 53.76)">Técnico</text><text class="cls-9" transform="translate(117.4 53.76)">Técnico</text><text class="cls-10" transform="translate(144.47 85.66)">LUÍS RAMOS</text><text class="cls-10" transform="translate(181.62 85.66)"> </text><text class="cls-9" transform="translate(144.47 85.66)">LUÍS RAMOS</text><text class="cls-9" transform="translate(181.62 85.66)"> </text><text class="cls-10" transform="translate(150.05 92.69)">Técnico</text><text class="cls-9" transform="translate(150.05 92.69)">Técnico</text><text class="cls-10" transform="translate(188.64 82.17)">ÁLVARO OLIVEIRA</text><text class="cls-10" transform="translate(244.36 82.17)"> </text><text class="cls-9" transform="translate(188.64 82.17)">ÁLVARO OLIVEIRA</text><text class="cls-9" transform="translate(244.36 82.17)"> </text><text class="cls-10" transform="translate(203.5 89.2)">Técnico</text><text class="cls-9" transform="translate(203.5 89.2)">Técnico</text><text class="cls-10" transform="translate(128.38 240.76)">RICARDO FELICIANO</text><text class="cls-10" transform="translate(191.53 240.76)"> </text><text class="cls-9" transform="translate(128.38 240.76)">RICARDO FELICIANO</text><text class="cls-9" transform="translate(191.53 240.76)"> </text><text class="cls-10" transform="translate(139.52 247.79)">Coordenador</text><text class="cls-9" transform="translate(139.52 247.79)">Coordenador</text><text class="cls-10" transform="translate(132.71 315.65)">EDUARDO REGULFE</text><text class="cls-10" transform="translate(188.44 315.65)"> </text><text class="cls-9" transform="translate(132.71 315.65)">EDUARDO REGULFE</text><text class="cls-9" transform="translate(188.44 315.65)"> </text><text class="cls-10" transform="translate(140.14 322.68)">Serralheiro</text><text class="cls-9" transform="translate(140.14 322.68)">Serralheiro</text><text class="cls-10" transform="translate(205.97 261.54)">BRUNO SANTOS</text><text class="cls-10" transform="translate(250.55 261.54)"> </text><text class="cls-9" transform="translate(205.97 261.54)">BRUNO SANTOS</text><text class="cls-9" transform="translate(250.55 261.54)"> </text><text class="cls-10" transform="translate(207.83 268.57)">Serralheiro</text><text class="cls-9" transform="translate(207.83 268.57)">Serralheiro</text><text class="cls-10" transform="translate(100.82 276.52)">ARMANDO ESCOBAR</text><text class="cls-10" transform="translate(156.54 276.52)"> </text><text class="cls-9" transform="translate(100.82 276.52)">ARMANDO ESCOBAR</text><text class="cls-9" transform="translate(156.54 276.52)"> </text><text class="cls-10" transform="translate(108.25 283.55)">Serralheiro</text><text class="cls-9" transform="translate(108.25 283.55)">Serralheiro</text><text class="cls-10" transform="translate(177.8 284.44)">HÉLDER FERNANDES</text><text class="cls-10" transform="translate(237.24 284.44)"> </text><text class="cls-9" transform="translate(177.8 284.44)">HÉLDER FERNANDES</text><text class="cls-9" transform="translate(237.24 284.44)"> </text><text class="cls-10" transform="translate(174.08 291.47)">Mestre Serralheiro</text><text class="cls-9" transform="translate(174.08 291.47)">Mestre Serralheiro</text><text class="cls-10" transform="translate(145.24 217.41)">DOMINGOS FERREIRA</text><text class="cls-10" transform="translate(208.4 217.41)"> </text><text class="cls-9" transform="translate(145.24 217.41)">DOMINGOS FERREIRA</text><text class="cls-9" transform="translate(208.4 217.41)"> </text><text class="cls-10" transform="translate(156.39 224.44)">Serralheiro</text><text class="cls-9" transform="translate(156.39 224.44)">Serralheiro</text><text class="cls-10" transform="translate(115.72 193.97)">IVO PEREIRA</text><text class="cls-10" transform="translate(156.58 193.97)"> </text><text class="cls-9" transform="translate(115.72 193.97)">IVO PEREIRA</text><text class="cls-9" transform="translate(156.58 193.97)"> </text><text class="cls-10" transform="translate(115.72 201)">Serralheiro</text><text class="cls-9" transform="translate(115.72 201)">Serralheiro</text><text class="cls-10" transform="translate(68.92 219.72)">CARLOS SANTOS</text><text class="cls-10" transform="translate(117.21 219.72)"> </text><text class="cls-9" transform="translate(68.92 219.72)">CARLOS SANTOS</text><text class="cls-9" transform="translate(117.21 219.72)"> </text><text class="cls-10" transform="translate(59.63 226.75)">Mestre Serralheiro</text><text class="cls-9" transform="translate(59.63 226.75)">Mestre Serralheiro</text><text class="cls-10" transform="translate(76.52 253.26)">INÊS COELHO</text><text class="cls-10" transform="translate(117.38 253.26)"> </text><text class="cls-9" transform="translate(76.52 253.26)">INÊS COELHO</text><text class="cls-9" transform="translate(117.38 253.26)"> </text><text class="cls-10" transform="translate(76.52 260.29)">Coord. Adj.</text><text class="cls-9" transform="translate(76.52 260.29)">Coord. Adj.</text><path class="cls-7" d="M333.74,551.88a3.8,3.8,0,1,0-2.84-4.55,3.79,3.79,0,0,0,2.84,4.55" transform="translate(-183.8 -290.18)"/><path class="cls-8" d="M333.74,551.88a3.8,3.8,0,1,0-2.84-4.55A3.79,3.79,0,0,0,333.74,551.88Z" transform="translate(-183.8 -290.18)"/></svg>