<svg xmlns="http://www.w3.org/2000/svg" viewBox="0 0 731.96 439.18"><defs><style>.cls-1,.cls-37,.cls-38,.cls-39,.cls-40{fill:none;}.cls-1,.cls-37,.cls-38,.cls-39{stroke:blue;}.cls-1{stroke-width:0.44px;}.cls-10,.cls-11,.cls-12,.cls-13,.cls-14,.cls-15,.cls-16,.cls-17,.cls-18,.cls-19,.cls-2,.cls-20,.cls-21,.cls-22,.cls-23,.cls-24,.cls-25,.cls-26,.cls-27,.cls-28,.cls-29,.cls-3,.cls-30,.cls-31,.cls-32,.cls-33,.cls-34,.cls-35,.cls-36,.cls-4,.cls-5,.cls-6,.cls-7,.cls-8,.cls-9{fill:blue;}.cls-3{font-size:9.66px;}.cls-10,.cls-11,.cls-12,.cls-13,.cls-14,.cls-15,.cls-16,.cls-17,.cls-18,.cls-19,.cls-20,.cls-21,.cls-22,.cls-24,.cls-25,.cls-26,.cls-27,.cls-28,.cls-29,.cls-3,.cls-30,.cls-31,.cls-32,.cls-33,.cls-34,.cls-35,.cls-36,.cls-4,.cls-5,.cls-6,.cls-7,.cls-8,.cls-9{font-family:SuisseIntl, Suisse Intl;}.cls-4{font-size:9.66px;}.cls-5{font-size:9.66px;}.cls-6{font-size:9.66px;}.cls-7{font-size:9.66px;}.cls-8{font-size:9.66px;}.cls-9{font-size:9.66px;}.cls-10{font-size:9.66px;}.cls-11{font-size:9.66px;}.cls-12{font-size:9.66px;}.cls-13{font-size:9.66px;}.cls-14{font-size:9.66px;}.cls-15{font-size:8px;}.cls-16{font-size:8px;}.cls-17{font-size:8px;}.cls-18{font-size:8px;}.cls-19{font-size:8px;}.cls-20{font-size:8px;}.cls-21{font-size:8px;}.cls-22{font-size:8px;}.cls-23,.cls-40{font-size:5.75px;font-family:SuisseIntlMono, Suisse Intl Mono;}.cls-24{font-size:6.19px;}.cls-25{font-size:6.19px;}.cls-26{font-size:6.19px;}.cls-27{font-size:6.19px;}.cls-28{font-size:6.19px;}.cls-29{font-size:6.19px;}.cls-30{font-size:6.19px;}.cls-31{font-size:6.19px;}.cls-32{font-size:6.19px;}.cls-33{font-size:6.19px;}.cls-34{font-size:6.19px;}.cls-35{font-size:6.19px;}.cls-36{font-size:6.19px;}.cls-37{stroke-width:0.38px;}.cls-38{stroke-width:0.45px;}.cls-39{stroke-width:0.43px;}.cls-40{stroke:#fff;stroke-miterlimit:2.56;stroke-width:1.28px;}</style></defs><g id="Layer_4" data-name="Layer 4"><path class="cls-1" d="M170.73,407.24A179.76,179.76,0,1,0,26.37,198,179.77,179.77,0,0,0,170.73,407.24Z"/><path class="cls-1" d="M401.56,341.44a105.84,105.84,0,1,0-98.7-112.53A105.84,105.84,0,0,0,401.56,341.44Z"/><path class="cls-1" d="M429.32,171.68a68.09,68.09,0,1,0-63.49-72.39A68.07,68.07,0,0,0,429.32,171.68Z"/><circle class="cls-1" cx="575.69" cy="274.84" r="134.88" transform="translate(120.26 721.55) rotate(-69.97)"/><path class="cls-1" d="M399.25,409.76A47.45,47.45,0,1,0,351,363.14,47.46,47.46,0,0,0,399.25,409.76Z"/><path class="cls-2" d="M398.09,146.14a3.79,3.79,0,1,0-3.45-4.11,3.79,3.79,0,0,0,3.45,4.11"/><path class="cls-2" d="M481.45,229.34a3.79,3.79,0,1,0-3.45-4.11,3.79,3.79,0,0,0,3.45,4.11"/><path class="cls-2" d="M402.19,330.64a3.8,3.8,0,1,0-3.45-4.12,3.81,3.81,0,0,0,3.45,4.12"/><path class="cls-2" d="M415,236.63a3.79,3.79,0,1,0-3.45-4.11,3.79,3.79,0,0,0,3.45,4.11"/><path class="cls-2" d="M342.12,219.85a3.8,3.8,0,1,0-3.86-3.73,3.81,3.81,0,0,0,3.86,3.73"/><text class="cls-3" transform="matrix(0.83, -0.55, 0.55, 0.83, 97.3, 77.21)">P</text><text class="cls-4" transform="matrix(0.85, -0.53, 0.53, 0.85, 102.54, 73.75)">R</text><text class="cls-5" transform="matrix(0.87, -0.49, 0.49, 0.87, 108.3, 70.21)">O</text><text class="cls-6" transform="translate(115.05 66.33) rotate(-27.19)">D</text><text class="cls-5" transform="translate(121.58 63.04) rotate(-25.11)">U</text><text class="cls-7" transform="translate(128.23 59.94) rotate(-22.33)">Ç</text><text class="cls-8" transform="translate(134.77 57.3) rotate(-20.93)">Ã</text><text class="cls-3" transform="translate(140.72 55.04) rotate(-18.12)">O</text><text class="cls-6" transform="translate(384.39 47.74) rotate(-39.2)">A</text><text class="cls-8" transform="translate(389.67 43.4) rotate(-33.73)">U</text><text class="cls-9" transform="translate(396.22 39.17) rotate(-26.84)">D</text><text class="cls-6" transform="matrix(0.92, -0.39, 0.39, 0.92, 402.93, 35.81)">I</text><text class="cls-10" transform="matrix(0.95, -0.32, 0.32, 0.95, 405.72, 34.54)">O</text><text class="cls-9" transform="translate(413.24 32.08) rotate(-12.82)">V</text><text class="cls-7" transform="translate(419.59 30.62) rotate(-9.96)">I</text><text class="cls-11" transform="translate(422.59 30.08) rotate(-5.66)">S</text><text class="cls-12" transform="matrix(1, 0, 0, 1, 429.37, 29.26)">U</text><text class="cls-11" transform="translate(436.54 29.41) rotate(4.48)">A</text><text class="cls-12" transform="translate(443.51 29.97) rotate(10.27)">L</text><text class="cls-7" transform="translate(449.28 31.08) rotate(13.16)"> </text><text class="cls-4" transform="matrix(0.96, 0.28, -0.28, 0.96, 451.79, 31.69)">E</text><text class="cls-9" transform="translate(457.87 33.54) rotate(20.32)"> </text><text class="cls-10" transform="matrix(0.91, 0.42, -0.42, 0.91, 460.59, 34.39)">C</text><text class="cls-10" transform="translate(467.47 37.54) rotate(30.17)">O</text><text class="cls-5" transform="matrix(0.8, 0.6, -0.6, 0.8, 474.61, 41.82)">M</text><text class="cls-12" transform="matrix(0.72, 0.69, -0.69, 0.72, 482.02, 47.39)">U</text><text class="cls-13" transform="translate(487.47 52.73) rotate(49.43)">N</text><text class="cls-13" transform="matrix(0.59, 0.8, -0.8, 0.59, 492.41, 58.66)">I</text><text class="cls-14" transform="matrix(0.54, 0.84, -0.84, 0.54, 494.32, 61.16)">C</text><text class="cls-9" transform="translate(498.26 67.58) rotate(63.16)">A</text><text class="cls-13" transform="translate(501.28 73.52) rotate(68.72)">Ç</text><text class="cls-6" transform="translate(503.96 80.53) rotate(74.35)">Ã</text><text class="cls-7" transform="translate(505.77 87.09) rotate(80.04)">O</text><text class="cls-14" transform="translate(635.22 147.04) rotate(26.33)">P</text><text class="cls-13" transform="translate(641.02 149.83) rotate(29.13)">R</text><text class="cls-11" transform="matrix(0.85, 0.53, -0.53, 0.85, 646.99, 153.17)">O</text><text class="cls-13" transform="translate(653.34 157.28) rotate(34.69)">J</text><text class="cls-8" transform="matrix(0.79, 0.61, -0.61, 0.79, 658, 160.49)">E</text><text class="cls-4" transform="translate(663.04 164.23) rotate(40.2)">C</text><text class="cls-13" transform="matrix(0.74, 0.67, -0.67, 0.74, 668.42, 168.81)">T</text><text class="cls-3" transform="matrix(0.71, 0.71, -0.71, 0.71, 672.49, 172.55)">O</text><text class="cls-15" transform="matrix(-0.03, 1, -1, -0.03, 339.64, 360.46)">R</text><text class="cls-16" transform="translate(339.44 366.45) rotate(83.02)">E</text><text class="cls-17" transform="matrix(0.23, 0.97, -0.97, 0.23, 340.01, 372.07)">S</text><text class="cls-18" transform="matrix(0.31, 0.95, -0.95, 0.31, 341.51, 377.96)">I</text><text class="cls-18" transform="matrix(0.38, 0.92, -0.92, 0.38, 342.32, 381.03)">D</text><text class="cls-19" transform="translate(344.98 387.22) rotate(62.55)">Ê</text><text class="cls-19" transform="matrix(0.53, 0.85, -0.85, 0.53, 347.63, 392.51)">N</text><text class="cls-20" transform="translate(351.4 398.42) rotate(54.14)">C</text><text class="cls-21" transform="translate(355.27 403.73) rotate(47.76)">I</text><text class="cls-19" transform="translate(357.2 406.04) rotate(41.44)">A</text><text class="cls-22" transform="matrix(0.81, 0.58, -0.58, 0.81, 361.68, 409.98)">S</text><text class="cls-23" transform="translate(474.48 91.03)"> </text><text class="cls-23" transform="translate(465.19 98.06)"> </text><text class="cls-23" transform="translate(621.97 227.31)"> </text><text class="cls-23" transform="translate(315.88 361.96)"> </text></g><g id="Layer_5" data-name="Layer 5"><text class="cls-24" transform="translate(50.66 245.71) rotate(62.06)">G</text><text class="cls-25" transform="matrix(0.61, 0.8, -0.8, 0.61, 53.12, 250.13)">E</text><text class="cls-26" transform="matrix(0.69, 0.72, -0.72, 0.69, 55.71, 253.67)">S</text><text class="cls-25" transform="matrix(0.75, 0.66, -0.66, 0.75, 58.88, 257.01)">T</text><text class="cls-25" transform="matrix(0.8, 0.59, -0.59, 0.8, 61.76, 259.55)">Ã</text><text class="cls-27" transform="matrix(0.85, 0.52, -0.52, 0.85, 65.49, 262.34)">O</text><text class="cls-28" transform="translate(70.28 265.34) rotate(27.97)"> </text><text class="cls-29" transform="translate(72.31 266.35) rotate(24.64)">D</text><text class="cls-30" transform="translate(76.88 268.52) rotate(18.26)">E</text><text class="cls-31" transform="translate(81.13 269.84) rotate(11.94)"> </text><text class="cls-30" transform="translate(83.32 270.4) rotate(7.58)">A</text><text class="cls-32" transform="translate(87.82 271.1) rotate(1.02)">R</text><text class="cls-31" transform="translate(92.7 271.23) rotate(-4.72)">M</text><text class="cls-27" transform="matrix(0.99, -0.17, 0.17, 0.99, 98.83, 270.73)">A</text><text class="cls-32" transform="translate(103.63 269.9) rotate(-14.23)">Z</text><text class="cls-30" transform="translate(108.25 268.7) rotate(-17.5)">É</text><text class="cls-25" transform="matrix(0.93, -0.36, 0.36, 0.93, 112.68, 267.39)">M</text><text class="cls-32" transform="matrix(0.76, 0.65, -0.65, 0.76, 545.27, 250.26)"> </text><text class="cls-33" transform="translate(529.88 226.94) rotate(71.97)">G</text><text class="cls-34" transform="translate(531.45 231.82) rotate(63.52)">E</text><text class="cls-32" transform="matrix(0.53, 0.85, -0.85, 0.53, 533.42, 235.82)">S</text><text class="cls-25" transform="matrix(0.6, 0.8, -0.8, 0.6, 535.78, 239.76)">T</text><text class="cls-26" transform="matrix(0.66, 0.76, -0.76, 0.66, 538.17, 242.84)">Ã</text><text class="cls-24" transform="translate(541.19 246.33) rotate(43.99)">O</text><text class="cls-28" transform="translate(547.07 251.79) rotate(38.06)">D</text><text class="cls-27" transform="translate(551.27 255.14) rotate(33.89)">E</text><text class="cls-27" transform="translate(555.05 257.69) rotate(30.88)"> </text><text class="cls-27" transform="matrix(0.9, 0.44, -0.44, 0.9, 556.89, 258.85)">P</text><text class="cls-27" transform="matrix(0.94, 0.34, -0.34, 0.94, 560.97, 260.79)">R</text><text class="cls-34" transform="translate(565.39 262.47) rotate(12.79)">O</text><text class="cls-24" transform="translate(570.8 263.67) rotate(9.06)">J</text><text class="cls-27" transform="matrix(1, 0.08, -0.08, 1, 574.86, 264.28)">E</text><path class="cls-2" d="M583.77,263.27a2.2,2.2,0,0,1-.25.65,2,2,0,0,1-.44.47,1.84,1.84,0,0,1-.58.28,2.48,2.48,0,0,1-.68.09,2,2,0,0,1-.86-.18,1.92,1.92,0,0,1-.64-.49,2.18,2.18,0,0,1-.39-.74,3.1,3.1,0,0,1-.13-.94,2.54,2.54,0,0,1,.16-.94,2.09,2.09,0,0,1,.42-.73,2,2,0,0,1,.66-.47,2.2,2.2,0,0,1,.86-.16,2.4,2.4,0,0,1,.66.11,1.83,1.83,0,0,1,.55.3,1.74,1.74,0,0,1,.41.48,2,2,0,0,1,.24.64h-.61a1.68,1.68,0,0,0-.16-.39,1.3,1.3,0,0,0-.26-.31,1.28,1.28,0,0,0-.38-.21,1.43,1.43,0,0,0-.48-.07,1.17,1.17,0,0,0-.56.11,1.19,1.19,0,0,0-.45.33,1.58,1.58,0,0,0-.3.56,2.54,2.54,0,0,0-.12.77,2.59,2.59,0,0,0,.1.76,1.91,1.91,0,0,0,.29.57,1.37,1.37,0,0,0,.45.35,1.41,1.41,0,0,0,.58.13,1.28,1.28,0,0,0,.86-.27,1.26,1.26,0,0,0,.44-.7Z"/><text class="cls-25" transform="matrix(1, -0.06, 0.06, 1, 584.59, 264.71)">T</text><text class="cls-32" transform="translate(588.91 264.5) rotate(-5.82)">O</text><text class="cls-28" transform="matrix(1, 0.05, -0.05, 1, 588.7, 383.42)">D</text><text class="cls-34" transform="matrix(1, -0.08, 0.08, 1, 593.73, 383.68)">E</text><text class="cls-32" transform="translate(598.11 383.32) rotate(-10.89)">S</text><text class="cls-25" transform="translate(602.7 382.41) rotate(-15.76)">E</text><text class="cls-27" transform="translate(607.08 381.19) rotate(-20.77)">N</text><text class="cls-25" transform="matrix(0.9, -0.44, 0.44, 0.9, 612.06, 379.35)">H</text><text class="cls-24" transform="translate(616.93 376.97) rotate(-30.09)">O</text><text class="cls-28" transform="translate(621.88 374.08) rotate(-33.45)"> </text><text class="cls-31" transform="translate(623.82 372.72) rotate(-36.39)">E</text><text class="cls-24" transform="translate(627.49 370.14) rotate(-41.49)"> </text><text class="cls-28" transform="translate(629.14 368.65) rotate(-44.72)">P</text><text class="cls-32" transform="translate(632.45 365.38) rotate(-50.75)">R</text><text class="cls-26" transform="matrix(0.56, -0.83, 0.83, 0.56, 635.46, 361.58)">E</text><text class="cls-28" transform="matrix(0.48, -0.88, 0.88, 0.48, 637.89, 357.9)">P</text><text class="cls-31" transform="translate(640.06 354.17) rotate(-65.53)">A</text><text class="cls-26" transform="matrix(0.35, -0.94, 0.94, 0.35, 642.09, 349.78)">R</text><text class="cls-25" transform="matrix(0.29, -0.96, 0.96, 0.29, 643.92, 345.03)">A</text><text class="cls-32" transform="translate(645.28 340.49) rotate(-76.45)">Ç</text><text class="cls-35" transform="translate(646.57 335.33) rotate(-79.57)">Ã</text><text class="cls-24" transform="matrix(0.13, -0.99, 0.99, 0.13, 647.46, 330.7)">O</text><text class="cls-30" transform="translate(158.56 154.58) rotate(63.32)">P</text><text class="cls-24" transform="translate(160.57 158.55) rotate(55.7)">R</text><text class="cls-30" transform="matrix(0.66, 0.75, -0.75, 0.66, 163.13, 162.48)">O</text><text class="cls-36" transform="translate(166.76 166.6) rotate(43.1)">D</text><text class="cls-26" transform="matrix(0.79, 0.62, -0.62, 0.79, 170.54, 170.14)">U</text><text class="cls-24" transform="translate(174.7 173.42) rotate(32.99)">Ç</text><text class="cls-27" transform="matrix(0.87, 0.49, -0.49, 0.87, 179.09, 176.24)">Ã</text><text class="cls-24" transform="matrix(0.9, 0.44, -0.44, 0.9, 183.22, 178.6)">O</text><text class="cls-24" transform="matrix(0.84, -0.54, 0.54, 0.84, 144.08, 256.08)">S</text><text class="cls-31" transform="translate(147.87 253.61) rotate(-28.58)">E</text><text class="cls-25" transform="translate(151.59 251.65) rotate(-25.79)">R</text><text class="cls-25" transform="translate(155.85 249.62) rotate(-21.58)">R</text><text class="cls-30" transform="translate(160.19 247.86) rotate(-18.75)">A</text><text class="cls-24" transform="translate(164.53 246.47) rotate(-14.47)">L</text><text class="cls-25" transform="translate(168.42 245.43) rotate(-11.59)">H</text><text class="cls-27" transform="translate(173.46 244.46) rotate(-7.24)">A</text><text class="cls-36" transform="translate(178.11 243.81) rotate(-2.86)">R</text><text class="cls-25" transform="matrix(1, -0.02, 0.02, 1, 182.6, 243.62)">I</text><text class="cls-24" transform="translate(184.78 243.66) rotate(1.54)">A</text><text class="cls-35" transform="matrix(0.56, -0.83, 0.83, 0.56, 61.32, 146.47)">L</text><text class="cls-31" transform="translate(63.47 143.26) rotate(-48.77)">O</text><text class="cls-29" transform="translate(67.22 139.17) rotate(-40.57)">G</text><text class="cls-27" transform="matrix(0.82, -0.57, 0.57, 0.82, 71.38, 135.74)">Í</text><text class="cls-26" transform="translate(73.15 134.49) rotate(-29.6)">S</text><text class="cls-29" transform="translate(77.08 132.24) rotate(-22.67)">T</text><text class="cls-24" transform="translate(80.73 130.78) rotate(-18.47)">I</text><path class="cls-2" d="M86.73,127.66a1.81,1.81,0,0,1-.41,1.25,1.83,1.83,0,0,1-.5.41,2.51,2.51,0,0,1-.65.25,2,2,0,0,1-.87,0,1.91,1.91,0,0,1-.74-.33,2.12,2.12,0,0,1-.55-.63,3.23,3.23,0,0,1-.34-.89,2.58,2.58,0,0,1-.06-.95,2.13,2.13,0,0,1,.24-.81,1.93,1.93,0,0,1,.54-.6,2,2,0,0,1,.8-.35,1.88,1.88,0,0,1,.66,0,2,2,0,0,1,.61.16,2.2,2.2,0,0,1,.51.37,2.1,2.1,0,0,1,.38.57l-.6.14a1.21,1.21,0,0,0-.24-.35,1.27,1.27,0,0,0-.33-.24,1.13,1.13,0,0,0-.41-.11,1.44,1.44,0,0,0-1,.27,1.17,1.17,0,0,0-.36.43,1.61,1.61,0,0,0-.17.61,2.88,2.88,0,0,0,.34,1.49,2,2,0,0,0,.41.49,1.36,1.36,0,0,0,.52.24,1.31,1.31,0,0,0,.59,0,1.28,1.28,0,0,0,.78-.46,1.24,1.24,0,0,0,.26-.78Z"/><text class="cls-25" transform="translate(87.85 128.91) rotate(-5.66)">A</text><text class="cls-24" transform="matrix(0.97, 0.25, -0.25, 0.97, 256.04, 183.64)">P</text><text class="cls-25" transform="translate(260.36 184.7) rotate(18.89)">I</text><text class="cls-34" transform="translate(262.58 185.57) rotate(24.57)">N</text><text class="cls-26" transform="matrix(0.84, 0.54, -0.54, 0.84, 267.56, 187.88)">T</text><text class="cls-24" transform="matrix(0.77, 0.64, -0.64, 0.77, 271.26, 190.27)">U</text><text class="cls-25" transform="matrix(0.67, 0.74, -0.74, 0.67, 275.35, 193.73)">R</text><text class="cls-27" transform="matrix(0.57, 0.82, -0.82, 0.57, 278.7, 197.52)">A</text><text class="cls-23" transform="translate(396.36 213.82)">JOSÉ M PINTO</text><text class="cls-23" transform="translate(403.79 220.85)">Director</text><text class="cls-23" transform="translate(408.42 150.62)">BRUNO LANÇA</text><text class="cls-23" transform="translate(449.28 150.62)"> </text><text class="cls-23" transform="translate(399.13 157.65)">Coordenador AV&amp;C</text><text class="cls-23" transform="translate(458.57 157.65)"> </text><text class="cls-23" transform="translate(457.75 240.95)">ANA TRABULO</text><text class="cls-23" transform="translate(498.62 240.95)"> </text><text class="cls-23" transform="translate(461.47 247.98)">Directora </text><text class="cls-23" transform="translate(498.62 247.98)"> </text><text class="cls-23" transform="translate(463.32 255.01)">Projecto</text><text class="cls-23" transform="translate(375.69 297.36)">FRANCISCA BARROS</text><text class="cls-23" transform="translate(435.13 297.36)"> </text><text class="cls-23" transform="translate(383.13 304.39)">Coordenadora </text><text class="cls-23" transform="translate(431.42 304.39)"> </text><text class="cls-23" transform="translate(388.7 311.42)">Artística</text><text class="cls-23" transform="translate(316.1 231.65)">VALENTIM NEVES</text><text class="cls-23" transform="translate(368.11 231.65)"> </text><text class="cls-23" transform="translate(321.67 238.68)">Director de </text><text class="cls-23" transform="translate(366.25 238.68)"> </text><text class="cls-23" transform="translate(327.25 245.71)">Produção</text><path class="cls-1" d="M208.22,175.6a54.08,54.08,0,1,0-50.42-57.49A54.08,54.08,0,0,0,208.22,175.6Z"/><path class="cls-1" d="M180,385.83c37.4,2.45,69.73-26.3,72.22-64.21S226.39,251,189,248.53s-69.73,26.3-72.22,64.21S142.58,383.38,180,385.83Z"/><path class="cls-37" d="M127,168.81a33.35,33.35,0,1,0-35.46,31.1A33.35,33.35,0,0,0,127,168.81Z"/><path class="cls-37" d="M246.48,254.3a33.35,33.35,0,1,0-31.09-35.46A33.36,33.36,0,0,0,246.48,254.3Z"/><path class="cls-38" d="M132.51,225.52a39.31,39.31,0,1,0-41.8,36.66A39.3,39.3,0,0,0,132.51,225.52Z"/><path class="cls-39" d="M582.65,374.55a51.7,51.7,0,1,0-47-56A51.7,51.7,0,0,0,582.65,374.55Z"/><path class="cls-39" d="M582.65,255.39a51.7,51.7,0,1,0-47-56A51.69,51.69,0,0,0,582.65,255.39Z"/></g><g id="Layer_6" data-name="Layer 6"><text class="cls-25" transform="translate(244.58 183.03) rotate(-4.22)"> </text><text class="cls-27" transform="translate(246.34 183) rotate(-2.77)"> </text><text class="cls-34" transform="translate(248.13 182.9) rotate(0.12)"> </text><text class="cls-30" transform="translate(250.22 182.92) rotate(3.02)"> </text><text class="cls-31" transform="matrix(0.99, 0.1, -0.1, 0.99, 252.08, 183.11)"> </text><text class="cls-25" transform="translate(253.91 183.23) rotate(8.82)"> </text><text class="cls-23" transform="translate(415.51 91.18)">BERNARDO BORDALO</text><text class="cls-23" transform="translate(474.95 91.18)"> </text><text class="cls-23" transform="translate(424.8 98.21)">Audiovisual</text><text class="cls-23" transform="translate(465.66 98.21)"> </text><text class="cls-23" transform="translate(498.62 240.95)"> </text><text class="cls-23" transform="translate(498.62 247.98)"> </text><text class="cls-23" transform="translate(557.2 192.43)">MARIA D&apos;OREY</text><text class="cls-23" transform="translate(601.78 192.43)"> </text><text class="cls-23" transform="translate(544.2 199.46)">Gestora de Projecto</text><text class="cls-23" transform="translate(614.78 199.46)"> </text><text class="cls-23" transform="translate(581.57 220.43)">RUI BARROS</text><text class="cls-23" transform="translate(618.72 220.43)"> </text><text class="cls-23" transform="translate(581.57 227.46)">Assistente </text><text class="cls-23" transform="translate(622.44 227.46)"> </text><text class="cls-23" transform="translate(585.29 234.49)">Projecto</text><text class="cls-23" transform="translate(615.01 234.49)"> </text><text class="cls-23" transform="translate(551.24 304.72)">FRANCISCO </text><text class="cls-23" transform="translate(588.39 304.72)"> </text><text class="cls-23" transform="translate(554.95 311.74)">FONSECA</text><text class="cls-23" transform="translate(608.78 309.97)">PEDRO </text><text class="cls-23" transform="translate(631.07 309.97)"> </text><text class="cls-23" transform="translate(608.78 317)">SILVA</text><text class="cls-23" transform="translate(627.36 317)"> </text><text class="cls-23" transform="translate(564.08 352.82)">TIAGO </text><text class="cls-23" transform="translate(586.37 352.82)"> </text><text class="cls-23" transform="translate(562.22 359.85)">NOVAIS</text><text class="cls-23" transform="translate(584.51 359.85)"> </text><text class="cls-23" transform="translate(75.17 173.18)">SARA SERRA</text><text class="cls-23" transform="translate(112.32 173.18)"> </text><text class="cls-23" transform="translate(65.89 180.21)">Finanças &amp; Log.</text><text class="cls-23" transform="translate(121.61 180.21)"> </text><text class="cls-23" transform="translate(80.89 144.06)">CLÁUDIA </text><text class="cls-23" transform="translate(110.61 144.06)"> </text><text class="cls-23" transform="translate(82.74 151.09)">SANTOS</text><text class="cls-40" transform="translate(99.39 218.58)">PEDRO GRAÇA</text><text class="cls-23" transform="translate(99.39 218.58)">PEDRO GRAÇA</text><text class="cls-40" transform="translate(45.89 221.78)">YUDAMI</text><text class="cls-40" transform="translate(68.18 221.78)"> </text><text class="cls-23" transform="translate(45.89 221.78)">YUDAMI</text><text class="cls-23" transform="translate(68.18 221.78)"> </text><text class="cls-40" transform="translate(32.89 228.81)">Ferramentaria</text><text class="cls-40" transform="translate(81.19 228.81)"> </text><text class="cls-23" transform="translate(32.89 228.81)">Ferramentaria</text><text class="cls-23" transform="translate(81.19 228.81)"> </text><text class="cls-40" transform="translate(85.31 239.92)">SÓNIA</text><text class="cls-23" transform="translate(85.31 239.92)">SÓNIA</text><text class="cls-40" transform="translate(103.89 239.92)"> </text><text class="cls-23" transform="translate(103.89 239.92)"> </text><text class="cls-40" transform="translate(76.02 246.95)">Manutenção </text><text class="cls-40" transform="translate(116.89 246.95)"> </text><text class="cls-23" transform="translate(76.02 246.95)">Manutenção </text><text class="cls-23" transform="translate(116.89 246.95)"> </text><text class="cls-40" transform="translate(77.88 253.98)">e Limpeza</text><text class="cls-40" transform="translate(111.31 253.98)"> </text><text class="cls-23" transform="translate(77.88 253.98)">e Limpeza</text><text class="cls-23" transform="translate(111.31 253.98)"> </text><text class="cls-40" transform="translate(260.24 216.38)">AMÉRICO</text><text class="cls-40" transform="translate(286.25 216.38)"> </text><text class="cls-23" transform="translate(260.24 216.38)">AMÉRICO</text><text class="cls-23" transform="translate(286.25 216.38)"> </text><text class="cls-40" transform="translate(252.81 223.41)">Coordenador</text><text class="cls-23" transform="translate(252.81 223.41)">Coordenador</text><text class="cls-40" transform="translate(213.42 228.22)">SÉRGIO</text><text class="cls-40" transform="translate(235.71 228.22)"> </text><text class="cls-23" transform="translate(213.42 228.22)">SÉRGIO</text><text class="cls-23" transform="translate(235.71 228.22)"> </text><text class="cls-40" transform="translate(211.57 235.25)">Técnico</text><text class="cls-23" transform="translate(211.57 235.25)">Técnico</text><text class="cls-40" transform="translate(222.71 208.12)">BRYAN</text><text class="cls-40" transform="translate(241.28 208.12)"> </text><text class="cls-23" transform="translate(222.71 208.12)">BRYAN</text><text class="cls-23" transform="translate(241.28 208.12)"> </text><text class="cls-40" transform="translate(218.99 215.15)">Técnico</text><text class="cls-23" transform="translate(218.99 215.15)">Técnico</text><text class="cls-40" transform="translate(258.61 246.42)">JORGE</text><text class="cls-40" transform="translate(277.19 246.42)"> </text><text class="cls-23" transform="translate(258.61 246.42)">JORGE</text><text class="cls-23" transform="translate(277.19 246.42)"> </text><text class="cls-40" transform="translate(241.89 253.44)">Técnico Fibras</text><text class="cls-23" transform="translate(241.89 253.44)">Técnico Fibras</text><text class="cls-40" transform="translate(188.05 126.24)">CARLOS ARTEIRO</text><text class="cls-40" transform="translate(240.06 126.24)"> </text><text class="cls-23" transform="translate(188.05 126.24)">CARLOS ARTEIRO</text><text class="cls-23" transform="translate(240.06 126.24)"> </text><text class="cls-40" transform="translate(193.62 133.27)">Coordenador</text><text class="cls-23" transform="translate(193.62 133.27)">Coordenador</text><text class="cls-40" transform="translate(257.98 130.62)">ANDRÉ COELHO</text><text class="cls-40" transform="translate(302.56 130.62)"> </text><text class="cls-23" transform="translate(257.98 130.62)">ANDRÉ COELHO</text><text class="cls-23" transform="translate(302.56 130.62)"> </text><text class="cls-40" transform="translate(259.84 137.65)">Coord. Adj.</text><text class="cls-23" transform="translate(259.84 137.65)">Coord. Adj.</text><text class="cls-40" transform="translate(214.93 76.68)">ALFREDO LAPA</text><text class="cls-40" transform="translate(259.52 76.68)"> </text><text class="cls-23" transform="translate(214.93 76.68)">ALFREDO LAPA</text><text class="cls-23" transform="translate(259.52 76.68)"> </text><text class="cls-40" transform="translate(224.22 83.71)">Técnico</text><text class="cls-23" transform="translate(224.22 83.71)">Técnico</text><text class="cls-40" transform="translate(153.79 83.84)">RENATO CABRAL</text><text class="cls-40" transform="translate(202.08 83.84)"> </text><text class="cls-23" transform="translate(153.79 83.84)">RENATO CABRAL</text><text class="cls-23" transform="translate(202.08 83.84)"> </text><text class="cls-40" transform="translate(164.93 90.87)">Técnico</text><text class="cls-23" transform="translate(164.93 90.87)">Técnico</text><text class="cls-40" transform="translate(236.74 107.52)">LEONARDO CENA</text><text class="cls-40" transform="translate(285.03 107.52)"> </text><text class="cls-23" transform="translate(236.74 107.52)">LEONARDO CENA</text><text class="cls-23" transform="translate(285.03 107.52)"> </text><text class="cls-40" transform="translate(247.88 114.55)">Técnico</text><text class="cls-23" transform="translate(247.88 114.55)">Técnico</text><text class="cls-40" transform="translate(134.79 117.81)">ANTÓNIO ESTEVES</text><text class="cls-40" transform="translate(190.52 117.81)"> </text><text class="cls-23" transform="translate(134.79 117.81)">ANTÓNIO ESTEVES</text><text class="cls-23" transform="translate(190.52 117.81)"> </text><text class="cls-40" transform="translate(149.65 124.84)">Técnico</text><text class="cls-23" transform="translate(149.65 124.84)">Técnico</text><text class="cls-40" transform="translate(176.73 156.74)">LUÍS RAMOS</text><text class="cls-40" transform="translate(213.88 156.74)"> </text><text class="cls-23" transform="translate(176.73 156.74)">LUÍS RAMOS</text><text class="cls-23" transform="translate(213.88 156.74)"> </text><text class="cls-40" transform="translate(182.3 163.77)">Técnico</text><text class="cls-23" transform="translate(182.3 163.77)">Técnico</text><text class="cls-40" transform="translate(220.89 153.25)">ÁLVARO OLIVEIRA</text><text class="cls-40" transform="translate(276.62 153.25)"> </text><text class="cls-23" transform="translate(220.89 153.25)">ÁLVARO OLIVEIRA</text><text class="cls-23" transform="translate(276.62 153.25)"> </text><text class="cls-40" transform="translate(235.75 160.28)">Técnico</text><text class="cls-23" transform="translate(235.75 160.28)">Técnico</text><text class="cls-40" transform="translate(160.63 311.84)">RICARDO FELICIANO</text><text class="cls-40" transform="translate(223.78 311.84)"> </text><text class="cls-23" transform="translate(160.63 311.84)">RICARDO FELICIANO</text><text class="cls-23" transform="translate(223.78 311.84)"> </text><text class="cls-40" transform="translate(171.77 318.87)">Coordenador</text><text class="cls-23" transform="translate(171.77 318.87)">Coordenador</text><text class="cls-40" transform="translate(164.97 386.73)">EDUARDO REGULFE</text><text class="cls-40" transform="translate(220.69 386.73)"> </text><text class="cls-23" transform="translate(164.97 386.73)">EDUARDO REGULFE</text><text class="cls-23" transform="translate(220.69 386.73)"> </text><text class="cls-40" transform="translate(172.4 393.76)">Serralheiro</text><text class="cls-23" transform="translate(172.4 393.76)">Serralheiro</text><text class="cls-40" transform="translate(238.22 332.63)">BRUNO SANTOS</text><text class="cls-40" transform="translate(282.8 332.63)"> </text><text class="cls-23" transform="translate(238.22 332.63)">BRUNO SANTOS</text><text class="cls-23" transform="translate(282.8 332.63)"> </text><text class="cls-40" transform="translate(240.08 339.65)">Serralheiro</text><text class="cls-23" transform="translate(240.08 339.65)">Serralheiro</text><text class="cls-40" transform="translate(133.07 347.6)">ARMANDO ESCOBAR</text><text class="cls-40" transform="translate(188.79 347.6)"> </text><text class="cls-23" transform="translate(133.07 347.6)">ARMANDO ESCOBAR</text><text class="cls-23" transform="translate(188.79 347.6)"> </text><text class="cls-40" transform="translate(140.5 354.63)">Serralheiro</text><text class="cls-23" transform="translate(140.5 354.63)">Serralheiro</text><text class="cls-40" transform="translate(210.05 355.52)">HÉLDER FERNANDES</text><text class="cls-40" transform="translate(269.49 355.52)"> </text><text class="cls-23" transform="translate(210.05 355.52)">HÉLDER FERNANDES</text><text class="cls-23" transform="translate(269.49 355.52)"> </text><text class="cls-40" transform="translate(206.33 362.55)">Mestre Serralheiro</text><text class="cls-23" transform="translate(206.33 362.55)">Mestre Serralheiro</text><text class="cls-40" transform="translate(177.5 288.49)">DOMINGOS FERREIRA</text><text class="cls-40" transform="translate(240.65 288.49)"> </text><text class="cls-23" transform="translate(177.5 288.49)">DOMINGOS FERREIRA</text><text class="cls-23" transform="translate(240.65 288.49)"> </text><text class="cls-40" transform="translate(188.64 295.52)">Serralheiro</text><text class="cls-23" transform="translate(188.64 295.52)">Serralheiro</text><text class="cls-40" transform="translate(147.97 265.05)">IVO PEREIRA</text><text class="cls-40" transform="translate(188.84 265.05)"> </text><text class="cls-23" transform="translate(147.97 265.05)">IVO PEREIRA</text><text class="cls-23" transform="translate(188.84 265.05)"> </text><text class="cls-40" transform="translate(147.97 272.08)">Serralheiro</text><text class="cls-23" transform="translate(147.97 272.08)">Serralheiro</text><text class="cls-40" transform="translate(101.17 290.8)">CARLOS SANTOS</text><text class="cls-40" transform="translate(149.47 290.8)"> </text><text class="cls-23" transform="translate(101.17 290.8)">CARLOS SANTOS</text><text class="cls-23" transform="translate(149.47 290.8)"> </text><text class="cls-40" transform="translate(91.88 297.83)">Mestre Serralheiro</text><text class="cls-23" transform="translate(91.88 297.83)">Mestre Serralheiro</text><text class="cls-40" transform="translate(108.77 324.34)">INÊS COELHO</text><text class="cls-40" transform="translate(149.64 324.34)"> </text><text class="cls-23" transform="translate(108.77 324.34)">INÊS COELHO</text><text class="cls-23" transform="translate(149.64 324.34)"> </text><text class="cls-40" transform="translate(108.77 331.37)">Coord. Adj.</text><text class="cls-23" transform="translate(108.77 331.37)">Coord. Adj.</text><path class="cls-2" d="M540.49,187.23a3.79,3.79,0,1,0-3.45-4.11,3.8,3.8,0,0,0,3.45,4.11"/><path class="cls-2" d="M546.61,295.89a3.79,3.79,0,1,0-3.45-4.11,3.81,3.81,0,0,0,3.45,4.11"/><path class="cls-2" d="M244.27,229a3.8,3.8,0,1,0-3.86-3.73,3.79,3.79,0,0,0,3.86,3.73"/><path class="cls-2" d="M249.9,134a3.8,3.8,0,1,0-2.85-4.56A3.8,3.8,0,0,0,249.9,134"/><path class="cls-2" d="M197.07,100.3a3.8,3.8,0,1,0-2.85-4.55,3.79,3.79,0,0,0,2.85,4.55"/><path class="cls-2" d="M182.38,146.64a3.8,3.8,0,1,0-2.85-4.56,3.8,3.8,0,0,0,2.85,4.56"/><path class="cls-2" d="M225.83,333.12a3.79,3.79,0,1,0-2.84-4.55,3.8,3.8,0,0,0,2.84,4.55"/><path class="cls-2" d="M205.28,350.17a3.79,3.79,0,1,0-2.84-4.55,3.8,3.8,0,0,0,2.84,4.55"/><path class="cls-2" d="M170.76,108.11a3.79,3.79,0,1,0-2.84-4.55,3.79,3.79,0,0,0,2.84,4.55"/><path class="cls-2" d="M157.42,367.48a3.79,3.79,0,1,0-2.85-4.55,3.79,3.79,0,0,0,2.85,4.55"/><path class="cls-2" d="M189.19,375.2a3.79,3.79,0,1,0-2.84-4.55,3.8,3.8,0,0,0,2.84,4.55"/><path class="cls-2" d="M212.37,117.43a3.79,3.79,0,1,0-2.84-4.55,3.79,3.79,0,0,0,2.84,4.55"/><path class="cls-2" d="M215.21,94a3.79,3.79,0,1,0-2.84-4.55A3.79,3.79,0,0,0,215.21,94"/><path class="cls-2" d="M637.5,313.92a3.79,3.79,0,1,0-3.45-4.11,3.79,3.79,0,0,0,3.45,4.11"/><path class="cls-2" d="M577.34,377.83a3.79,3.79,0,1,0-3.45-4.11,3.81,3.81,0,0,0,3.45,4.11"/><path class="cls-2" d="M633.2,232.47a3.79,3.79,0,1,0-3.45-4.11,3.79,3.79,0,0,0,3.45,4.11"/><path class="cls-2" d="M267.71,235.55a3.79,3.79,0,1,0-3.45-4.11,3.78,3.78,0,0,0,3.45,4.11"/><path class="cls-2" d="M248.71,205.77a3.8,3.8,0,1,0-3.86-3.72,3.78,3.78,0,0,0,3.86,3.72"/><path class="cls-2" d="M98.2,191.71a3.8,3.8,0,1,0-3.73,3.86,3.79,3.79,0,0,0,3.73-3.86"/><path class="cls-2" d="M248.77,243.36a3.8,3.8,0,1,0-3.86-3.73,3.8,3.8,0,0,0,3.86,3.73"/><path class="cls-2" d="M445.76,81.76a3.79,3.79,0,1,0-3.45-4.11,3.78,3.78,0,0,0,3.45,4.11"/><path class="cls-2" d="M232.67,146.07a3.8,3.8,0,1,0-3.86-3.73,3.8,3.8,0,0,0,3.86,3.73"/><path class="cls-2" d="M135.41,311.26a3.8,3.8,0,1,0-3.86-3.73,3.8,3.8,0,0,0,3.86,3.73"/><path class="cls-2" d="M158.84,329.3a3.8,3.8,0,1,0-3.86-3.73,3.78,3.78,0,0,0,3.86,3.73"/><path class="cls-2" d="M167.66,286.53a3.8,3.8,0,1,0-3.86-3.73,3.8,3.8,0,0,0,3.86,3.73"/><path class="cls-2" d="M207.73,276.33a3.8,3.8,0,1,0-3.86-3.72,3.8,3.8,0,0,0,3.86,3.72"/><path class="cls-2" d="M119.32,206.44a3.8,3.8,0,1,0-3.73,3.86,3.81,3.81,0,0,0,3.73-3.86"/><path class="cls-2" d="M73.15,208.15A3.8,3.8,0,1,0,69.42,212a3.79,3.79,0,0,0,3.73-3.86"/><path class="cls-2" d="M97.47,159.91a3.8,3.8,0,1,0-3.73,3.86,3.8,3.8,0,0,0,3.73-3.86"/><path class="cls-2" d="M98.39,227.45a3.8,3.8,0,1,0-3.73,3.86,3.78,3.78,0,0,0,3.73-3.86"/><path class="cls-2" d="M239.42,98.55a3.8,3.8,0,1,0-3.86-3.73,3.81,3.81,0,0,0,3.86,3.73"/><path class="cls-2" d="M182.19,332.78a3.79,3.79,0,1,0-2.84-4.55,3.8,3.8,0,0,0,2.84,4.55"/></g></svg>