<svg xmlns="http://www.w3.org/2000/svg" viewBox="0 0 687.62 396.25"><defs><style>.cls-1,.cls-37,.cls-38,.cls-39,.cls-40{fill:none;}.cls-1,.cls-37,.cls-38,.cls-39{stroke:blue;}.cls-1{stroke-width:0.44px;}.cls-10,.cls-11,.cls-12,.cls-13,.cls-14,.cls-15,.cls-16,.cls-17,.cls-18,.cls-19,.cls-2,.cls-20,.cls-21,.cls-22,.cls-23,.cls-24,.cls-25,.cls-26,.cls-27,.cls-28,.cls-29,.cls-3,.cls-30,.cls-31,.cls-32,.cls-33,.cls-34,.cls-35,.cls-36,.cls-4,.cls-5,.cls-6,.cls-7,.cls-8,.cls-9{fill:blue;}.cls-3{font-size:9.66px;}.cls-10,.cls-11,.cls-12,.cls-13,.cls-14,.cls-15,.cls-16,.cls-17,.cls-18,.cls-19,.cls-20,.cls-21,.cls-22,.cls-24,.cls-25,.cls-26,.cls-27,.cls-28,.cls-29,.cls-3,.cls-30,.cls-31,.cls-32,.cls-33,.cls-34,.cls-35,.cls-36,.cls-4,.cls-5,.cls-6,.cls-7,.cls-8,.cls-9{font-family:SuisseIntl, Suisse Intl;}.cls-4{font-size:9.66px;}.cls-5{font-size:9.66px;}.cls-6{font-size:9.66px;}.cls-7{font-size:9.66px;}.cls-8{font-size:9.66px;}.cls-9{font-size:9.66px;}.cls-10{font-size:9.66px;}.cls-11{font-size:9.66px;}.cls-12{font-size:9.66px;}.cls-13{font-size:9.66px;}.cls-14{font-size:9.66px;}.cls-15{font-size:8px;}.cls-16{font-size:8px;}.cls-17{font-size:8px;}.cls-18{font-size:8px;}.cls-19{font-size:8px;}.cls-20{font-size:8px;}.cls-21{font-size:8px;}.cls-22{font-size:8px;}.cls-23,.cls-40{font-size:5.75px;font-family:SuisseIntlMono, Suisse Intl Mono;}.cls-24{font-size:6.19px;}.cls-25{font-size:6.19px;}.cls-26{font-size:6.19px;}.cls-27{font-size:6.19px;}.cls-28{font-size:6.19px;}.cls-29{font-size:6.19px;}.cls-30{font-size:6.19px;}.cls-31{font-size:6.19px;}.cls-32{font-size:6.19px;}.cls-33{font-size:6.19px;}.cls-34{font-size:6.19px;}.cls-35{font-size:6.19px;}.cls-36{font-size:6.19px;}.cls-37{stroke-width:0.38px;}.cls-38{stroke-width:0.45px;}.cls-39{stroke-width:0.43px;}.cls-40{stroke:#fff;stroke-miterlimit:2.56;stroke-width:1.28px;}</style></defs><g id="Layer_4" data-name="Layer 4"><path class="cls-1" d="M170.73,407.24A179.76,179.76,0,1,0,26.37,198,179.77,179.77,0,0,0,170.73,407.24Z" transform="translate(-23.17 -20.94)"/><path class="cls-1" d="M401.56,341.44a105.84,105.84,0,1,0-98.7-112.53A105.84,105.84,0,0,0,401.56,341.44Z" transform="translate(-23.17 -20.94)"/><path class="cls-1" d="M429.32,171.68a68.09,68.09,0,1,0-63.49-72.39A68.07,68.07,0,0,0,429.32,171.68Z" transform="translate(-23.17 -20.94)"/><circle class="cls-1" cx="575.69" cy="274.84" r="134.88" transform="translate(97.09 700.61) rotate(-69.97)"/><path class="cls-1" d="M399.25,409.76A47.45,47.45,0,1,0,351,363.14,47.46,47.46,0,0,0,399.25,409.76Z" transform="translate(-23.17 -20.94)"/><path class="cls-2" d="M398.09,146.14a3.79,3.79,0,1,0-3.45-4.11,3.79,3.79,0,0,0,3.45,4.11" transform="translate(-23.17 -20.94)"/><path class="cls-2" d="M481.45,229.34a3.79,3.79,0,1,0-3.45-4.11,3.79,3.79,0,0,0,3.45,4.11" transform="translate(-23.17 -20.94)"/><path class="cls-2" d="M402.19,330.64a3.8,3.8,0,1,0-3.45-4.12,3.81,3.81,0,0,0,3.45,4.12" transform="translate(-23.17 -20.94)"/><path class="cls-2" d="M415,236.63a3.79,3.79,0,1,0-3.45-4.11,3.79,3.79,0,0,0,3.45,4.11" transform="translate(-23.17 -20.94)"/><path class="cls-2" d="M342.12,219.85a3.8,3.8,0,1,0-3.86-3.73,3.81,3.81,0,0,0,3.86,3.73" transform="translate(-23.17 -20.94)"/><text class="cls-3" transform="matrix(0.83, -0.55, 0.55, 0.83, 74.13, 56.27)">P</text><text class="cls-4" transform="matrix(0.85, -0.53, 0.53, 0.85, 79.37, 52.81)">R</text><text class="cls-5" transform="matrix(0.87, -0.49, 0.49, 0.87, 85.13, 49.27)">O</text><text class="cls-6" transform="translate(91.89 45.4) rotate(-27.19)">D</text><text class="cls-5" transform="translate(98.41 42.1) rotate(-25.11)">U</text><text class="cls-7" transform="translate(105.06 39.01) rotate(-22.33)">Ç</text><text class="cls-8" transform="translate(111.61 36.37) rotate(-20.93)">Ã</text><text class="cls-3" transform="translate(117.56 34.11) rotate(-18.12)">O</text><text class="cls-6" transform="translate(361.22 26.81) rotate(-39.2)">A</text><text class="cls-8" transform="translate(366.5 22.47) rotate(-33.73)">U</text><text class="cls-9" transform="translate(373.05 18.23) rotate(-26.84)">D</text><text class="cls-6" transform="matrix(0.92, -0.39, 0.39, 0.92, 379.76, 14.87)">I</text><text class="cls-10" transform="matrix(0.95, -0.32, 0.32, 0.95, 382.55, 13.61)">O</text><text class="cls-9" transform="translate(390.07 11.14) rotate(-12.82)">V</text><text class="cls-7" transform="translate(396.42 9.69) rotate(-9.96)">I</text><text class="cls-11" transform="translate(399.42 9.15) rotate(-5.66)">S</text><text class="cls-12" transform="matrix(1, 0, 0, 1, 406.2, 8.33)">U</text><text class="cls-11" transform="translate(413.37 8.47) rotate(4.48)">A</text><text class="cls-12" transform="translate(420.34 9.04) rotate(10.27)">L</text><text class="cls-7" transform="translate(426.11 10.14) rotate(13.16)"> </text><text class="cls-4" transform="matrix(0.96, 0.28, -0.28, 0.96, 428.62, 10.75)">E</text><text class="cls-9" transform="translate(434.7 12.6) rotate(20.32)"> </text><text class="cls-10" transform="matrix(0.91, 0.42, -0.42, 0.91, 437.42, 13.46)">C</text><text class="cls-10" transform="translate(444.3 16.61) rotate(30.17)">O</text><text class="cls-5" transform="matrix(0.8, 0.6, -0.6, 0.8, 451.44, 20.88)">M</text><text class="cls-12" transform="matrix(0.72, 0.69, -0.69, 0.72, 458.85, 26.46)">U</text><text class="cls-13" transform="translate(464.3 31.79) rotate(49.43)">N</text><text class="cls-13" transform="matrix(0.59, 0.8, -0.8, 0.59, 469.24, 37.72)">I</text><text class="cls-14" transform="matrix(0.54, 0.84, -0.84, 0.54, 471.16, 40.22)">C</text><text class="cls-9" transform="translate(475.09 46.64) rotate(63.16)">A</text><text class="cls-13" transform="translate(478.11 52.59) rotate(68.72)">Ç</text><text class="cls-6" transform="translate(480.79 59.6) rotate(74.35)">Ã</text><text class="cls-7" transform="translate(482.6 66.15) rotate(80.04)">O</text><text class="cls-14" transform="translate(612.05 126.1) rotate(26.33)">P</text><text class="cls-13" transform="translate(617.85 128.89) rotate(29.13)">R</text><text class="cls-11" transform="matrix(0.85, 0.53, -0.53, 0.85, 623.82, 132.24)">O</text><text class="cls-13" transform="translate(630.17 136.34) rotate(34.69)">J</text><text class="cls-8" transform="matrix(0.79, 0.61, -0.61, 0.79, 634.83, 139.56)">E</text><text class="cls-4" transform="translate(639.87 143.29) rotate(40.2)">C</text><text class="cls-13" transform="matrix(0.74, 0.67, -0.67, 0.74, 645.25, 147.87)">T</text><text class="cls-3" transform="matrix(0.71, 0.71, -0.71, 0.71, 649.32, 151.61)">O</text><text class="cls-15" transform="matrix(-0.03, 1, -1, -0.03, 316.47, 339.53)">R</text><text class="cls-16" transform="translate(316.27 345.52) rotate(83.02)">E</text><text class="cls-17" transform="matrix(0.23, 0.97, -0.97, 0.23, 316.84, 351.14)">S</text><text class="cls-18" transform="matrix(0.31, 0.95, -0.95, 0.31, 318.34, 357.03)">I</text><text class="cls-18" transform="matrix(0.38, 0.92, -0.92, 0.38, 319.16, 360.09)">D</text><text class="cls-19" transform="translate(321.81 366.28) rotate(62.55)">Ê</text><text class="cls-19" transform="matrix(0.53, 0.85, -0.85, 0.53, 324.46, 371.58)">N</text><text class="cls-20" transform="translate(328.23 377.49) rotate(54.14)">C</text><text class="cls-21" transform="translate(332.1 382.8) rotate(47.76)">I</text><text class="cls-19" transform="translate(334.03 385.1) rotate(41.44)">A</text><text class="cls-22" transform="matrix(0.81, 0.58, -0.58, 0.81, 338.51, 389.04)">S</text><text class="cls-23" transform="translate(451.31 70.09)"> </text><text class="cls-23" transform="translate(442.02 77.12)"> </text><text class="cls-23" transform="translate(598.8 206.37)"> </text><text class="cls-23" transform="translate(292.71 341.02)"> </text></g><g id="Layer_5" data-name="Layer 5"><text class="cls-24" transform="translate(27.49 224.78) rotate(62.06)">G</text><text class="cls-25" transform="matrix(0.61, 0.8, -0.8, 0.61, 29.95, 229.19)">E</text><text class="cls-26" transform="matrix(0.69, 0.72, -0.72, 0.69, 32.54, 232.74)">S</text><text class="cls-25" transform="matrix(0.75, 0.66, -0.66, 0.75, 35.71, 236.07)">T</text><text class="cls-25" transform="matrix(0.8, 0.59, -0.59, 0.8, 38.59, 238.62)">Ã</text><text class="cls-27" transform="matrix(0.85, 0.52, -0.52, 0.85, 42.32, 241.41)">O</text><text class="cls-28" transform="translate(47.11 244.4) rotate(27.97)"> </text><text class="cls-29" transform="translate(49.14 245.41) rotate(24.64)">D</text><text class="cls-30" transform="translate(53.71 247.59) rotate(18.26)">E</text><text class="cls-31" transform="translate(57.96 248.9) rotate(11.94)"> </text><text class="cls-30" transform="translate(60.15 249.47) rotate(7.58)">A</text><text class="cls-32" transform="translate(64.65 250.16) rotate(1.02)">R</text><text class="cls-31" transform="translate(69.53 250.3) rotate(-4.72)">M</text><text class="cls-27" transform="matrix(0.99, -0.17, 0.17, 0.99, 75.66, 249.79)">A</text><text class="cls-32" transform="translate(80.46 248.96) rotate(-14.23)">Z</text><text class="cls-30" transform="translate(85.08 247.76) rotate(-17.5)">É</text><text class="cls-25" transform="matrix(0.93, -0.36, 0.36, 0.93, 89.51, 246.45)">M</text><text class="cls-32" transform="matrix(0.76, 0.65, -0.65, 0.76, 522.1, 229.32)"> </text><text class="cls-33" transform="translate(506.71 206) rotate(71.97)">G</text><text class="cls-34" transform="translate(508.28 210.88) rotate(63.52)">E</text><text class="cls-32" transform="matrix(0.53, 0.85, -0.85, 0.53, 510.26, 214.89)">S</text><text class="cls-25" transform="matrix(0.6, 0.8, -0.8, 0.6, 512.61, 218.82)">T</text><text class="cls-26" transform="matrix(0.66, 0.76, -0.76, 0.66, 515, 221.9)">Ã</text><text class="cls-24" transform="translate(518.02 225.39) rotate(43.99)">O</text><text class="cls-28" transform="translate(523.9 230.86) rotate(38.06)">D</text><text class="cls-27" transform="translate(528.1 234.2) rotate(33.89)">E</text><text class="cls-27" transform="translate(531.88 236.76) rotate(30.88)"> </text><text class="cls-27" transform="matrix(0.9, 0.44, -0.44, 0.9, 533.72, 237.92)">P</text><text class="cls-27" transform="matrix(0.94, 0.34, -0.34, 0.94, 537.8, 239.86)">R</text><text class="cls-34" transform="translate(542.22 241.54) rotate(12.79)">O</text><text class="cls-24" transform="translate(547.63 242.73) rotate(9.06)">J</text><text class="cls-27" transform="matrix(1, 0.08, -0.08, 1, 551.69, 243.34)">E</text><path class="cls-2" d="M583.77,263.27a2.2,2.2,0,0,1-.25.65,2,2,0,0,1-.44.47,1.84,1.84,0,0,1-.58.28,2.48,2.48,0,0,1-.68.09,2,2,0,0,1-.86-.18,1.92,1.92,0,0,1-.64-.49,2.18,2.18,0,0,1-.39-.74,3.1,3.1,0,0,1-.13-.94,2.54,2.54,0,0,1,.16-.94,2.09,2.09,0,0,1,.42-.73,2,2,0,0,1,.66-.47,2.2,2.2,0,0,1,.86-.16,2.4,2.4,0,0,1,.66.11,1.83,1.83,0,0,1,.55.3,1.74,1.74,0,0,1,.41.48,2,2,0,0,1,.24.64h-.61a1.68,1.68,0,0,0-.16-.39,1.3,1.3,0,0,0-.26-.31,1.28,1.28,0,0,0-.38-.21,1.43,1.43,0,0,0-.48-.07,1.17,1.17,0,0,0-.56.11,1.19,1.19,0,0,0-.45.33,1.58,1.58,0,0,0-.3.56,2.54,2.54,0,0,0-.12.77,2.59,2.59,0,0,0,.1.76,1.91,1.91,0,0,0,.29.57,1.37,1.37,0,0,0,.45.35,1.41,1.41,0,0,0,.58.13,1.28,1.28,0,0,0,.86-.27,1.26,1.26,0,0,0,.44-.7Z" transform="translate(-23.17 -20.94)"/><text class="cls-25" transform="matrix(1, -0.06, 0.06, 1, 561.42, 243.77)">T</text><text class="cls-32" transform="translate(565.74 243.56) rotate(-5.82)">O</text><text class="cls-28" transform="matrix(1, 0.05, -0.05, 1, 565.53, 362.48)">D</text><text class="cls-34" transform="matrix(1, -0.08, 0.08, 1, 570.56, 362.74)">E</text><text class="cls-32" transform="translate(574.94 362.38) rotate(-10.89)">S</text><text class="cls-25" transform="translate(579.54 361.48) rotate(-15.76)">E</text><text class="cls-27" transform="translate(583.91 360.25) rotate(-20.77)">N</text><text class="cls-25" transform="matrix(0.9, -0.44, 0.44, 0.9, 588.89, 358.41)">H</text><text class="cls-24" transform="translate(593.76 356.04) rotate(-30.09)">O</text><text class="cls-28" transform="translate(598.71 353.15) rotate(-33.45)"> </text><text class="cls-31" transform="translate(600.65 351.78) rotate(-36.39)">E</text><text class="cls-24" transform="translate(604.32 349.21) rotate(-41.49)"> </text><text class="cls-28" transform="translate(605.97 347.71) rotate(-44.72)">P</text><text class="cls-32" transform="translate(609.28 344.44) rotate(-50.75)">R</text><text class="cls-26" transform="matrix(0.56, -0.83, 0.83, 0.56, 612.29, 340.64)">E</text><text class="cls-28" transform="matrix(0.48, -0.88, 0.88, 0.48, 614.72, 336.96)">P</text><text class="cls-31" transform="translate(616.89 333.24) rotate(-65.53)">A</text><text class="cls-26" transform="matrix(0.35, -0.94, 0.94, 0.35, 618.93, 328.85)">R</text><text class="cls-25" transform="matrix(0.29, -0.96, 0.96, 0.29, 620.75, 324.1)">A</text><text class="cls-32" transform="translate(622.11 319.56) rotate(-76.45)">Ç</text><text class="cls-35" transform="translate(623.4 314.4) rotate(-79.57)">Ã</text><text class="cls-24" transform="matrix(0.13, -0.99, 0.99, 0.13, 624.29, 309.77)">O</text><text class="cls-30" transform="translate(135.39 133.65) rotate(63.32)">P</text><text class="cls-24" transform="translate(137.4 137.62) rotate(55.7)">R</text><text class="cls-30" transform="matrix(0.66, 0.75, -0.75, 0.66, 139.96, 141.55)">O</text><text class="cls-36" transform="translate(143.59 145.66) rotate(43.1)">D</text><text class="cls-26" transform="matrix(0.79, 0.62, -0.62, 0.79, 147.37, 149.2)">U</text><text class="cls-24" transform="translate(151.53 152.48) rotate(32.99)">Ç</text><text class="cls-27" transform="matrix(0.87, 0.49, -0.49, 0.87, 155.92, 155.31)">Ã</text><text class="cls-24" transform="matrix(0.9, 0.44, -0.44, 0.9, 160.05, 157.67)">O</text><text class="cls-24" transform="matrix(0.84, -0.54, 0.54, 0.84, 120.91, 235.15)">S</text><text class="cls-31" transform="translate(124.7 232.67) rotate(-28.58)">E</text><text class="cls-25" transform="translate(128.42 230.71) rotate(-25.79)">R</text><text class="cls-25" transform="translate(132.68 228.69) rotate(-21.58)">R</text><text class="cls-30" transform="translate(137.02 226.92) rotate(-18.75)">A</text><text class="cls-24" transform="translate(141.36 225.54) rotate(-14.47)">L</text><text class="cls-25" transform="translate(145.25 224.49) rotate(-11.59)">H</text><text class="cls-27" transform="translate(150.29 223.52) rotate(-7.24)">A</text><text class="cls-36" transform="translate(154.94 222.87) rotate(-2.86)">R</text><text class="cls-25" transform="matrix(1, -0.02, 0.02, 1, 159.43, 222.69)">I</text><text class="cls-24" transform="translate(161.61 222.73) rotate(1.54)">A</text><text class="cls-35" transform="matrix(0.56, -0.83, 0.83, 0.56, 38.15, 125.54)">L</text><text class="cls-31" transform="translate(40.3 122.32) rotate(-48.77)">O</text><text class="cls-29" transform="translate(44.05 118.23) rotate(-40.57)">G</text><text class="cls-27" transform="matrix(0.82, -0.57, 0.57, 0.82, 48.22, 114.8)">Í</text><text class="cls-26" transform="translate(49.98 113.55) rotate(-29.6)">S</text><text class="cls-29" transform="translate(53.91 111.3) rotate(-22.67)">T</text><text class="cls-24" transform="translate(57.56 109.85) rotate(-18.47)">I</text><path class="cls-2" d="M86.73,127.66a1.81,1.81,0,0,1-.41,1.25,1.83,1.83,0,0,1-.5.41,2.51,2.51,0,0,1-.65.25,2,2,0,0,1-.87,0,1.91,1.91,0,0,1-.74-.33,2.12,2.12,0,0,1-.55-.63,3.23,3.23,0,0,1-.34-.89,2.58,2.58,0,0,1-.06-.95,2.13,2.13,0,0,1,.24-.81,1.93,1.93,0,0,1,.54-.6,2,2,0,0,1,.8-.35,1.88,1.88,0,0,1,.66,0,2,2,0,0,1,.61.16,2.2,2.2,0,0,1,.51.37,2.1,2.1,0,0,1,.38.57l-.6.14a1.21,1.21,0,0,0-.24-.35,1.27,1.27,0,0,0-.33-.24,1.13,1.13,0,0,0-.41-.11,1.44,1.44,0,0,0-1,.27,1.17,1.17,0,0,0-.36.43,1.61,1.61,0,0,0-.17.61,2.88,2.88,0,0,0,.34,1.49,2,2,0,0,0,.41.49,1.36,1.36,0,0,0,.52.24,1.31,1.31,0,0,0,.59,0,1.28,1.28,0,0,0,.78-.46,1.24,1.24,0,0,0,.26-.78Z" transform="translate(-23.17 -20.94)"/><text class="cls-25" transform="translate(64.68 107.98) rotate(-5.66)">A</text><text class="cls-24" transform="matrix(0.97, 0.25, -0.25, 0.97, 232.87, 162.7)">P</text><text class="cls-25" transform="translate(237.19 163.77) rotate(18.89)">I</text><text class="cls-34" transform="translate(239.41 164.63) rotate(24.57)">N</text><text class="cls-26" transform="matrix(0.84, 0.54, -0.54, 0.84, 244.39, 166.94)">T</text><text class="cls-24" transform="matrix(0.77, 0.64, -0.64, 0.77, 248.09, 169.34)">U</text><text class="cls-25" transform="matrix(0.67, 0.74, -0.74, 0.67, 252.19, 172.79)">R</text><text class="cls-27" transform="matrix(0.57, 0.82, -0.82, 0.57, 255.53, 176.59)">A</text><text class="cls-23" transform="translate(373.2 192.88)">JOSÉ M PINTO</text><text class="cls-23" transform="translate(380.62 199.91)">Director</text><text class="cls-23" transform="translate(385.25 129.69)">BRUNO LANÇA</text><text class="cls-23" transform="translate(426.11 129.69)"> </text><text class="cls-23" transform="translate(375.96 136.72)">Coordenador AV&amp;C</text><text class="cls-23" transform="translate(435.4 136.72)"> </text><text class="cls-23" transform="translate(434.58 220.02)">ANA TRABULO</text><text class="cls-23" transform="translate(475.45 220.02)"> </text><text class="cls-23" transform="translate(438.3 227.05)">Directora </text><text class="cls-23" transform="translate(475.45 227.05)"> </text><text class="cls-23" transform="translate(440.15 234.08)">Projecto</text><text class="cls-23" transform="translate(352.53 276.42)">FRANCISCA BARROS</text><text class="cls-23" transform="translate(411.97 276.42)"> </text><text class="cls-23" transform="translate(359.96 283.45)">Coordenadora </text><text class="cls-23" transform="translate(408.25 283.45)"> </text><text class="cls-23" transform="translate(365.53 290.48)">Artística</text><text class="cls-23" transform="translate(292.93 210.72)">VALENTIM NEVES</text><text class="cls-23" transform="translate(344.94 210.72)"> </text><text class="cls-23" transform="translate(298.5 217.74)">Director de </text><text class="cls-23" transform="translate(343.08 217.74)"> </text><text class="cls-23" transform="translate(304.08 224.77)">Produção</text><path class="cls-1" d="M208.22,175.6a54.08,54.08,0,1,0-50.42-57.49A54.08,54.08,0,0,0,208.22,175.6Z" transform="translate(-23.17 -20.94)"/><path class="cls-1" d="M180,385.83c37.4,2.45,69.73-26.3,72.22-64.21S226.39,251,189,248.53s-69.73,26.3-72.22,64.21S142.58,383.38,180,385.83Z" transform="translate(-23.17 -20.94)"/><path class="cls-37" d="M127,168.81a33.35,33.35,0,1,0-35.46,31.1A33.35,33.35,0,0,0,127,168.81Z" transform="translate(-23.17 -20.94)"/><path class="cls-37" d="M246.48,254.3a33.35,33.35,0,1,0-31.09-35.46A33.36,33.36,0,0,0,246.48,254.3Z" transform="translate(-23.17 -20.94)"/><path class="cls-38" d="M132.51,225.52a39.31,39.31,0,1,0-41.8,36.66A39.3,39.3,0,0,0,132.51,225.52Z" transform="translate(-23.17 -20.94)"/><path class="cls-39" d="M582.65,374.55a51.7,51.7,0,1,0-47-56A51.7,51.7,0,0,0,582.65,374.55Z" transform="translate(-23.17 -20.94)"/><path class="cls-39" d="M582.65,255.39a51.7,51.7,0,1,0-47-56A51.69,51.69,0,0,0,582.65,255.39Z" transform="translate(-23.17 -20.94)"/></g><g id="Layer_6" data-name="Layer 6"><text class="cls-25" transform="translate(221.41 162.09) rotate(-4.22)"> </text><text class="cls-27" transform="translate(223.17 162.07) rotate(-2.77)"> </text><text class="cls-34" transform="translate(224.97 161.97) rotate(0.12)"> </text><text class="cls-30" transform="translate(227.05 161.99) rotate(3.02)"> </text><text class="cls-31" transform="matrix(0.99, 0.1, -0.1, 0.99, 228.91, 162.17)"> </text><text class="cls-25" transform="translate(230.74 162.3) rotate(8.82)"> </text><text class="cls-23" transform="translate(392.34 70.24)">BERNARDO BORDALO</text><text class="cls-23" transform="translate(451.78 70.24)"> </text><text class="cls-23" transform="translate(401.63 77.27)">Audiovisual</text><text class="cls-23" transform="translate(442.5 77.27)"> </text><text class="cls-23" transform="translate(475.45 220.02)"> </text><text class="cls-23" transform="translate(475.45 227.05)"> </text><text class="cls-23" transform="translate(534.03 171.49)">MARIA D&apos;OREY</text><text class="cls-23" transform="translate(578.61 171.49)"> </text><text class="cls-23" transform="translate(521.03 178.52)">Gestora de Projecto</text><text class="cls-23" transform="translate(591.61 178.52)"> </text><text class="cls-23" transform="translate(558.41 199.5)">RUI BARROS</text><text class="cls-23" transform="translate(595.56 199.5)"> </text><text class="cls-23" transform="translate(558.41 206.53)">Assistente </text><text class="cls-23" transform="translate(599.27 206.53)"> </text><text class="cls-23" transform="translate(562.12 213.56)">Projecto</text><text class="cls-23" transform="translate(591.84 213.56)"> </text><text class="cls-23" transform="translate(528.07 283.78)">FRANCISCO </text><text class="cls-23" transform="translate(565.22 283.78)"> </text><text class="cls-23" transform="translate(531.78 290.81)">FONSECA</text><text class="cls-23" transform="translate(585.61 289.04)">PEDRO </text><text class="cls-23" transform="translate(607.9 289.04)"> </text><text class="cls-23" transform="translate(585.61 296.07)">SILVA</text><text class="cls-23" transform="translate(604.19 296.07)"> </text><text class="cls-23" transform="translate(540.91 331.89)">TIAGO </text><text class="cls-23" transform="translate(563.2 331.89)"> </text><text class="cls-23" transform="translate(539.05 338.91)">NOVAIS</text><text class="cls-23" transform="translate(561.34 338.91)"> </text><text class="cls-23" transform="translate(52 152.24)">SARA SERRA</text><text class="cls-23" transform="translate(89.16 152.24)"> </text><text class="cls-23" transform="translate(42.72 159.27)">Finanças &amp; Log.</text><text class="cls-23" transform="translate(98.44 159.27)"> </text><text class="cls-23" transform="translate(57.72 123.13)">CLÁUDIA </text><text class="cls-23" transform="translate(87.44 123.13)"> </text><text class="cls-23" transform="translate(59.57 130.16)">SANTOS</text><text class="cls-40" transform="translate(76.23 197.64)">PEDRO GRAÇA</text><text class="cls-23" transform="translate(76.23 197.64)">PEDRO GRAÇA</text><text class="cls-40" transform="translate(22.72 200.85)">YUDAMI</text><text class="cls-40" transform="translate(45.01 200.85)"> </text><text class="cls-23" transform="translate(22.72 200.85)">YUDAMI</text><text class="cls-23" transform="translate(45.01 200.85)"> </text><text class="cls-40" transform="translate(9.72 207.88)">Ferramentaria</text><text class="cls-40" transform="translate(58.02 207.88)"> </text><text class="cls-23" transform="translate(9.72 207.88)">Ferramentaria</text><text class="cls-23" transform="translate(58.02 207.88)"> </text><text class="cls-40" transform="translate(62.14 218.98)">SÓNIA</text><text class="cls-23" transform="translate(62.14 218.98)">SÓNIA</text><text class="cls-40" transform="translate(80.72 218.98)"> </text><text class="cls-23" transform="translate(80.72 218.98)"> </text><text class="cls-40" transform="translate(52.85 226.01)">Manutenção </text><text class="cls-40" transform="translate(93.72 226.01)"> </text><text class="cls-23" transform="translate(52.85 226.01)">Manutenção </text><text class="cls-23" transform="translate(93.72 226.01)"> </text><text class="cls-40" transform="translate(54.71 233.04)">e Limpeza</text><text class="cls-40" transform="translate(88.15 233.04)"> </text><text class="cls-23" transform="translate(54.71 233.04)">e Limpeza</text><text class="cls-23" transform="translate(88.15 233.04)"> </text><text class="cls-40" transform="translate(237.08 195.44)">AMÉRICO</text><text class="cls-40" transform="translate(263.08 195.44)"> </text><text class="cls-23" transform="translate(237.08 195.44)">AMÉRICO</text><text class="cls-23" transform="translate(263.08 195.44)"> </text><text class="cls-40" transform="translate(229.65 202.47)">Coordenador</text><text class="cls-23" transform="translate(229.65 202.47)">Coordenador</text><text class="cls-40" transform="translate(190.25 207.28)">SÉRGIO</text><text class="cls-40" transform="translate(212.54 207.28)"> </text><text class="cls-23" transform="translate(190.25 207.28)">SÉRGIO</text><text class="cls-23" transform="translate(212.54 207.28)"> </text><text class="cls-40" transform="translate(188.4 214.31)">Técnico</text><text class="cls-23" transform="translate(188.4 214.31)">Técnico</text><text class="cls-40" transform="translate(199.54 187.19)">BRYAN</text><text class="cls-40" transform="translate(218.11 187.19)"> </text><text class="cls-23" transform="translate(199.54 187.19)">BRYAN</text><text class="cls-23" transform="translate(218.11 187.19)"> </text><text class="cls-40" transform="translate(195.82 194.21)">Técnico</text><text class="cls-23" transform="translate(195.82 194.21)">Técnico</text><text class="cls-40" transform="translate(235.44 225.48)">JORGE</text><text class="cls-40" transform="translate(254.02 225.48)"> </text><text class="cls-23" transform="translate(235.44 225.48)">JORGE</text><text class="cls-23" transform="translate(254.02 225.48)"> </text><text class="cls-40" transform="translate(218.72 232.51)">Técnico Fibras</text><text class="cls-23" transform="translate(218.72 232.51)">Técnico Fibras</text><text class="cls-40" transform="translate(164.88 105.31)">CARLOS ARTEIRO</text><text class="cls-40" transform="translate(216.89 105.31)"> </text><text class="cls-23" transform="translate(164.88 105.31)">CARLOS ARTEIRO</text><text class="cls-23" transform="translate(216.89 105.31)"> </text><text class="cls-40" transform="translate(170.45 112.34)">Coordenador</text><text class="cls-23" transform="translate(170.45 112.34)">Coordenador</text><text class="cls-40" transform="translate(234.81 109.68)">ANDRÉ COELHO</text><text class="cls-40" transform="translate(279.39 109.68)"> </text><text class="cls-23" transform="translate(234.81 109.68)">ANDRÉ COELHO</text><text class="cls-23" transform="translate(279.39 109.68)"> </text><text class="cls-40" transform="translate(236.67 116.71)">Coord. Adj.</text><text class="cls-23" transform="translate(236.67 116.71)">Coord. Adj.</text><text class="cls-40" transform="translate(191.77 55.74)">ALFREDO LAPA</text><text class="cls-40" transform="translate(236.35 55.74)"> </text><text class="cls-23" transform="translate(191.77 55.74)">ALFREDO LAPA</text><text class="cls-23" transform="translate(236.35 55.74)"> </text><text class="cls-40" transform="translate(201.05 62.77)">Técnico</text><text class="cls-23" transform="translate(201.05 62.77)">Técnico</text><text class="cls-40" transform="translate(130.62 62.91)">RENATO CABRAL</text><text class="cls-40" transform="translate(178.91 62.91)"> </text><text class="cls-23" transform="translate(130.62 62.91)">RENATO CABRAL</text><text class="cls-23" transform="translate(178.91 62.91)"> </text><text class="cls-40" transform="translate(141.76 69.94)">Técnico</text><text class="cls-23" transform="translate(141.76 69.94)">Técnico</text><text class="cls-40" transform="translate(213.57 86.59)">LEONARDO CENA</text><text class="cls-40" transform="translate(261.87 86.59)"> </text><text class="cls-23" transform="translate(213.57 86.59)">LEONARDO CENA</text><text class="cls-23" transform="translate(261.87 86.59)"> </text><text class="cls-40" transform="translate(224.71 93.62)">Técnico</text><text class="cls-23" transform="translate(224.71 93.62)">Técnico</text><text class="cls-40" transform="translate(111.62 96.87)">ANTÓNIO ESTEVES</text><text class="cls-40" transform="translate(167.35 96.87)"> </text><text class="cls-23" transform="translate(111.62 96.87)">ANTÓNIO ESTEVES</text><text class="cls-23" transform="translate(167.35 96.87)"> </text><text class="cls-40" transform="translate(126.48 103.9)">Técnico</text><text class="cls-23" transform="translate(126.48 103.9)">Técnico</text><text class="cls-40" transform="translate(153.56 135.8)">LUÍS RAMOS</text><text class="cls-40" transform="translate(190.71 135.8)"> </text><text class="cls-23" transform="translate(153.56 135.8)">LUÍS RAMOS</text><text class="cls-23" transform="translate(190.71 135.8)"> </text><text class="cls-40" transform="translate(159.13 142.83)">Técnico</text><text class="cls-23" transform="translate(159.13 142.83)">Técnico</text><text class="cls-40" transform="translate(197.72 132.32)">ÁLVARO OLIVEIRA</text><text class="cls-40" transform="translate(253.45 132.32)"> </text><text class="cls-23" transform="translate(197.72 132.32)">ÁLVARO OLIVEIRA</text><text class="cls-23" transform="translate(253.45 132.32)"> </text><text class="cls-40" transform="translate(212.58 139.34)">Técnico</text><text class="cls-23" transform="translate(212.58 139.34)">Técnico</text><text class="cls-40" transform="translate(137.46 290.91)">RICARDO FELICIANO</text><text class="cls-40" transform="translate(200.62 290.91)"> </text><text class="cls-23" transform="translate(137.46 290.91)">RICARDO FELICIANO</text><text class="cls-23" transform="translate(200.62 290.91)"> </text><text class="cls-40" transform="translate(148.61 297.93)">Coordenador</text><text class="cls-23" transform="translate(148.61 297.93)">Coordenador</text><text class="cls-40" transform="translate(141.8 365.8)">EDUARDO REGULFE</text><text class="cls-40" transform="translate(197.52 365.8)"> </text><text class="cls-23" transform="translate(141.8 365.8)">EDUARDO REGULFE</text><text class="cls-23" transform="translate(197.52 365.8)"> </text><text class="cls-40" transform="translate(149.23 372.83)">Serralheiro</text><text class="cls-23" transform="translate(149.23 372.83)">Serralheiro</text><text class="cls-40" transform="translate(215.05 311.69)">BRUNO SANTOS</text><text class="cls-40" transform="translate(259.63 311.69)"> </text><text class="cls-23" transform="translate(215.05 311.69)">BRUNO SANTOS</text><text class="cls-23" transform="translate(259.63 311.69)"> </text><text class="cls-40" transform="translate(216.91 318.72)">Serralheiro</text><text class="cls-23" transform="translate(216.91 318.72)">Serralheiro</text><text class="cls-40" transform="translate(109.9 326.67)">ARMANDO ESCOBAR</text><text class="cls-40" transform="translate(165.62 326.67)"> </text><text class="cls-23" transform="translate(109.9 326.67)">ARMANDO ESCOBAR</text><text class="cls-23" transform="translate(165.62 326.67)"> </text><text class="cls-40" transform="translate(117.33 333.7)">Serralheiro</text><text class="cls-23" transform="translate(117.33 333.7)">Serralheiro</text><text class="cls-40" transform="translate(186.88 334.58)">HÉLDER FERNANDES</text><text class="cls-40" transform="translate(246.32 334.58)"> </text><text class="cls-23" transform="translate(186.88 334.58)">HÉLDER FERNANDES</text><text class="cls-23" transform="translate(246.32 334.58)"> </text><text class="cls-40" transform="translate(183.16 341.61)">Mestre Serralheiro</text><text class="cls-23" transform="translate(183.16 341.61)">Mestre Serralheiro</text><text class="cls-40" transform="translate(154.33 267.56)">DOMINGOS FERREIRA</text><text class="cls-40" transform="translate(217.48 267.56)"> </text><text class="cls-23" transform="translate(154.33 267.56)">DOMINGOS FERREIRA</text><text class="cls-23" transform="translate(217.48 267.56)"> </text><text class="cls-40" transform="translate(165.47 274.59)">Serralheiro</text><text class="cls-23" transform="translate(165.47 274.59)">Serralheiro</text><text class="cls-40" transform="translate(124.8 244.12)">IVO PEREIRA</text><text class="cls-40" transform="translate(165.67 244.12)"> </text><text class="cls-23" transform="translate(124.8 244.12)">IVO PEREIRA</text><text class="cls-23" transform="translate(165.67 244.12)"> </text><text class="cls-40" transform="translate(124.8 251.15)">Serralheiro</text><text class="cls-23" transform="translate(124.8 251.15)">Serralheiro</text><text class="cls-40" transform="translate(78 269.87)">CARLOS SANTOS</text><text class="cls-40" transform="translate(126.3 269.87)"> </text><text class="cls-23" transform="translate(78 269.87)">CARLOS SANTOS</text><text class="cls-23" transform="translate(126.3 269.87)"> </text><text class="cls-40" transform="translate(68.71 276.89)">Mestre Serralheiro</text><text class="cls-23" transform="translate(68.71 276.89)">Mestre Serralheiro</text><text class="cls-40" transform="translate(85.6 303.41)">INÊS COELHO</text><text class="cls-40" transform="translate(126.47 303.41)"> </text><text class="cls-23" transform="translate(85.6 303.41)">INÊS COELHO</text><text class="cls-23" transform="translate(126.47 303.41)"> </text><text class="cls-40" transform="translate(85.6 310.44)">Coord. Adj.</text><text class="cls-23" transform="translate(85.6 310.44)">Coord. Adj.</text><path class="cls-2" d="M540.49,187.23a3.79,3.79,0,1,0-3.45-4.11,3.8,3.8,0,0,0,3.45,4.11" transform="translate(-23.17 -20.94)"/><path class="cls-2" d="M546.61,295.89a3.79,3.79,0,1,0-3.45-4.11,3.81,3.81,0,0,0,3.45,4.11" transform="translate(-23.17 -20.94)"/><path class="cls-2" d="M244.27,229a3.8,3.8,0,1,0-3.86-3.73,3.79,3.79,0,0,0,3.86,3.73" transform="translate(-23.17 -20.94)"/><path class="cls-2" d="M249.9,134a3.8,3.8,0,1,0-2.85-4.56A3.8,3.8,0,0,0,249.9,134" transform="translate(-23.17 -20.94)"/><path class="cls-2" d="M197.07,100.3a3.8,3.8,0,1,0-2.85-4.55,3.79,3.79,0,0,0,2.85,4.55" transform="translate(-23.17 -20.94)"/><path class="cls-2" d="M182.38,146.64a3.8,3.8,0,1,0-2.85-4.56,3.8,3.8,0,0,0,2.85,4.56" transform="translate(-23.17 -20.94)"/><path class="cls-2" d="M225.83,333.12a3.79,3.79,0,1,0-2.84-4.55,3.8,3.8,0,0,0,2.84,4.55" transform="translate(-23.17 -20.94)"/><path class="cls-2" d="M205.28,350.17a3.79,3.79,0,1,0-2.84-4.55,3.8,3.8,0,0,0,2.84,4.55" transform="translate(-23.17 -20.94)"/><path class="cls-2" d="M170.76,108.11a3.79,3.79,0,1,0-2.84-4.55,3.79,3.79,0,0,0,2.84,4.55" transform="translate(-23.17 -20.94)"/><path class="cls-2" d="M157.42,367.48a3.79,3.79,0,1,0-2.85-4.55,3.79,3.79,0,0,0,2.85,4.55" transform="translate(-23.17 -20.94)"/><path class="cls-2" d="M189.19,375.2a3.79,3.79,0,1,0-2.84-4.55,3.8,3.8,0,0,0,2.84,4.55" transform="translate(-23.17 -20.94)"/><path class="cls-2" d="M212.37,117.43a3.79,3.79,0,1,0-2.84-4.55,3.79,3.79,0,0,0,2.84,4.55" transform="translate(-23.17 -20.94)"/><path class="cls-2" d="M215.21,94a3.79,3.79,0,1,0-2.84-4.55A3.79,3.79,0,0,0,215.21,94" transform="translate(-23.17 -20.94)"/><path class="cls-2" d="M637.5,313.92a3.79,3.79,0,1,0-3.45-4.11,3.79,3.79,0,0,0,3.45,4.11" transform="translate(-23.17 -20.94)"/><path class="cls-2" d="M577.34,377.83a3.79,3.79,0,1,0-3.45-4.11,3.81,3.81,0,0,0,3.45,4.11" transform="translate(-23.17 -20.94)"/><path class="cls-2" d="M633.2,232.47a3.79,3.79,0,1,0-3.45-4.11,3.79,3.79,0,0,0,3.45,4.11" transform="translate(-23.17 -20.94)"/><path class="cls-2" d="M267.71,235.55a3.79,3.79,0,1,0-3.45-4.11,3.78,3.78,0,0,0,3.45,4.11" transform="translate(-23.17 -20.94)"/><path class="cls-2" d="M248.71,205.77a3.8,3.8,0,1,0-3.86-3.72,3.78,3.78,0,0,0,3.86,3.72" transform="translate(-23.17 -20.94)"/><path class="cls-2" d="M98.2,191.71a3.8,3.8,0,1,0-3.73,3.86,3.79,3.79,0,0,0,3.73-3.86" transform="translate(-23.17 -20.94)"/><path class="cls-2" d="M248.77,243.36a3.8,3.8,0,1,0-3.86-3.73,3.8,3.8,0,0,0,3.86,3.73" transform="translate(-23.17 -20.94)"/><path class="cls-2" d="M445.76,81.76a3.79,3.79,0,1,0-3.45-4.11,3.78,3.78,0,0,0,3.45,4.11" transform="translate(-23.17 -20.94)"/><path class="cls-2" d="M232.67,146.07a3.8,3.8,0,1,0-3.86-3.73,3.8,3.8,0,0,0,3.86,3.73" transform="translate(-23.17 -20.94)"/><path class="cls-2" d="M135.41,311.26a3.8,3.8,0,1,0-3.86-3.73,3.8,3.8,0,0,0,3.86,3.73" transform="translate(-23.17 -20.94)"/><path class="cls-2" d="M158.84,329.3a3.8,3.8,0,1,0-3.86-3.73,3.78,3.78,0,0,0,3.86,3.73" transform="translate(-23.17 -20.94)"/><path class="cls-2" d="M167.66,286.53a3.8,3.8,0,1,0-3.86-3.73,3.8,3.8,0,0,0,3.86,3.73" transform="translate(-23.17 -20.94)"/><path class="cls-2" d="M207.73,276.33a3.8,3.8,0,1,0-3.86-3.72,3.8,3.8,0,0,0,3.86,3.72" transform="translate(-23.17 -20.94)"/><path class="cls-2" d="M119.32,206.44a3.8,3.8,0,1,0-3.73,3.86,3.81,3.81,0,0,0,3.73-3.86" transform="translate(-23.17 -20.94)"/><path class="cls-2" d="M73.15,208.15A3.8,3.8,0,1,0,69.42,212a3.79,3.79,0,0,0,3.73-3.86" transform="translate(-23.17 -20.94)"/><path class="cls-2" d="M97.47,159.91a3.8,3.8,0,1,0-3.73,3.86,3.8,3.8,0,0,0,3.73-3.86" transform="translate(-23.17 -20.94)"/><path class="cls-2" d="M98.39,227.45a3.8,3.8,0,1,0-3.73,3.86,3.78,3.78,0,0,0,3.73-3.86" transform="translate(-23.17 -20.94)"/><path class="cls-2" d="M239.42,98.55a3.8,3.8,0,1,0-3.86-3.73,3.81,3.81,0,0,0,3.86,3.73" transform="translate(-23.17 -20.94)"/><path class="cls-2" d="M182.19,332.78a3.79,3.79,0,1,0-2.84-4.55,3.8,3.8,0,0,0,2.84,4.55" transform="translate(-23.17 -20.94)"/></g></svg>