<svg xmlns="http://www.w3.org/2000/svg" viewBox="0 0 136.85 133.17"><defs><style>.cls-1{fill:#fff;}.cls-2{fill:#010101;}</style></defs><g id="Layer_2" data-name="Layer 2"><g id="Camada_1" data-name="Camada 1"><path class="cls-1" d="M29.65,108.63h0v-.21l-8.79-31.5V76.5H0a1.1,1.1,0,0,0,0,.57L1.28,81l14.23,43.81,2.37,7.38a.54.54,0,0,0,.31.58H41.6l.18-.61L46,115.38l5.14-20.31L55,79.87l.76-3v-.49c0-.18-17.3,0-17.79,0v.46l-2.37,9.7L31,105.2l-.79,3h0Z"/><path class="cls-2" d="M80.7,0l.88,3.37L85.5,18.58l5.35,21,4.9,19.12v.58H77.14c-.33-1.07-.55-2.16-.85-3.23s-.55-2.15-.82-3.22l-.82-3.22-.82-3.22-.82-3-.83-3-.82-3.23-.82-3.22-.82-3.22-.82-3.32h-.42v.16l-.52,2L64.49,42.57l-3.31,13-.82,3.22v.52h-18a2.29,2.29,0,0,1,0-.37l1.67-6.78,3.68-14.93L51.3,22.5,55.16,6.75,56.68.67a5,5,0,0,0,0-.55Z"/><path class="cls-2" d="M136.85,76.71c-.18.18,0,.42-.21.64-.33,1-.64,2-1,3l-14.29,44.72-2.28,7.15-.19.48H95.84l-.21-.76L81.49,76.59h18.64c.39,1.36.69,2.7,1.06,4l1,4,1.19,3.8,1,4,1,4,1,4,1,4c.34,1.34.67,2.7,1,4H109l4.41-16.08,4.41-16.12h19.06Z"/><path class="cls-2" d="M29.65,108.63h.4l.79-3,4.59-18.7,2.37-9.7v-.45H55.58c.49,0,0,.33,0,.49l-.76,3L51,95.47l-5.14,20.31-4.22,16.78-.18.61H18.28c-.21,0-.24-.37-.31-.58L15.6,125.2,1.44,81,0,77.07a1.1,1.1,0,0,1,0-.57H20.71v.42l8.82,31.38v.21Z"/></g></g></svg>