<svg xmlns="http://www.w3.org/2000/svg" viewBox="0 0 687.62 394.49"><defs><style>.cls-1,.cls-10,.cls-11,.cls-12,.cls-13,.cls-14,.cls-15,.cls-16,.cls-3,.cls-4,.cls-5,.cls-6,.cls-7,.cls-8,.cls-9{fill:#3953a4;}.cls-17,.cls-18,.cls-19,.cls-2,.cls-20{fill:none;}.cls-17,.cls-18,.cls-19,.cls-2{stroke:#3953a4;}.cls-2{stroke-width:0.44px;}.cls-3{font-size:6.19px;}.cls-10,.cls-11,.cls-12,.cls-13,.cls-14,.cls-15,.cls-3,.cls-4,.cls-5,.cls-6,.cls-7,.cls-8,.cls-9{font-family:SuisseIntl, Suisse Intl;}.cls-4{font-size:6.19px;}.cls-5{font-size:6.19px;}.cls-6{font-size:6.19px;}.cls-7{font-size:6.19px;}.cls-8{font-size:6.19px;}.cls-9{font-size:6.19px;}.cls-10{font-size:6.19px;}.cls-11{font-size:6.19px;}.cls-12{font-size:6.19px;}.cls-13{font-size:6.19px;}.cls-14{font-size:6.19px;}.cls-15{font-size:6.19px;}.cls-16,.cls-20{font-size:5.75px;font-family:SuisseIntlMono, Suisse Intl Mono;}.cls-17{stroke-width:0.38px;}.cls-18{stroke-width:0.45px;}.cls-19{stroke-width:0.43px;}.cls-20{stroke:#fff;stroke-miterlimit:2.56;stroke-width:1.28px;}</style></defs><g id="Layer_2" data-name="Layer 2"><path class="cls-1" d="M529.07,264.9l.85-.82,7,3.36-.79.76-1.5-.74-2.41,2.3.68,1.52-.75.72Zm2.76,4,1.95-1.86-3.6-1.8Z" transform="translate(-174.71 -242.07)"/><path class="cls-1" d="M533.48,260.89l2.75,3.45a2.46,2.46,0,0,0,1.32,1,1.8,1.8,0,0,0,1.45-.5,1.75,1.75,0,0,0,.79-1.36,2.68,2.68,0,0,0-.68-1.55l-2.69-3.36.8-.64,2.64,3.3a5.31,5.31,0,0,1,.74,1.19,2.52,2.52,0,0,1,.22,1.08,2.21,2.21,0,0,1-.34,1,4.22,4.22,0,0,1-.93,1,4.6,4.6,0,0,1-1.12.68,1.92,1.92,0,0,1-1,.15,2.21,2.21,0,0,1-1-.41,5.18,5.18,0,0,1-1-1l-2.69-3.36Z" transform="translate(-174.71 -242.07)"/><path class="cls-1" d="M540.63,255.56a6.56,6.56,0,0,1,1.43-.71,3.31,3.31,0,0,1,1.37-.18,2.67,2.67,0,0,1,1.3.49,4.5,4.5,0,0,1,1.19,1.28,4.44,4.44,0,0,1,.7,1.62,2.89,2.89,0,0,1-.08,1.38,3.19,3.19,0,0,1-.72,1.18,6.3,6.3,0,0,1-1.23,1l-1.66,1.08-4-6.08ZM545,257a3.53,3.53,0,0,0-1-1.1,2,2,0,0,0-1-.34,2.15,2.15,0,0,0-1,.21,6.39,6.39,0,0,0-1,.52l-.78.51,3,4.63.78-.51a6.41,6.41,0,0,0,.87-.66,2.13,2.13,0,0,0,.58-.83,1.94,1.94,0,0,0,.1-1.06A3.64,3.64,0,0,0,545,257Z" transform="translate(-174.71 -242.07)"/><path class="cls-1" d="M549.9,258.41l-.89.5-3.54-6.33.89-.49Z" transform="translate(-174.71 -242.07)"/><path class="cls-1" d="M555.58,251.57A4.32,4.32,0,0,1,556,253a3.42,3.42,0,0,1-.1,1.36,3.1,3.1,0,0,1-.65,1.16,3.37,3.37,0,0,1-1.15.86,3.48,3.48,0,0,1-1.4.35,3.34,3.34,0,0,1-1.3-.25,3.42,3.42,0,0,1-1.12-.79,4.5,4.5,0,0,1-.86-1.27A4.57,4.57,0,0,1,549,253a3.45,3.45,0,0,1,.11-1.37,3.12,3.12,0,0,1,.64-1.15,3.41,3.41,0,0,1,1.16-.86,3.46,3.46,0,0,1,1.4-.34,3.2,3.2,0,0,1,1.3.24,3.34,3.34,0,0,1,1.12.78A4.48,4.48,0,0,1,555.58,251.57ZM550.37,254a3.71,3.71,0,0,0,.7,1,2.5,2.5,0,0,0,.84.61,1.91,1.91,0,0,0,.91.19,2.18,2.18,0,0,0,.92-.22,2.27,2.27,0,0,0,.76-.57,2,2,0,0,0,.44-.82,2.94,2.94,0,0,0,.06-1,3.71,3.71,0,0,0-.36-1.2,3.92,3.92,0,0,0-.69-1,2.89,2.89,0,0,0-.84-.61,2.06,2.06,0,0,0-.91-.18,2.26,2.26,0,0,0-.92.22,2.17,2.17,0,0,0-.76.57,2,2,0,0,0-.44.82,2.66,2.66,0,0,0-.07,1A3.71,3.71,0,0,0,550.37,254Z" transform="translate(-174.71 -242.07)"/><path class="cls-1" d="M555.92,247.59l4,5.14-.26-6.5,1-.37.16,7.66-1.15.42-4.81-6Z" transform="translate(-174.71 -242.07)"/><path class="cls-1" d="M564.93,252.2l-1,.29-2.05-7,1-.29Z" transform="translate(-174.71 -242.07)"/><path class="cls-1" d="M565,246.54a1.51,1.51,0,0,1,0-.92,2,2,0,0,1,.47-.74,2.66,2.66,0,0,1,.74-.54,3.71,3.71,0,0,1,.86-.31,3.38,3.38,0,0,1,.94-.1,2.49,2.49,0,0,1,.87.16,2.23,2.23,0,0,1,.75.46,2.34,2.34,0,0,1,.56.79l-1,.22a1.44,1.44,0,0,0-.39-.45,1.7,1.7,0,0,0-.51-.24,2.1,2.1,0,0,0-.56-.07,3.31,3.31,0,0,0-.55.07,2.74,2.74,0,0,0-.45.16,1.89,1.89,0,0,0-.45.28,1.24,1.24,0,0,0-.32.41.79.79,0,0,0,0,.53.88.88,0,0,0,.49.65,2.14,2.14,0,0,0,.91.17h.86a8.75,8.75,0,0,1,.88,0,3.39,3.39,0,0,1,.85.19,2.18,2.18,0,0,1,.7.46,1.76,1.76,0,0,1,.42.84,1.87,1.87,0,0,1,0,1,2.12,2.12,0,0,1-.45.8,2.88,2.88,0,0,1-.76.6,4,4,0,0,1-1,.37,3.69,3.69,0,0,1-1.17.09,2.89,2.89,0,0,1-1-.26,2.59,2.59,0,0,1-.76-.6,2.85,2.85,0,0,1-.52-.88l1-.23a1.76,1.76,0,0,0,.89,1,2.2,2.2,0,0,0,1.41.08,2.08,2.08,0,0,0,1.14-.62,1.1,1.1,0,0,0,0-1.4,1,1,0,0,0-.4-.28,1.78,1.78,0,0,0-.54-.13,4.45,4.45,0,0,0-.65,0l-.92,0a5,5,0,0,1-.76-.06,2.7,2.7,0,0,1-.71-.24,1.81,1.81,0,0,1-.57-.46A1.77,1.77,0,0,1,565,246.54Z" transform="translate(-174.71 -242.07)"/><path class="cls-1" d="M572.52,243.08l.6,4.37a2.39,2.39,0,0,0,.63,1.51,1.8,1.8,0,0,0,1.5.31,1.72,1.72,0,0,0,1.38-.76,2.66,2.66,0,0,0,.21-1.68l-.58-4.26,1-.14.57,4.19a5.57,5.57,0,0,1,0,1.4,2.44,2.44,0,0,1-.38,1,2.16,2.16,0,0,1-.81.71,4.07,4.07,0,0,1-1.31.37,4.44,4.44,0,0,1-1.31,0,2,2,0,0,1-1-.4,2.26,2.26,0,0,1-.65-.87,5.56,5.56,0,0,1-.36-1.4l-.58-4.26Z" transform="translate(-174.71 -242.07)"/><path class="cls-1" d="M580.79,242.21l1.17-.05,3.08,7.11-1.1,0-.64-1.54-3.33.16-.48,1.6-1,.05Zm-.55,4.85,2.69-.13-1.54-3.71Z" transform="translate(-174.71 -242.07)"/><path class="cls-1" d="M586.8,248.47l3.83.13,0,.88-4.84-.16.24-7.25,1,0Z" transform="translate(-174.71 -242.07)"/><path class="cls-1" d="M594.67,242.6l4.87.7-.13.88-3.86-.56-.31,2.18,3.63.52-.12.87-3.64-.52-.34,2.38,3.86.56-.13.87-4.87-.7Z" transform="translate(-174.71 -242.07)"/><path class="cls-1" d="M608.27,250.5a3.21,3.21,0,0,1-.67.91,2.7,2.7,0,0,1-.87.56,2.9,2.9,0,0,1-1,.21,3.93,3.93,0,0,1-1.11-.14,3.07,3.07,0,0,1-2.07-1.65,3.55,3.55,0,0,1-.31-1.32,5.13,5.13,0,0,1,.18-1.52,4.86,4.86,0,0,1,.63-1.42,3.37,3.37,0,0,1,1-1,3.12,3.12,0,0,1,1.22-.46,3.48,3.48,0,0,1,1.42.1,3.6,3.6,0,0,1,1,.43,3.09,3.09,0,0,1,.74.7,2.77,2.77,0,0,1,.45.91,3.3,3.3,0,0,1,.11,1.1l-1-.26a2.16,2.16,0,0,0-.08-.67,1.86,1.86,0,0,0-.29-.6,1.88,1.88,0,0,0-.5-.47,2.36,2.36,0,0,0-.72-.32,2.22,2.22,0,0,0-.92-.06,1.94,1.94,0,0,0-.84.35,2.62,2.62,0,0,0-.7.74,4,4,0,0,0-.49,1.16,3.93,3.93,0,0,0-.16,1.23,2.68,2.68,0,0,0,.23,1,2.14,2.14,0,0,0,.55.74,2.35,2.35,0,0,0,.85.43,2,2,0,0,0,2.43-1Z" transform="translate(-174.71 -242.07)"/><path class="cls-1" d="M616,252a4.91,4.91,0,0,1-.76,1.33,3.5,3.5,0,0,1-1.06.87,3.08,3.08,0,0,1-1.28.34,3.44,3.44,0,0,1-1.42-.23,3.53,3.53,0,0,1-1.22-.77,3,3,0,0,1-.72-1.11,3.55,3.55,0,0,1-.22-1.35,4.86,4.86,0,0,1,.32-1.5,4.67,4.67,0,0,1,.76-1.33,3.4,3.4,0,0,1,1-.86,3,3,0,0,1,1.28-.34,3.6,3.6,0,0,1,2.64,1,3.21,3.21,0,0,1,.73,1.1,3.36,3.36,0,0,1,.21,1.35A4.57,4.57,0,0,1,616,252Zm-5.39-2.05a4.28,4.28,0,0,0-.27,1.23,2.74,2.74,0,0,0,.15,1,2,2,0,0,0,.5.79,2.29,2.29,0,0,0,.8.51,2.12,2.12,0,0,0,.93.15,1.91,1.91,0,0,0,.9-.26,2.72,2.72,0,0,0,.79-.67,3.78,3.78,0,0,0,.61-1.09,3.7,3.7,0,0,0,.27-1.23,2.74,2.74,0,0,0-.14-1,2.3,2.3,0,0,0-2.24-1.44,2.06,2.06,0,0,0-.9.25,2.68,2.68,0,0,0-.78.67A3.66,3.66,0,0,0,610.57,249.91Z" transform="translate(-174.71 -242.07)"/><path class="cls-1" d="M618.41,257.19l1.1-6.54-2.88,5.63-.91-.47,3.31-6.45,1.52.78-1.11,6.22,4.4-4.53,1.52.78-3.31,6.45-.9-.47L624,253l-4.66,4.71Z" transform="translate(-174.71 -242.07)"/><path class="cls-1" d="M628.1,254.31,625.68,258a2.43,2.43,0,0,0-.52,1.56,1.8,1.8,0,0,0,.93,1.22,1.73,1.73,0,0,0,1.54.33,2.61,2.61,0,0,0,1.25-1.13l2.37-3.59.85.56-2.32,3.53a5.23,5.23,0,0,1-.9,1.07,2.38,2.38,0,0,1-1,.54,2.12,2.12,0,0,1-1.09,0,4.22,4.22,0,0,1-1.23-.58,4.51,4.51,0,0,1-1-.85,2,2,0,0,1-.46-.94,2.27,2.27,0,0,1,.09-1.08,5.29,5.29,0,0,1,.64-1.29l2.37-3.59Z" transform="translate(-174.71 -242.07)"/><path class="cls-1" d="M632.66,266.59l1.32-6.9-3.9,4.81-.79-.64,4.57-5.63,1.16.94-1.31,6.88,3.88-4.79.79.64-4.56,5.63Z" transform="translate(-174.71 -242.07)"/><path class="cls-1" d="M635.71,269.34l-.74-.7,4.94-5.3.74.69Z" transform="translate(-174.71 -242.07)"/><path class="cls-1" d="M642.75,273.26a3,3,0,0,1-1,.42,2.8,2.8,0,0,1-1,0,2.54,2.54,0,0,1-1-.36,3.62,3.62,0,0,1-.88-.7,3.53,3.53,0,0,1-.75-1.2,3,3,0,0,1-.14-1.29,3.35,3.35,0,0,1,.43-1.28,5,5,0,0,1,2.23-2.08,3.39,3.39,0,0,1,1.33-.31,2.83,2.83,0,0,1,1.27.25,3.57,3.57,0,0,1,1.76,1.71,2.88,2.88,0,0,1,.27,1,2.73,2.73,0,0,1-.1,1,3,3,0,0,1-.48,1l-.68-.72a2.1,2.1,0,0,0,.28-.61,1.86,1.86,0,0,0,.07-.66,2,2,0,0,0-.18-.67,2.11,2.11,0,0,0-.45-.65,2,2,0,0,0-.74-.53,1.94,1.94,0,0,0-.9-.15,2.72,2.72,0,0,0-1,.27,3.82,3.82,0,0,0-1,.72,4,4,0,0,0-.78,1,2.57,2.57,0,0,0-.34,1,2.22,2.22,0,0,0,.08.93,2.32,2.32,0,0,0,.5.81,2.08,2.08,0,0,0,1.28.71,2.13,2.13,0,0,0,1.3-.27Z" transform="translate(-174.71 -242.07)"/><path class="cls-1" d="M648.48,272.53l.73.92-4,6.63-.68-.86.88-1.42-2-2.62-1.58.53-.65-.82Zm-4.27,2.36,1.67,2.12L648,273.6Z" transform="translate(-174.71 -242.07)"/><path class="cls-1" d="M645.39,282.88c0,.1,0,.2.07.3a1.69,1.69,0,0,0,.13.27,1.42,1.42,0,0,0,.29.31.24.24,0,0,0,.31,0,.22.22,0,0,0,.12-.23.61.61,0,0,0-.11-.3,1.31,1.31,0,0,0-.12-.15.61.61,0,0,0-.16-.12l0-.34,1,0,.29.44h-.6l.19.24a.8.8,0,0,1,.15.57.64.64,0,0,1-.31.44.62.62,0,0,1-.34.11.84.84,0,0,1-.35-.07,1.11,1.11,0,0,1-.32-.21,1.18,1.18,0,0,1-.26-.29,2.35,2.35,0,0,1-.21-.39A1.47,1.47,0,0,1,645,283Zm5.29,1.4a3.21,3.21,0,0,1-1.1.24,2.88,2.88,0,0,1-1-.17,2.93,2.93,0,0,1-.9-.52,4.08,4.08,0,0,1-.74-.85,3.36,3.36,0,0,1-.52-1.31,2.85,2.85,0,0,1,.09-1.3,3.46,3.46,0,0,1,.64-1.19,5,5,0,0,1,1.16-1,4.54,4.54,0,0,1,1.41-.64,3.5,3.5,0,0,1,1.36-.07,3,3,0,0,1,1.21.47,3.6,3.6,0,0,1,1.43,2,2.89,2.89,0,0,1,.09,1,2.82,2.82,0,0,1-.27,1,3.47,3.47,0,0,1-.66.9l-.54-.83a2.17,2.17,0,0,0,.39-.56,1.75,1.75,0,0,0,.18-.63,1.79,1.79,0,0,0,0-.69,2.31,2.31,0,0,0-.33-.72,2.09,2.09,0,0,0-.64-.65,2,2,0,0,0-.86-.31,2.59,2.59,0,0,0-1,.09,3.87,3.87,0,0,0-1.14.53,4.17,4.17,0,0,0-.93.81,2.73,2.73,0,0,0-.51.9,2.27,2.27,0,0,0-.08.93,2.2,2.2,0,0,0,.35.88,2,2,0,0,0,2.46.89Z" transform="translate(-174.71 -242.07)"/><path class="cls-1" d="M656.44,284.58l.56,1-5.14,5.81-.51-1,1.12-1.23-1.56-3-1.65.24-.48-.92Zm-4.61,1.56,1.26,2.39,2.71-3Zm6.14.3-.5-.94.18-.87-.81-.34-.51-.94L658,284l.38.74Z" transform="translate(-174.71 -242.07)"/><path class="cls-1" d="M657.87,296.39a4.63,4.63,0,0,1-1.49.36,3.23,3.23,0,0,1-1.36-.17,3.08,3.08,0,0,1-1.13-.69,3.41,3.41,0,0,1-.8-1.2,3.29,3.29,0,0,1-.28-1.41,3,3,0,0,1,.31-1.29,3.4,3.4,0,0,1,.83-1.08,4.73,4.73,0,0,1,1.31-.8,4.57,4.57,0,0,1,1.48-.36,3.56,3.56,0,0,1,1.36.17,3.19,3.19,0,0,1,1.13.7,3.41,3.41,0,0,1,.8,1.19,3.62,3.62,0,0,1,.28,1.41,3.14,3.14,0,0,1-.31,1.29,3.4,3.4,0,0,1-.83,1.09A4.8,4.8,0,0,1,657.87,296.39Zm-2.21-5.32a4,4,0,0,0-1.08.65,2.86,2.86,0,0,0-.65.81,2.22,2.22,0,0,0-.23.9,2.35,2.35,0,0,0,.71,1.71,2.08,2.08,0,0,0,.81.48,2.84,2.84,0,0,0,1,.12,4,4,0,0,0,1.22-.31,3.72,3.72,0,0,0,1.07-.65,2.79,2.79,0,0,0,.65-.8,2.22,2.22,0,0,0,.22-.91,2.14,2.14,0,0,0-.18-.93,2.25,2.25,0,0,0-.53-.78,2,2,0,0,0-.8-.48,2.64,2.64,0,0,0-1-.11A3.63,3.63,0,0,0,655.66,291.07Z" transform="translate(-174.71 -242.07)"/><path class="cls-1" d="M790.07,360.23a7.54,7.54,0,0,1,1.06.59,2.7,2.7,0,0,1,.72.71,1.79,1.79,0,0,1,.28.87,2.45,2.45,0,0,1-.27,1.09,2.35,2.35,0,0,1-.67.9,1.55,1.55,0,0,1-.84.34,2.57,2.57,0,0,1-1-.1,8.26,8.26,0,0,1-1.14-.44l-1.13-.53-1.22,2.6-.92-.43,3.08-6.57Zm-1.5.24-1.12,2.38,1.2.57c.25.11.48.21.69.28a1.81,1.81,0,0,0,.62.11,1,1,0,0,0,.53-.19,1.42,1.42,0,0,0,.43-.57,1.58,1.58,0,0,0,.17-.7,1.13,1.13,0,0,0-.19-.54,1.61,1.61,0,0,0-.47-.42,6.75,6.75,0,0,0-.66-.35Z" transform="translate(-174.71 -242.07)"/><path class="cls-1" d="M794.53,367.14l-.25-.12-.24-.13-1.13-.6-1.42,2.7-.91-.47L794,362.1l2,1.07a9.85,9.85,0,0,1,1,.64,2.79,2.79,0,0,1,.7.72,1.69,1.69,0,0,1,.25.86,2.14,2.14,0,0,1-.29,1,1.78,1.78,0,0,1-2.18,1l0,3.64-1-.54Zm-.07-3.8-1.15,2.19,1.2.63a6.8,6.8,0,0,0,.68.32,1.73,1.73,0,0,0,.6.14,1,1,0,0,0,.53-.14,1.37,1.37,0,0,0,.44-.52,1.32,1.32,0,0,0,.18-.66.93.93,0,0,0-.18-.52,1.86,1.86,0,0,0-.45-.43,6.36,6.36,0,0,0-.64-.38Z" transform="translate(-174.71 -242.07)"/><path class="cls-1" d="M803.82,371.79a5,5,0,0,1-1,1.18,3.41,3.41,0,0,1-1.2.67,3.07,3.07,0,0,1-1.32.13,3.6,3.6,0,0,1-1.35-.48,3.45,3.45,0,0,1-1.07-1,3.07,3.07,0,0,1-.53-1.22,3.34,3.34,0,0,1,0-1.37,5,5,0,0,1,1.54-2.6,3.3,3.3,0,0,1,1.19-.67,3.1,3.1,0,0,1,1.32-.12,3.7,3.7,0,0,1,2.43,1.44,3.27,3.27,0,0,1,.53,1.21,3.52,3.52,0,0,1,0,1.37A4.6,4.6,0,0,1,803.82,371.79Zm-5-2.94a3.87,3.87,0,0,0-.48,1.16,2.63,2.63,0,0,0,0,1,2,2,0,0,0,.35.86,2.39,2.39,0,0,0,.7.64,2.47,2.47,0,0,0,.9.31,2.12,2.12,0,0,0,.93-.1,2.87,2.87,0,0,0,.89-.53,3.71,3.71,0,0,0,.79-1,3.87,3.87,0,0,0,.48-1.16,2.63,2.63,0,0,0,0-1,2.25,2.25,0,0,0-.36-.86,2.35,2.35,0,0,0-.7-.63,2.2,2.2,0,0,0-.9-.31,2.06,2.06,0,0,0-.92.09,2.76,2.76,0,0,0-.89.53A3.55,3.55,0,0,0,798.87,368.85Z" transform="translate(-174.71 -242.07)"/><path class="cls-1" d="M809.19,371l.85.56-2.72,4.14a2.55,2.55,0,0,1-1.5,1.18,2.26,2.26,0,0,1-1.74-.4,2.24,2.24,0,0,1-1.06-1.42,2.37,2.37,0,0,1,.46-1.81l.8.52a2.05,2.05,0,0,0-.28.61,1.81,1.81,0,0,0,0,.56,1.34,1.34,0,0,0,.19.48,1.45,1.45,0,0,0,.38.36,1.34,1.34,0,0,0,.4.19,1,1,0,0,0,.48,0,1.44,1.44,0,0,0,.52-.25,2.79,2.79,0,0,0,.53-.61Z" transform="translate(-174.71 -242.07)"/><path class="cls-1" d="M811.64,372.65l4,2.86-.51.72L812,374l-1.28,1.78,3,2.14-.51.72-3-2.14-1.41,2,3.17,2.27-.51.71-4-2.86Z" transform="translate(-174.71 -242.07)"/><path class="cls-1" d="M818.51,384a3.25,3.25,0,0,1-1,.57,2.82,2.82,0,0,1-1,.17,3,3,0,0,1-1-.21,4.18,4.18,0,0,1-1-.57,3.17,3.17,0,0,1-.91-1.08,2.82,2.82,0,0,1-.33-1.26,3.34,3.34,0,0,1,.23-1.33,5.2,5.2,0,0,1,.77-1.33,4.65,4.65,0,0,1,1.14-1.05,3.36,3.36,0,0,1,1.26-.5,2.91,2.91,0,0,1,1.31.06,3.49,3.49,0,0,1,1.25.65,3.2,3.2,0,0,1,.73.79,2.76,2.76,0,0,1,.41.93,2.62,2.62,0,0,1,.05,1,3.1,3.1,0,0,1-.33,1.06l-.78-.62a2.11,2.11,0,0,0,.19-.65,1.84,1.84,0,0,0,0-.66,2.09,2.09,0,0,0-.27-.64,2.22,2.22,0,0,0-.54-.57,2.24,2.24,0,0,0-.81-.42,2,2,0,0,0-.91,0,2.58,2.58,0,0,0-1,.4,4.06,4.06,0,0,0-.9.87,3.88,3.88,0,0,0-.63,1.07,2.5,2.5,0,0,0-.19,1,1.93,1.93,0,0,0,.21.9,2.23,2.23,0,0,0,.61.73,2.07,2.07,0,0,0,1.37.52,2.05,2.05,0,0,0,1.25-.46Z" transform="translate(-174.71 -242.07)"/><path class="cls-1" d="M823.1,382.65l-1.78-1.54.57-.67,4.34,3.76-.58.67-1.78-1.55-4.17,4.81-.77-.67Z" transform="translate(-174.71 -242.07)"/><path class="cls-1" d="M829,391.77a4.56,4.56,0,0,1-1.21.93,3.2,3.2,0,0,1-3.84-.55,3.5,3.5,0,0,1-.83-1.17,3.14,3.14,0,0,1-.24-1.31,3.22,3.22,0,0,1,.33-1.33,4.6,4.6,0,0,1,.87-1.26,4.78,4.78,0,0,1,1.21-.93,3.53,3.53,0,0,1,1.31-.39,3.28,3.28,0,0,1,1.31.18,3.31,3.31,0,0,1,1.21.77,3.36,3.36,0,0,1,.83,1.17,3.13,3.13,0,0,1,.25,1.3,3.22,3.22,0,0,1-.33,1.33A4.6,4.6,0,0,1,829,391.77Zm-4.17-4a3.86,3.86,0,0,0-.72,1,2.56,2.56,0,0,0-.26,1,2.05,2.05,0,0,0,.15.92,2.28,2.28,0,0,0,.54.78,2.5,2.5,0,0,0,.8.5,2.09,2.09,0,0,0,.93.11,2.86,2.86,0,0,0,1-.32,3.6,3.6,0,0,0,1-.77,4,4,0,0,0,.72-1,2.61,2.61,0,0,0,.26-1,2,2,0,0,0-.16-.92,2.34,2.34,0,0,0-1.34-1.28,2,2,0,0,0-.93-.11,2.59,2.59,0,0,0-1,.31A3.6,3.6,0,0,0,824.79,387.8Z" transform="translate(-174.71 -242.07)"/><path class="cls-1" d="M492.13,585a2.45,2.45,0,0,1,0-.27c0-.09,0-.18,0-.28l-.07-1.27-3,.17-.05-1,7.23-.41.13,2.3a8.07,8.07,0,0,1,0,1.21,2.7,2.7,0,0,1-.25,1,1.55,1.55,0,0,1-.61.66,2.17,2.17,0,0,1-1,.29,2,2,0,0,1-1.33-.31,2,2,0,0,1-.69-1l-3.12,1.86-.06-1.14Zm3.22-2-2.47.14.07,1.35c0,.27,0,.52.08.75a2,2,0,0,0,.19.59,1,1,0,0,0,.4.37,1.21,1.21,0,0,0,.67.11,1.23,1.23,0,0,0,.66-.18,1,1,0,0,0,.35-.42,1.89,1.89,0,0,0,.13-.61,6.25,6.25,0,0,0,0-.75Z" transform="translate(-174.71 -242.07)"/><path class="cls-1" d="M496.62,588.44l.83,4.85-.86.15-.67-3.85-2.16.38.62,3.61-.87.15-.62-3.61-2.38.4.67,3.85-.87.15-.84-4.85Z" transform="translate(-174.71 -242.07)"/><path class="cls-1" d="M495.82,594.4a1.64,1.64,0,0,1,.93,0,2.05,2.05,0,0,1,.76.43,2.86,2.86,0,0,1,.58.71,3.8,3.8,0,0,1,.51,1.77,2.62,2.62,0,0,1-.11.89,2.33,2.33,0,0,1-.42.77,2.54,2.54,0,0,1-.75.6l-.28-.95a1.3,1.3,0,0,0,.43-.41,1.78,1.78,0,0,0,.21-.52,2.19,2.19,0,0,0,0-.57,3,3,0,0,0-.1-.54,2.25,2.25,0,0,0-.19-.44,1.9,1.9,0,0,0-.3-.44,1.21,1.21,0,0,0-.43-.29.8.8,0,0,0-.53,0,.88.88,0,0,0-.62.53,2.17,2.17,0,0,0-.12.91l.05.86a8.49,8.49,0,0,1,0,.88,2.77,2.77,0,0,1-.14.86,2,2,0,0,1-.42.72,1.69,1.69,0,0,1-.81.47,1.76,1.76,0,0,1-1,0,2.12,2.12,0,0,1-.83-.39,2.83,2.83,0,0,1-.64-.73,4.14,4.14,0,0,1-.43-1,3.76,3.76,0,0,1-.16-1.16,3.12,3.12,0,0,1,.21-1,2.44,2.44,0,0,1,.55-.8,3.07,3.07,0,0,1,.86-.57l.28,1a1.77,1.77,0,0,0-.91.94,2.19,2.19,0,0,0,0,1.41,2,2,0,0,0,.67,1.1,1.06,1.06,0,0,0,1,.18,1,1,0,0,0,.44-.25,1.13,1.13,0,0,0,.25-.41,1.79,1.79,0,0,0,.1-.54c0-.21,0-.42,0-.65l-.07-.92a5,5,0,0,1,0-.77,2.4,2.4,0,0,1,.2-.72,1.72,1.72,0,0,1,1.13-1Z" transform="translate(-174.71 -242.07)"/><path class="cls-1" d="M493.12,603.59l-.37-1,6.78-2.58.36,1Z" transform="translate(-174.71 -242.07)"/><path class="cls-1" d="M501.26,604.2a7.12,7.12,0,0,1,.53,1.5,3.43,3.43,0,0,1,0,1.39,2.83,2.83,0,0,1-.65,1.23,4.52,4.52,0,0,1-1.42,1,4.35,4.35,0,0,1-1.69.49,2.78,2.78,0,0,1-1.36-.25,3.27,3.27,0,0,1-1.09-.86,6.54,6.54,0,0,1-.85-1.34l-.87-1.78,6.52-3.18Zm-2,4.2a3.67,3.67,0,0,0,1.21-.87,2,2,0,0,0,.46-1,2.28,2.28,0,0,0-.08-1,6.73,6.73,0,0,0-.4-1l-.41-.84-5,2.43.41.83a6.62,6.62,0,0,0,.55.94,2.34,2.34,0,0,0,.75.69,2,2,0,0,0,1,.22A3.65,3.65,0,0,0,499.28,608.4Z" transform="translate(-174.71 -242.07)"/><path class="cls-1" d="M503.56,608.65l2.66,4.13-.74.48L503.37,610l-1.85,1.19,2,3.09-.74.47-2-3.08-2,1.31,2.11,3.27-.74.48-2.67-4.13Zm2.72,3.33-.58-.9.1-.87-.84-.27-.58-.9,1.68.52.45.7Z" transform="translate(-174.71 -242.07)"/><path class="cls-1" d="M504,621.49l2.64-6.51-4.76,4-.65-.79,5.57-4.63,1,1.15-2.63,6.49,4.75-3.95.65.79-5.58,4.64Z" transform="translate(-174.71 -242.07)"/><path class="cls-1" d="M512.53,626.74a3.19,3.19,0,0,1-1,.49,2.53,2.53,0,0,1-1,.09,2.74,2.74,0,0,1-1-.29,3.72,3.72,0,0,1-.92-.64,3.21,3.21,0,0,1-.83-1.15,2.92,2.92,0,0,1-.23-1.27,3.47,3.47,0,0,1,.33-1.31,5.33,5.33,0,0,1,.87-1.27,4.69,4.69,0,0,1,1.22-1,3.37,3.37,0,0,1,1.3-.4,3,3,0,0,1,1.29.16,3.47,3.47,0,0,1,1.21.75,3.31,3.31,0,0,1,.66.84,3,3,0,0,1,.34,1,2.93,2.93,0,0,1,0,1,3.31,3.31,0,0,1-.41,1l-.73-.67a2.62,2.62,0,0,0,.24-.64,1.83,1.83,0,0,0,0-.66,2.14,2.14,0,0,0-.22-.66,2.52,2.52,0,0,0-.49-.62,2.37,2.37,0,0,0-.79-.47,1.94,1.94,0,0,0-.9-.09,2.57,2.57,0,0,0-1,.34,3.83,3.83,0,0,0-1,.79,3.93,3.93,0,0,0-.71,1,2.38,2.38,0,0,0-.27,1,2.17,2.17,0,0,0,.14.92,2.27,2.27,0,0,0,.56.77,2,2,0,0,0,1.32.63,2.08,2.08,0,0,0,1.28-.37Z" transform="translate(-174.71 -242.07)"/><path class="cls-1" d="M513.05,630l-.8-.62,4.43-5.73.81.62Z" transform="translate(-174.71 -242.07)"/><path class="cls-1" d="M520.21,626.19l1,.64-1.66,7.57-.92-.6.38-1.63-2.79-1.81-1.33,1-.87-.56Zm-3.27,3.61,2.27,1.47.91-3.91Z" transform="translate(-174.71 -242.07)"/><path class="cls-1" d="M522.77,630a1.61,1.61,0,0,1,.62-.69,2.08,2.08,0,0,1,.84-.27,2.83,2.83,0,0,1,.91.06,3.79,3.79,0,0,1,.86.3,3.64,3.64,0,0,1,.79.53,2.83,2.83,0,0,1,.57.68,2.34,2.34,0,0,1,.29.83,2.46,2.46,0,0,1-.07,1l-.89-.44a1.29,1.29,0,0,0,0-.59,1.48,1.48,0,0,0-.23-.51,1.9,1.9,0,0,0-.39-.41,2.66,2.66,0,0,0-.47-.3,2.56,2.56,0,0,0-.45-.16,1.58,1.58,0,0,0-.53-.07,1.18,1.18,0,0,0-.5.11.8.8,0,0,0-.37.38.91.91,0,0,0,0,.82,2,2,0,0,0,.59.7l.67.55c.22.18.44.37.66.58a3.17,3.17,0,0,1,.53.69,2,2,0,0,1,.25.8,1.83,1.83,0,0,1-.21.92,2,2,0,0,1-.62.73,2.34,2.34,0,0,1-.85.34,2.71,2.71,0,0,1-1,0,3.32,3.32,0,0,1-1-.34,3.64,3.64,0,0,1-1-.67,2.59,2.59,0,0,1-.59-.83,2.35,2.35,0,0,1-.22-.94,3.07,3.07,0,0,1,.17-1l.89.45a1.77,1.77,0,0,0,.08,1.31,2.17,2.17,0,0,0,1,.94,2,2,0,0,0,1.27.26,1.06,1.06,0,0,0,.79-.59,1,1,0,0,0,0-1,1.87,1.87,0,0,0-.33-.44,4.11,4.11,0,0,0-.48-.44l-.72-.58a3.43,3.43,0,0,1-.55-.53,2.39,2.39,0,0,1-.4-.63,2,2,0,0,1-.15-.72A1.81,1.81,0,0,1,522.77,630Z" transform="translate(-174.71 -242.07)"/><path class="cls-1" d="M264.7,278.52a8.7,8.7,0,0,1,1.12-.49,2.81,2.81,0,0,1,1-.14,1.68,1.68,0,0,1,.86.3,2.28,2.28,0,0,1,.71.87,2.38,2.38,0,0,1,.32,1.08,1.63,1.63,0,0,1-.24.87,2.52,2.52,0,0,1-.69.74,7.61,7.61,0,0,1-1,.65l-1.11.58,1.34,2.54-.9.47-3.38-6.41Zm-.7,1.35,1.23,2.32,1.17-.62a5.41,5.41,0,0,0,.64-.38,1.47,1.47,0,0,0,.46-.43,1,1,0,0,0,.17-.53,1.53,1.53,0,0,0-.2-.69A1.57,1.57,0,0,0,267,279a1.07,1.07,0,0,0-.54-.17,1.79,1.79,0,0,0-.62.12,6.69,6.69,0,0,0-.67.32Z" transform="translate(-174.71 -242.07)"/><path class="cls-1" d="M272.91,279.08l-.24.13-.25.12-1.15.55,1.32,2.75-.91.44-3.16-6.53,2.07-1a8.82,8.82,0,0,1,1.13-.45,2.6,2.6,0,0,1,1-.14,1.57,1.57,0,0,1,.84.31,2.21,2.21,0,0,1,.66.85,1.92,1.92,0,0,1,.22,1.35,2.07,2.07,0,0,1-.67,1l2.91,2.16-1,.5Zm-3.1-2.21,1.08,2.24,1.23-.59c.24-.12.46-.24.65-.36a1.73,1.73,0,0,0,.47-.4.88.88,0,0,0,.2-.51,1.18,1.18,0,0,0-.16-.66,1.21,1.21,0,0,0-.42-.54.9.9,0,0,0-.52-.17,1.78,1.78,0,0,0-.61.12,6.25,6.25,0,0,0-.69.28Z" transform="translate(-174.71 -242.07)"/><path class="cls-1" d="M282.1,274.3a4.65,4.65,0,0,1,.39,1.48,3.38,3.38,0,0,1-.15,1.36,3.11,3.11,0,0,1-.67,1.15,3.41,3.41,0,0,1-1.18.82,3.45,3.45,0,0,1-1.4.31,3,3,0,0,1-1.3-.29,3.41,3.41,0,0,1-1.1-.81,4.67,4.67,0,0,1-.82-1.29,4.72,4.72,0,0,1-.39-1.48,3.38,3.38,0,0,1,.15-1.36,3.15,3.15,0,0,1,.67-1.14,3.61,3.61,0,0,1,1.18-.82,3.49,3.49,0,0,1,1.41-.31,3.11,3.11,0,0,1,1.29.28,3.41,3.41,0,0,1,1.1.81A4.67,4.67,0,0,1,282.1,274.3Zm-5.28,2.31a3.78,3.78,0,0,0,.67,1.06,3,3,0,0,0,.82.64,2.06,2.06,0,0,0,.91.21,2.23,2.23,0,0,0,.93-.2,2.33,2.33,0,0,0,.77-.54,2.08,2.08,0,0,0,.46-.82,2.85,2.85,0,0,0,.1-1,4.31,4.31,0,0,0-.33-1.21,3.78,3.78,0,0,0-.67-1.06,2.65,2.65,0,0,0-.82-.63,2.06,2.06,0,0,0-.91-.21,2.31,2.31,0,0,0-.92.2,2.11,2.11,0,0,0-1.24,1.35,2.65,2.65,0,0,0-.09,1A4,4,0,0,0,276.82,276.61Z" transform="translate(-174.71 -242.07)"/><path class="cls-1" d="M284,269.67a6.65,6.65,0,0,1,1.54-.41,3.17,3.17,0,0,1,1.38.11,2.74,2.74,0,0,1,1.17.74,4.45,4.45,0,0,1,.9,1.5,4.61,4.61,0,0,1,.36,1.72,2.9,2.9,0,0,1-.36,1.34,3.14,3.14,0,0,1-1,1,6.71,6.71,0,0,1-1.41.75l-1.85.72-2.63-6.76Zm4,2.32a3.69,3.69,0,0,0-.76-1.28,2.05,2.05,0,0,0-.92-.54,2.15,2.15,0,0,0-1,0,7,7,0,0,0-1.05.31l-.87.34,2,5.15.87-.33a7.43,7.43,0,0,0,1-.48,2.14,2.14,0,0,0,.74-.69,2,2,0,0,0,.31-1A3.39,3.39,0,0,0,288,272Z" transform="translate(-174.71 -242.07)"/><path class="cls-1" d="M290,267.4l1.44,4.17a2.46,2.46,0,0,0,.91,1.36,1.81,1.81,0,0,0,1.54,0,1.76,1.76,0,0,0,1.2-1,2.59,2.59,0,0,0-.13-1.68l-1.4-4.07,1-.33,1.38,4a4.8,4.8,0,0,1,.3,1.36,2.3,2.3,0,0,1-.16,1.1,2,2,0,0,1-.66.85,3.92,3.92,0,0,1-1.21.63,4.82,4.82,0,0,1-1.28.27,2.12,2.12,0,0,1-1-.21,2.2,2.2,0,0,1-.8-.73,4.77,4.77,0,0,1-.63-1.3L289,267.74Z" transform="translate(-174.71 -242.07)"/><path class="cls-1" d="M303.47,268.26a3,3,0,0,1-.09,1.13,2.82,2.82,0,0,1-1.2,1.65,4.07,4.07,0,0,1-1,.47,3.32,3.32,0,0,1-1.41.13,2.9,2.9,0,0,1-1.22-.45,3.21,3.21,0,0,1-1-.95,4.82,4.82,0,0,1-.65-1.39,4.43,4.43,0,0,1-.22-1.53A3.56,3.56,0,0,1,297,266a3,3,0,0,1,.8-1,3.19,3.19,0,0,1,1.25-.66,3.27,3.27,0,0,1,1.06-.15,2.79,2.79,0,0,1,1.86.73,3.38,3.38,0,0,1,.68.88l-.95.28a2.44,2.44,0,0,0-.43-.53,1.82,1.82,0,0,0-.56-.35,2.11,2.11,0,0,0-.68-.14,2.41,2.41,0,0,0-.78.11,2.23,2.23,0,0,0-.8.44,2,2,0,0,0-.54.74,2.58,2.58,0,0,0-.2,1,4.12,4.12,0,0,0,.19,1.24,4.07,4.07,0,0,0,.52,1.13,2.42,2.42,0,0,0,.73.73,2,2,0,0,0,.86.34,2.41,2.41,0,0,0,1-.08,2,2,0,0,0,1.54-2.12ZM300.64,273a1.58,1.58,0,0,0,.31,0,1.35,1.35,0,0,0,.29,0,1.69,1.69,0,0,0,.38-.19.26.26,0,0,0,.11-.3.24.24,0,0,0-.19-.17.59.59,0,0,0-.32,0,.85.85,0,0,0-.17.08.52.52,0,0,0-.17.12l-.33-.08.25-.94.5-.15-.16.58a1.69,1.69,0,0,1,.28-.12.79.79,0,0,1,.59,0,.64.64,0,0,1,.34.41.67.67,0,0,1,0,.37.79.79,0,0,1-.17.31,1.29,1.29,0,0,1-.64.42l-.43.1a1.76,1.76,0,0,1-.51,0Z" transform="translate(-174.71 -242.07)"/><path class="cls-1" d="M306,261.3a.45.45,0,0,0,.27-.19.48.48,0,0,0,.07-.37l.68-.18a1.38,1.38,0,0,1-.19,1,1.17,1.17,0,0,1-.64.43,1,1,0,0,1-.42,0l-.37-.07-.33-.07a.65.65,0,0,0-.31,0,.43.43,0,0,0-.33.54l-.68.18a1.31,1.31,0,0,1,.18-.92,1.06,1.06,0,0,1,.64-.45,1,1,0,0,1,.41,0l.36.07.33.08A.74.74,0,0,0,306,261.3Zm-.94,1.43,1.14-.3,4.49,6.32-1.06.28-1-1.37-3.22.84-.14,1.66-1,.27Zm.47,4.85,2.61-.68-2.27-3.31Z" transform="translate(-174.71 -242.07)"/><path class="cls-1" d="M316.68,263.68a4.68,4.68,0,0,1,.1,1.52,3.46,3.46,0,0,1-.4,1.31,3.12,3.12,0,0,1-.88,1,3.74,3.74,0,0,1-2.75.62,3.11,3.11,0,0,1-1.22-.53,3.48,3.48,0,0,1-.93-1,4.8,4.8,0,0,1-.56-1.43,4.68,4.68,0,0,1-.1-1.52,3.53,3.53,0,0,1,.41-1.31,3.31,3.31,0,0,1,.88-1,3.56,3.56,0,0,1,1.31-.58,3.51,3.51,0,0,1,1.44,0,3.09,3.09,0,0,1,1.22.52,3.32,3.32,0,0,1,.92,1A4.73,4.73,0,0,1,316.68,263.68Zm-5.62,1.26a3.86,3.86,0,0,0,.45,1.17,2.92,2.92,0,0,0,.69.78,2.1,2.1,0,0,0,.85.38,2.35,2.35,0,0,0,.95,0,2.31,2.31,0,0,0,.86-.39,2.11,2.11,0,0,0,.61-.71,2.73,2.73,0,0,0,.28-1,3.41,3.41,0,0,0-.09-1.25,3.66,3.66,0,0,0-.45-1.17,2.62,2.62,0,0,0-.68-.78,2.27,2.27,0,0,0-1.8-.36,2.22,2.22,0,0,0-.87.39,2.13,2.13,0,0,0-.6.7,2.78,2.78,0,0,0-.29,1A3.92,3.92,0,0,0,311.06,264.94Z" transform="translate(-174.71 -242.07)"/><g id="circulos1"><path class="cls-2" d="M322.28,626.33A179.76,179.76,0,1,0,177.92,417.08,179.76,179.76,0,0,0,322.28,626.33Z" transform="translate(-174.71 -242.07)"/><path class="cls-2" d="M553.1,560.53A105.84,105.84,0,1,0,454.41,448,105.84,105.84,0,0,0,553.1,560.53Z" transform="translate(-174.71 -242.07)"/><path class="cls-2" d="M580.86,390.78a68.09,68.09,0,1,0-63.49-72.39A68.08,68.08,0,0,0,580.86,390.78Z" transform="translate(-174.71 -242.07)"/><circle class="cls-2" cx="727.23" cy="493.94" r="134.88" transform="translate(-160.66 765.89) rotate(-69.97)"/><path class="cls-2" d="M550.79,628.86a47.46,47.46,0,1,0-48.27-46.62A47.45,47.45,0,0,0,550.79,628.86Z" transform="translate(-174.71 -242.07)"/></g><g id="dots1"><path class="cls-1" d="M549.63,365.23a3.79,3.79,0,1,0-3.45-4.11,3.78,3.78,0,0,0,3.45,4.11" transform="translate(-174.71 -242.07)"/><path class="cls-1" d="M633,448.44a3.8,3.8,0,1,0-3.45-4.11,3.8,3.8,0,0,0,3.45,4.11" transform="translate(-174.71 -242.07)"/><path class="cls-1" d="M553.74,549.73a3.79,3.79,0,1,0-3.45-4.11,3.78,3.78,0,0,0,3.45,4.11" transform="translate(-174.71 -242.07)"/><path class="cls-1" d="M566.5,455.73a3.8,3.8,0,1,0-3.45-4.12,3.8,3.8,0,0,0,3.45,4.12" transform="translate(-174.71 -242.07)"/><path class="cls-1" d="M493.66,438.94a3.8,3.8,0,1,0-3.86-3.72,3.78,3.78,0,0,0,3.86,3.72" transform="translate(-174.71 -242.07)"/></g></g><g id="Layer_3" data-name="Layer 3"><text class="cls-3" transform="translate(27.49 222.74) rotate(62.06)">G</text><text class="cls-4" transform="matrix(0.61, 0.8, -0.8, 0.61, 29.95, 227.15)">E</text><text class="cls-5" transform="matrix(0.69, 0.72, -0.72, 0.69, 32.54, 230.7)">S</text><text class="cls-4" transform="matrix(0.75, 0.66, -0.66, 0.75, 35.71, 234.04)">T</text><text class="cls-4" transform="matrix(0.8, 0.59, -0.59, 0.8, 38.59, 236.58)">Ã</text><text class="cls-6" transform="matrix(0.85, 0.52, -0.52, 0.85, 42.32, 239.37)">O</text><text class="cls-7" transform="translate(47.11 242.36) rotate(27.97)"> </text><text class="cls-8" transform="translate(49.14 243.38) rotate(24.64)">D</text><text class="cls-9" transform="translate(53.71 245.55) rotate(18.26)">E</text><text class="cls-10" transform="translate(57.96 246.87) rotate(11.94)"> </text><text class="cls-9" transform="translate(60.15 247.43) rotate(7.58)">A</text><text class="cls-11" transform="translate(64.65 248.13) rotate(1.02)">R</text><text class="cls-10" transform="translate(69.53 248.26) rotate(-4.72)">M</text><text class="cls-6" transform="matrix(0.99, -0.17, 0.17, 0.99, 75.66, 247.76)">A</text><text class="cls-11" transform="translate(80.46 246.92) rotate(-14.23)">Z</text><text class="cls-9" transform="translate(85.08 245.73) rotate(-17.5)">É</text><text class="cls-4" transform="matrix(0.93, -0.36, 0.36, 0.93, 89.51, 244.41)">M</text><text class="cls-11" transform="matrix(0.76, 0.65, -0.65, 0.76, 522.1, 227.28)"> </text><text class="cls-12" transform="translate(506.71 203.97) rotate(71.97)">G</text><text class="cls-13" transform="translate(508.28 208.85) rotate(63.52)">E</text><text class="cls-11" transform="matrix(0.53, 0.85, -0.85, 0.53, 510.26, 212.85)">S</text><text class="cls-4" transform="matrix(0.6, 0.8, -0.8, 0.6, 512.61, 216.79)">T</text><text class="cls-5" transform="matrix(0.66, 0.76, -0.76, 0.66, 515, 219.87)">Ã</text><text class="cls-3" transform="translate(518.02 223.36) rotate(43.99)">O</text><text class="cls-7" transform="translate(523.9 228.82) rotate(38.06)">D</text><text class="cls-6" transform="translate(528.1 232.17) rotate(33.89)">E</text><text class="cls-6" transform="translate(531.88 234.72) rotate(30.88)"> </text><text class="cls-6" transform="matrix(0.9, 0.44, -0.44, 0.9, 533.72, 235.88)">P</text><text class="cls-6" transform="matrix(0.94, 0.34, -0.34, 0.94, 537.8, 237.82)">R</text><text class="cls-13" transform="translate(542.22 239.5) rotate(12.79)">O</text><text class="cls-3" transform="translate(547.63 240.7) rotate(9.06)">J</text><text class="cls-6" transform="matrix(1, 0.08, -0.08, 1, 551.69, 241.3)">E</text><path class="cls-1" d="M735.32,482.36a2,2,0,0,1-.26.65,1.62,1.62,0,0,1-.43.47,2,2,0,0,1-.58.29,2.61,2.61,0,0,1-.69.09,2.31,2.31,0,0,1-.86-.18,1.79,1.79,0,0,1-.63-.49,2.12,2.12,0,0,1-.4-.74,3.5,3.5,0,0,1-.13-.94,3.15,3.15,0,0,1,.16-.95,2,2,0,0,1,.43-.72,1.85,1.85,0,0,1,.66-.47,2.13,2.13,0,0,1,.86-.16,2,2,0,0,1,.65.11,1.72,1.72,0,0,1,.55.3,1.55,1.55,0,0,1,.41.47,1.77,1.77,0,0,1,.24.64h-.61a1.32,1.32,0,0,0-.15-.39,1,1,0,0,0-.27-.31,1.17,1.17,0,0,0-.38-.21,1.45,1.45,0,0,0-1,0,1.34,1.34,0,0,0-.45.34,1.67,1.67,0,0,0-.31.56,2.8,2.8,0,0,0,0,1.52,1.53,1.53,0,0,0,.29.57,1.28,1.28,0,0,0,.45.36,1.32,1.32,0,0,0,.57.12,1.21,1.21,0,0,0,1.3-1Z" transform="translate(-174.71 -242.07)"/><text class="cls-4" transform="matrix(1, -0.06, 0.06, 1, 561.42, 241.74)">T</text><text class="cls-11" transform="translate(565.74 241.53) rotate(-5.82)">O</text><text class="cls-7" transform="matrix(1, 0.05, -0.05, 1, 565.53, 360.45)">D</text><text class="cls-13" transform="matrix(1, -0.08, 0.08, 1, 570.56, 360.71)">E</text><text class="cls-11" transform="translate(574.94 360.35) rotate(-10.89)">S</text><text class="cls-4" transform="translate(579.54 359.44) rotate(-15.76)">E</text><text class="cls-6" transform="translate(583.91 358.21) rotate(-20.77)">N</text><text class="cls-4" transform="matrix(0.9, -0.44, 0.44, 0.9, 588.89, 356.38)">H</text><text class="cls-3" transform="translate(593.76 354) rotate(-30.09)">O</text><text class="cls-7" transform="translate(598.71 351.11) rotate(-33.45)"> </text><text class="cls-10" transform="translate(600.65 349.75) rotate(-36.39)">E</text><text class="cls-3" transform="translate(604.32 347.17) rotate(-41.49)"> </text><text class="cls-7" transform="translate(605.97 345.68) rotate(-44.72)">P</text><text class="cls-11" transform="translate(609.28 342.41) rotate(-50.75)">R</text><text class="cls-5" transform="matrix(0.56, -0.83, 0.83, 0.56, 612.29, 338.61)">E</text><text class="cls-7" transform="matrix(0.48, -0.88, 0.88, 0.48, 614.72, 334.92)">P</text><text class="cls-10" transform="translate(616.89 331.2) rotate(-65.53)">A</text><text class="cls-5" transform="matrix(0.35, -0.94, 0.94, 0.35, 618.93, 326.81)">R</text><text class="cls-4" transform="matrix(0.29, -0.96, 0.96, 0.29, 620.75, 322.06)">A</text><text class="cls-11" transform="translate(622.11 317.52) rotate(-76.45)">Ç</text><text class="cls-14" transform="translate(623.4 312.36) rotate(-79.57)">Ã</text><text class="cls-3" transform="matrix(0.13, -0.99, 0.99, 0.13, 624.29, 307.73)">O</text><text class="cls-9" transform="translate(135.39 131.61) rotate(63.32)">P</text><text class="cls-3" transform="translate(137.4 135.58) rotate(55.7)">R</text><text class="cls-9" transform="matrix(0.66, 0.75, -0.75, 0.66, 139.96, 139.51)">O</text><text class="cls-15" transform="translate(143.59 143.63) rotate(43.1)">D</text><text class="cls-5" transform="matrix(0.79, 0.62, -0.62, 0.79, 147.37, 147.17)">U</text><text class="cls-3" transform="translate(151.53 150.45) rotate(32.99)">Ç</text><text class="cls-6" transform="matrix(0.87, 0.49, -0.49, 0.87, 155.92, 153.27)">Ã</text><text class="cls-3" transform="matrix(0.9, 0.44, -0.44, 0.9, 160.05, 155.63)">O</text><text class="cls-3" transform="matrix(0.84, -0.54, 0.54, 0.84, 120.91, 233.11)">S</text><text class="cls-10" transform="translate(124.7 230.63) rotate(-28.58)">E</text><text class="cls-4" transform="translate(128.42 228.68) rotate(-25.79)">R</text><text class="cls-4" transform="translate(132.68 226.65) rotate(-21.58)">R</text><text class="cls-9" transform="translate(137.02 224.88) rotate(-18.75)">A</text><text class="cls-3" transform="translate(141.36 223.5) rotate(-14.47)">L</text><text class="cls-4" transform="translate(145.25 222.46) rotate(-11.59)">H</text><text class="cls-6" transform="translate(150.29 221.48) rotate(-7.24)">A</text><text class="cls-15" transform="translate(154.94 220.83) rotate(-2.86)">R</text><text class="cls-4" transform="matrix(1, -0.02, 0.02, 1, 159.43, 220.65)">I</text><text class="cls-3" transform="translate(161.61 220.69) rotate(1.54)">A</text><text class="cls-14" transform="matrix(0.56, -0.83, 0.83, 0.56, 38.15, 123.5)">L</text><text class="cls-10" transform="translate(40.3 120.29) rotate(-48.77)">O</text><text class="cls-8" transform="translate(44.05 116.19) rotate(-40.57)">G</text><text class="cls-6" transform="matrix(0.82, -0.57, 0.57, 0.82, 48.22, 112.76)">Í</text><text class="cls-5" transform="translate(49.99 111.52) rotate(-29.6)">S</text><text class="cls-8" transform="translate(53.91 109.27) rotate(-22.67)">T</text><text class="cls-3" transform="translate(57.56 107.81) rotate(-18.47)">I</text><path class="cls-1" d="M238.28,346.76a2.17,2.17,0,0,1-.1.69,1.82,1.82,0,0,1-.32.56,1.78,1.78,0,0,1-.49.41,2.41,2.41,0,0,1-.65.24,2.2,2.2,0,0,1-.88,0,1.94,1.94,0,0,1-.73-.33,2.23,2.23,0,0,1-.55-.63,3.05,3.05,0,0,1-.34-.89,2.91,2.91,0,0,1-.07-1,2.14,2.14,0,0,1,.25-.8,1.8,1.8,0,0,1,.53-.6,2.14,2.14,0,0,1,.81-.36,2.1,2.1,0,0,1,.66,0,1.78,1.78,0,0,1,.6.16,1.67,1.67,0,0,1,.51.37,2.1,2.1,0,0,1,.38.57l-.6.14a1.21,1.21,0,0,0-.24-.35,1,1,0,0,0-.33-.24,1.31,1.31,0,0,0-.41-.12,1.7,1.7,0,0,0-.49,0,1.31,1.31,0,0,0-.51.23,1.26,1.26,0,0,0-.36.43,1.66,1.66,0,0,0-.17.62,2.63,2.63,0,0,0,.06.77,3.18,3.18,0,0,0,.27.72,1.65,1.65,0,0,0,.42.48,1.2,1.2,0,0,0,.52.25,1.47,1.47,0,0,0,.59,0,1.32,1.32,0,0,0,.78-.46,1.35,1.35,0,0,0,.26-.78Z" transform="translate(-174.71 -242.07)"/><text class="cls-4" transform="translate(64.68 105.94) rotate(-5.66)">A</text><text class="cls-3" transform="matrix(0.97, 0.25, -0.25, 0.97, 232.87, 160.66)">P</text><text class="cls-4" transform="translate(237.19 161.73) rotate(18.89)">I</text><text class="cls-13" transform="translate(239.41 162.6) rotate(24.57)">N</text><text class="cls-5" transform="matrix(0.84, 0.54, -0.54, 0.84, 244.39, 164.9)">T</text><text class="cls-3" transform="matrix(0.77, 0.64, -0.64, 0.77, 248.09, 167.3)">U</text><text class="cls-4" transform="matrix(0.67, 0.74, -0.74, 0.67, 252.19, 170.76)">R</text><text class="cls-6" transform="matrix(0.57, 0.82, -0.82, 0.57, 255.53, 174.55)">A</text><g id="cargos1"><text class="cls-16" transform="translate(373.2 190.85)">JOSÉ M PINTO</text><text class="cls-16" transform="translate(380.62 197.88)">Director</text><text class="cls-16" transform="translate(385.25 127.65)">BRUNO LANÇA</text><text class="cls-16" transform="translate(426.11 127.65)"> </text><text class="cls-16" transform="translate(375.96 134.68)">Coordenador AV&amp;C</text><text class="cls-16" transform="translate(435.4 134.68)"> </text><text class="cls-16" transform="translate(434.58 217.98)">ANA TRABULO</text><text class="cls-16" transform="translate(475.45 217.98)"> </text><text class="cls-16" transform="translate(438.3 225.01)">Directora </text><text class="cls-16" transform="translate(475.45 225.01)"> </text><text class="cls-16" transform="translate(440.15 232.04)">Projecto</text><text class="cls-16" transform="translate(352.53 274.39)">FRANCISCA BARROS</text><text class="cls-16" transform="translate(411.97 274.39)"> </text><text class="cls-16" transform="translate(359.96 281.42)">Coordenadora </text><text class="cls-16" transform="translate(408.25 281.42)"> </text><text class="cls-16" transform="translate(365.53 288.45)">Artística</text><text class="cls-16" transform="translate(292.93 208.68)">VALENTIM NEVES</text><text class="cls-16" transform="translate(344.94 208.68)"> </text><text class="cls-16" transform="translate(298.5 215.71)">Director de </text><text class="cls-16" transform="translate(343.08 215.71)"> </text><text class="cls-16" transform="translate(304.08 222.74)">Produção</text></g><g id="circulos2"><path class="cls-2" d="M359.77,394.69a54.07,54.07,0,1,0-50.42-57.49A54.06,54.06,0,0,0,359.77,394.69Z" transform="translate(-174.71 -242.07)"/><path class="cls-2" d="M331.53,604.93c37.4,2.45,69.73-26.31,72.22-64.22s-25.82-70.63-63.22-73.08-69.74,26.3-72.22,64.21S294.13,602.47,331.53,604.93Z" transform="translate(-174.71 -242.07)"/><path class="cls-17" d="M278.49,387.91A33.35,33.35,0,1,0,243,419,33.35,33.35,0,0,0,278.49,387.91Z" transform="translate(-174.71 -242.07)"/><path class="cls-17" d="M398,473.4a33.35,33.35,0,1,0-31.1-35.46A33.35,33.35,0,0,0,398,473.4Z" transform="translate(-174.71 -242.07)"/><path class="cls-18" d="M284.06,444.61a39.32,39.32,0,1,0-41.81,36.66A39.32,39.32,0,0,0,284.06,444.61Z" transform="translate(-174.71 -242.07)"/><path class="cls-19" d="M734.2,593.64a51.7,51.7,0,1,0-47-56A51.7,51.7,0,0,0,734.2,593.64Z" transform="translate(-174.71 -242.07)"/><path class="cls-19" d="M734.2,474.49a51.7,51.7,0,1,0-47-56A51.71,51.71,0,0,0,734.2,474.49Z" transform="translate(-174.71 -242.07)"/></g></g><g id="Layer_4" data-name="Layer 4"><g id="cargos3"><text class="cls-4" transform="translate(221.41 160.06) rotate(-4.22)"> </text><text class="cls-6" transform="translate(223.17 160.03) rotate(-2.77)"> </text><text class="cls-13" transform="translate(224.97 159.93) rotate(0.12)"> </text><text class="cls-9" transform="translate(227.05 159.95) rotate(3.02)"> </text><text class="cls-10" transform="matrix(0.99, 0.1, -0.1, 0.99, 228.91, 160.14)"> </text><text class="cls-4" transform="translate(230.74 160.26) rotate(8.82)"> </text><text class="cls-16" transform="translate(392.34 68.21)">BERNARDO BORDALO</text><text class="cls-16" transform="translate(451.78 68.21)"> </text><text class="cls-16" transform="translate(401.63 75.24)">Audiovisual</text><text class="cls-16" transform="translate(442.49 75.24)"> </text><text class="cls-16" transform="translate(475.45 217.98)"> </text><text class="cls-16" transform="translate(475.45 225.01)"> </text><text class="cls-16" transform="translate(534.03 169.45)">MARIA D&apos;OREY</text><text class="cls-16" transform="translate(578.61 169.45)"> </text><text class="cls-16" transform="translate(521.03 176.48)">Gestora de Projecto</text><text class="cls-16" transform="translate(591.61 176.48)"> </text><text class="cls-16" transform="translate(558.41 197.46)">RUI BARROS</text><text class="cls-16" transform="translate(595.56 197.46)"> </text><text class="cls-16" transform="translate(558.41 204.49)">Assistente </text><text class="cls-16" transform="translate(599.27 204.49)"> </text><text class="cls-16" transform="translate(562.12 211.52)">Projecto</text><text class="cls-16" transform="translate(591.84 211.52)"> </text><text class="cls-16" transform="translate(528.07 281.74)">FRANCISCO </text><text class="cls-16" transform="translate(565.22 281.74)"> </text><text class="cls-16" transform="translate(531.78 288.77)">FONSECA</text><text class="cls-16" transform="translate(585.61 287)">PEDRO </text><text class="cls-16" transform="translate(607.9 287)"> </text><text class="cls-16" transform="translate(585.61 294.03)">SILVA</text><text class="cls-16" transform="translate(604.19 294.03)"> </text><text class="cls-16" transform="translate(540.91 329.85)">TIAGO </text><text class="cls-16" transform="translate(563.2 329.85)"> </text><text class="cls-16" transform="translate(539.05 336.88)">NOVAIS</text><text class="cls-16" transform="translate(561.34 336.88)"> </text><text class="cls-16" transform="translate(52 150.2)">SARA SERRA</text><text class="cls-16" transform="translate(89.16 150.2)"> </text><text class="cls-16" transform="translate(42.72 157.23)">Finanças &amp; Log.</text><text class="cls-16" transform="translate(98.44 157.23)"> </text><text class="cls-16" transform="translate(57.72 121.09)">CLÁUDIA </text><text class="cls-16" transform="translate(87.44 121.09)"> </text><text class="cls-16" transform="translate(59.57 128.12)">SANTOS</text><text class="cls-20" transform="translate(76.23 195.6)">PEDRO GRAÇA</text><text class="cls-16" transform="translate(76.23 195.6)">PEDRO GRAÇA</text><text class="cls-20" transform="translate(22.72 198.81)">YUDAMI</text><text class="cls-20" transform="translate(45.01 198.81)"> </text><text class="cls-16" transform="translate(22.72 198.81)">YUDAMI</text><text class="cls-16" transform="translate(45.01 198.81)"> </text><text class="cls-20" transform="translate(9.72 205.84)">Ferramentaria</text><text class="cls-20" transform="translate(58.02 205.84)"> </text><text class="cls-16" transform="translate(9.72 205.84)">Ferramentaria</text><text class="cls-16" transform="translate(58.02 205.84)"> </text><text class="cls-20" transform="translate(62.14 216.95)">SÓNIA</text><text class="cls-16" transform="translate(62.14 216.95)">SÓNIA</text><text class="cls-20" transform="translate(80.72 216.95)"> </text><text class="cls-16" transform="translate(80.72 216.95)"> </text><text class="cls-20" transform="translate(52.85 223.98)">Manutenção </text><text class="cls-20" transform="translate(93.72 223.98)"> </text><text class="cls-16" transform="translate(52.85 223.98)">Manutenção </text><text class="cls-16" transform="translate(93.72 223.98)"> </text><text class="cls-20" transform="translate(54.71 231)">e Limpeza</text><text class="cls-20" transform="translate(88.15 231)"> </text><text class="cls-16" transform="translate(54.71 231)">e Limpeza</text><text class="cls-16" transform="translate(88.15 231)"> </text><text class="cls-20" transform="translate(237.08 193.41)">AMÉRICO</text><text class="cls-20" transform="translate(263.08 193.41)"> </text><text class="cls-16" transform="translate(237.08 193.41)">AMÉRICO</text><text class="cls-16" transform="translate(263.08 193.41)"> </text><text class="cls-20" transform="translate(229.65 200.44)">Coordenador</text><text class="cls-16" transform="translate(229.65 200.44)">Coordenador</text><text class="cls-20" transform="translate(190.25 205.25)">SÉRGIO</text><text class="cls-20" transform="translate(212.54 205.25)"> </text><text class="cls-16" transform="translate(190.25 205.25)">SÉRGIO</text><text class="cls-16" transform="translate(212.54 205.25)"> </text><text class="cls-20" transform="translate(188.4 212.28)">Técnico</text><text class="cls-16" transform="translate(188.4 212.28)">Técnico</text><text class="cls-20" transform="translate(199.54 185.15)">BRYAN</text><text class="cls-20" transform="translate(218.11 185.15)"> </text><text class="cls-16" transform="translate(199.54 185.15)">BRYAN</text><text class="cls-16" transform="translate(218.11 185.15)"> </text><text class="cls-20" transform="translate(195.82 192.18)">Técnico</text><text class="cls-16" transform="translate(195.82 192.18)">Técnico</text><text class="cls-20" transform="translate(235.44 223.44)">JORGE</text><text class="cls-20" transform="translate(254.02 223.44)"> </text><text class="cls-16" transform="translate(235.44 223.44)">JORGE</text><text class="cls-16" transform="translate(254.02 223.44)"> </text><text class="cls-20" transform="translate(218.72 230.47)">Técnico Fibras</text><text class="cls-16" transform="translate(218.72 230.47)">Técnico Fibras</text><text class="cls-20" transform="translate(164.88 103.27)">CARLOS ARTEIRO</text><text class="cls-20" transform="translate(216.89 103.27)"> </text><text class="cls-16" transform="translate(164.88 103.27)">CARLOS ARTEIRO</text><text class="cls-16" transform="translate(216.89 103.27)"> </text><text class="cls-20" transform="translate(170.45 110.3)">Coordenador</text><text class="cls-16" transform="translate(170.45 110.3)">Coordenador</text><text class="cls-20" transform="translate(234.81 107.65)">ANDRÉ COELHO</text><text class="cls-20" transform="translate(279.39 107.65)"> </text><text class="cls-16" transform="translate(234.81 107.65)">ANDRÉ COELHO</text><text class="cls-16" transform="translate(279.39 107.65)"> </text><text class="cls-20" transform="translate(236.67 114.68)">Coord. Adj.</text><text class="cls-16" transform="translate(236.67 114.68)">Coord. Adj.</text><text class="cls-20" transform="translate(191.77 53.71)">ALFREDO LAPA</text><text class="cls-20" transform="translate(236.35 53.71)"> </text><text class="cls-16" transform="translate(191.77 53.71)">ALFREDO LAPA</text><text class="cls-16" transform="translate(236.35 53.71)"> </text><text class="cls-20" transform="translate(201.05 60.73)">Técnico</text><text class="cls-16" transform="translate(201.05 60.73)">Técnico</text><text class="cls-20" transform="translate(130.62 60.87)">RENATO CABRAL</text><text class="cls-20" transform="translate(178.91 60.87)"> </text><text class="cls-16" transform="translate(130.62 60.87)">RENATO CABRAL</text><text class="cls-16" transform="translate(178.91 60.87)"> </text><text class="cls-20" transform="translate(141.76 67.9)">Técnico</text><text class="cls-16" transform="translate(141.76 67.9)">Técnico</text><text class="cls-20" transform="translate(213.57 84.55)">LEONARDO CENA</text><text class="cls-20" transform="translate(261.87 84.55)"> </text><text class="cls-16" transform="translate(213.57 84.55)">LEONARDO CENA</text><text class="cls-16" transform="translate(261.87 84.55)"> </text><text class="cls-20" transform="translate(224.71 91.58)">Técnico</text><text class="cls-16" transform="translate(224.71 91.58)">Técnico</text><text class="cls-20" transform="translate(111.62 94.84)">ANTÓNIO ESTEVES</text><text class="cls-20" transform="translate(167.35 94.84)"> </text><text class="cls-16" transform="translate(111.62 94.84)">ANTÓNIO ESTEVES</text><text class="cls-16" transform="translate(167.35 94.84)"> </text><text class="cls-20" transform="translate(126.48 101.87)">Técnico</text><text class="cls-16" transform="translate(126.48 101.87)">Técnico</text><text class="cls-20" transform="translate(153.56 133.77)">LUÍS RAMOS</text><text class="cls-20" transform="translate(190.71 133.77)"> </text><text class="cls-16" transform="translate(153.56 133.77)">LUÍS RAMOS</text><text class="cls-16" transform="translate(190.71 133.77)"> </text><text class="cls-20" transform="translate(159.13 140.8)">Técnico</text><text class="cls-16" transform="translate(159.13 140.8)">Técnico</text><text class="cls-20" transform="translate(197.72 130.28)">ÁLVARO OLIVEIRA</text><text class="cls-20" transform="translate(253.45 130.28)"> </text><text class="cls-16" transform="translate(197.72 130.28)">ÁLVARO OLIVEIRA</text><text class="cls-16" transform="translate(253.45 130.28)"> </text><text class="cls-20" transform="translate(212.58 137.31)">Técnico</text><text class="cls-16" transform="translate(212.58 137.31)">Técnico</text><text class="cls-20" transform="translate(137.46 288.87)">RICARDO FELICIANO</text><text class="cls-20" transform="translate(200.62 288.87)"> </text><text class="cls-16" transform="translate(137.46 288.87)">RICARDO FELICIANO</text><text class="cls-16" transform="translate(200.62 288.87)"> </text><text class="cls-20" transform="translate(148.61 295.9)">Coordenador</text><text class="cls-16" transform="translate(148.61 295.9)">Coordenador</text><text class="cls-20" transform="translate(141.8 363.76)">EDUARDO REGULFE</text><text class="cls-20" transform="translate(197.52 363.76)"> </text><text class="cls-16" transform="translate(141.8 363.76)">EDUARDO REGULFE</text><text class="cls-16" transform="translate(197.52 363.76)"> </text><text class="cls-20" transform="translate(149.23 370.79)">Serralheiro</text><text class="cls-16" transform="translate(149.23 370.79)">Serralheiro</text><text class="cls-20" transform="translate(215.05 309.65)">BRUNO SANTOS</text><text class="cls-20" transform="translate(259.63 309.65)"> </text><text class="cls-16" transform="translate(215.05 309.65)">BRUNO SANTOS</text><text class="cls-16" transform="translate(259.63 309.65)"> </text><text class="cls-20" transform="translate(216.91 316.68)">Serralheiro</text><text class="cls-16" transform="translate(216.91 316.68)">Serralheiro</text><text class="cls-20" transform="translate(109.9 324.63)">ARMANDO ESCOBAR</text><text class="cls-20" transform="translate(165.62 324.63)"> </text><text class="cls-16" transform="translate(109.9 324.63)">ARMANDO ESCOBAR</text><text class="cls-16" transform="translate(165.62 324.63)"> </text><text class="cls-20" transform="translate(117.33 331.66)">Serralheiro</text><text class="cls-16" transform="translate(117.33 331.66)">Serralheiro</text><text class="cls-20" transform="translate(186.88 332.55)">HÉLDER FERNANDES</text><text class="cls-20" transform="translate(246.32 332.55)"> </text><text class="cls-16" transform="translate(186.88 332.55)">HÉLDER FERNANDES</text><text class="cls-16" transform="translate(246.32 332.55)"> </text><text class="cls-20" transform="translate(183.16 339.58)">Mestre Serralheiro</text><text class="cls-16" transform="translate(183.16 339.58)">Mestre Serralheiro</text><text class="cls-20" transform="translate(154.33 265.52)">DOMINGOS FERREIRA</text><text class="cls-20" transform="translate(217.48 265.52)"> </text><text class="cls-16" transform="translate(154.33 265.52)">DOMINGOS FERREIRA</text><text class="cls-16" transform="translate(217.48 265.52)"> </text><text class="cls-20" transform="translate(165.47 272.55)">Serralheiro</text><text class="cls-16" transform="translate(165.47 272.55)">Serralheiro</text><text class="cls-20" transform="translate(124.8 242.08)">IVO PEREIRA</text><text class="cls-20" transform="translate(165.67 242.08)"> </text><text class="cls-16" transform="translate(124.8 242.08)">IVO PEREIRA</text><text class="cls-16" transform="translate(165.67 242.08)"> </text><text class="cls-20" transform="translate(124.8 249.11)">Serralheiro</text><text class="cls-16" transform="translate(124.8 249.11)">Serralheiro</text><text class="cls-20" transform="translate(78 267.83)">CARLOS SANTOS</text><text class="cls-20" transform="translate(126.3 267.83)"> </text><text class="cls-16" transform="translate(78 267.83)">CARLOS SANTOS</text><text class="cls-16" transform="translate(126.3 267.83)"> </text><text class="cls-20" transform="translate(68.71 274.86)">Mestre Serralheiro</text><text class="cls-16" transform="translate(68.71 274.86)">Mestre Serralheiro</text><text class="cls-20" transform="translate(85.6 301.37)">INÊS COELHO</text><text class="cls-20" transform="translate(126.47 301.37)"> </text><text class="cls-16" transform="translate(85.6 301.37)">INÊS COELHO</text><text class="cls-16" transform="translate(126.47 301.37)"> </text><text class="cls-20" transform="translate(85.6 308.4)">Coord. Adj.</text><text class="cls-16" transform="translate(85.6 308.4)">Coord. Adj.</text></g><g id="dots3"><path class="cls-1" d="M692,406.33a3.79,3.79,0,1,0-3.45-4.11,3.79,3.79,0,0,0,3.45,4.11" transform="translate(-174.71 -242.07)"/><path class="cls-1" d="M698.16,515a3.79,3.79,0,1,0-3.45-4.11,3.78,3.78,0,0,0,3.45,4.11" transform="translate(-174.71 -242.07)"/><path class="cls-1" d="M395.82,448.14a3.8,3.8,0,1,0-3.86-3.73,3.81,3.81,0,0,0,3.86,3.73" transform="translate(-174.71 -242.07)"/><path class="cls-1" d="M401.44,353.05a3.79,3.79,0,1,0-2.84-4.55,3.79,3.79,0,0,0,2.84,4.55" transform="translate(-174.71 -242.07)"/><path class="cls-1" d="M348.61,319.4a3.8,3.8,0,1,0-2.84-4.56,3.8,3.8,0,0,0,2.84,4.56" transform="translate(-174.71 -242.07)"/><path class="cls-1" d="M333.92,365.73a3.79,3.79,0,1,0-2.84-4.55,3.79,3.79,0,0,0,2.84,4.55" transform="translate(-174.71 -242.07)"/><path class="cls-1" d="M377.38,552.22a3.8,3.8,0,1,0-2.84-4.55,3.79,3.79,0,0,0,2.84,4.55" transform="translate(-174.71 -242.07)"/><path class="cls-1" d="M356.83,569.27a3.8,3.8,0,1,0-2.85-4.55,3.79,3.79,0,0,0,2.85,4.55" transform="translate(-174.71 -242.07)"/><path class="cls-1" d="M322.31,327.21a3.8,3.8,0,1,0-2.85-4.55,3.79,3.79,0,0,0,2.85,4.55" transform="translate(-174.71 -242.07)"/><path class="cls-1" d="M309,586.58a3.8,3.8,0,1,0-2.84-4.55,3.8,3.8,0,0,0,2.84,4.55" transform="translate(-174.71 -242.07)"/><path class="cls-1" d="M340.74,594.3a3.8,3.8,0,1,0-2.85-4.55,3.79,3.79,0,0,0,2.85,4.55" transform="translate(-174.71 -242.07)"/><path class="cls-1" d="M363.91,336.53a3.8,3.8,0,1,0-2.84-4.55,3.8,3.8,0,0,0,2.84,4.55" transform="translate(-174.71 -242.07)"/><path class="cls-1" d="M366.76,313.13a3.8,3.8,0,1,0-2.85-4.55,3.79,3.79,0,0,0,2.85,4.55" transform="translate(-174.71 -242.07)"/><path class="cls-1" d="M789.05,533a3.79,3.79,0,1,0-3.45-4.11,3.8,3.8,0,0,0,3.45,4.11" transform="translate(-174.71 -242.07)"/><path class="cls-1" d="M728.89,596.93a3.79,3.79,0,1,0-3.45-4.11,3.79,3.79,0,0,0,3.45,4.11" transform="translate(-174.71 -242.07)"/><path class="cls-1" d="M784.74,451.57a3.79,3.79,0,1,0-3.45-4.11,3.79,3.79,0,0,0,3.45,4.11" transform="translate(-174.71 -242.07)"/><path class="cls-1" d="M419.25,454.65a3.79,3.79,0,1,0-3.45-4.11,3.81,3.81,0,0,0,3.45,4.11" transform="translate(-174.71 -242.07)"/><path class="cls-1" d="M400.26,424.87a3.8,3.8,0,1,0-3.86-3.73,3.8,3.8,0,0,0,3.86,3.73" transform="translate(-174.71 -242.07)"/><path class="cls-1" d="M249.74,410.8a3.8,3.8,0,1,0-3.72,3.86,3.8,3.8,0,0,0,3.72-3.86" transform="translate(-174.71 -242.07)"/><path class="cls-1" d="M400.31,462.46a3.8,3.8,0,1,0-3.86-3.73,3.8,3.8,0,0,0,3.86,3.73" transform="translate(-174.71 -242.07)"/><path class="cls-1" d="M597.31,300.86a3.79,3.79,0,1,0-3.45-4.11,3.79,3.79,0,0,0,3.45,4.11" transform="translate(-174.71 -242.07)"/><path class="cls-1" d="M384.21,365.17a3.8,3.8,0,1,0-3.86-3.73,3.8,3.8,0,0,0,3.86,3.73" transform="translate(-174.71 -242.07)"/><path class="cls-1" d="M287,530.36a3.8,3.8,0,1,0-3.86-3.73,3.8,3.8,0,0,0,3.86,3.73" transform="translate(-174.71 -242.07)"/><path class="cls-1" d="M310.39,548.4a3.8,3.8,0,1,0-3.86-3.73,3.8,3.8,0,0,0,3.86,3.73" transform="translate(-174.71 -242.07)"/><path class="cls-1" d="M319.21,505.62a3.8,3.8,0,1,0-3.87-3.73,3.78,3.78,0,0,0,3.87,3.73" transform="translate(-174.71 -242.07)"/><path class="cls-1" d="M359.27,495.43a3.8,3.8,0,1,0-3.86-3.73,3.79,3.79,0,0,0,3.86,3.73" transform="translate(-174.71 -242.07)"/><path class="cls-1" d="M270.86,425.54a3.8,3.8,0,1,0-3.73,3.86,3.79,3.79,0,0,0,3.73-3.86" transform="translate(-174.71 -242.07)"/><path class="cls-1" d="M224.7,427.24A3.8,3.8,0,1,0,221,431.1a3.81,3.81,0,0,0,3.73-3.86" transform="translate(-174.71 -242.07)"/><path class="cls-1" d="M249,379a3.8,3.8,0,1,0-3.73,3.86A3.78,3.78,0,0,0,249,379" transform="translate(-174.71 -242.07)"/><path class="cls-1" d="M249.94,446.55a3.8,3.8,0,1,0-3.73,3.86,3.8,3.8,0,0,0,3.73-3.86" transform="translate(-174.71 -242.07)"/><path class="cls-1" d="M391,317.64a3.8,3.8,0,1,0-3.86-3.73,3.78,3.78,0,0,0,3.86,3.73" transform="translate(-174.71 -242.07)"/><path class="cls-1" d="M333.74,551.88a3.8,3.8,0,1,0-2.84-4.55,3.79,3.79,0,0,0,2.84,4.55" transform="translate(-174.71 -242.07)"/></g></g></svg>